<svg version="1.1" id="Layer_1" xmlns="http://www.w3.org/2000/svg" x="0" y="0" viewBox="0 0 89.4 74.9" xml:space="preserve"><style>.st1{fill:#da8b20}</style><path d="M11.4 62.2c-.4-.6-3.2-5.1-3.3-7.2-.1-2.1.3-3.6.1-4.1-.5-1.3 1.9-2.7.2-3.4-.9-.4-1.3-.8-1.5-1.8-.1-.7-1-.9-1.7-1.2-.9-.4-1.9-.6-2.6-1.3-.3-.3-.7-.4-1-.7-.6-.5-.7-1.1-.7-1.8 0-.4-.1-.6-.4-.8-.6-.4-.8-2.3-.1-2.3.3 0 .6-.4.7-.5 1.2-1.9 4.5-1.2 5.2-1.3 1.3-.2 2.6-.3 4-.7-1-.4-1.5-1.4-2.5-1.4-1.1-.2-.6-1.8-1.5-2.1-1.4-.4-2.4-1.1-3-2.5-2.4-5.6-1.1-6.3-.9-6.6.2-.3.4-1.5 1.4-1.8 1-.3 6.4-5.2 7.9-3.6.1.1 1.2-.7 1.1-.9-.5-.9.1-4.6-1.4-5.9-2.9-2.6 1.1-4.1 2-4.2 5.7-.6 9.2 4.9 9.8 6.1.6 1.5 5.8-.5 2.7-6.9-.6-1.3 1.5-2.4 1.6-3.1.1-.3.4-.5.9-.3 1.2.4 4.6.3 5 .7.4.4.1.9.1 1.4 0 .9.9 1.3 1.1 2 .1.5 1.9 5.2 2.9 4.4 3.7-3.1 5.7-3.3 6.3-5.3.6-2.1 3-3 3.5-3.4 3.3-3.3 6.8-.8 7.6-.5.8.4.9 2.6.4 3.1-.4.4-.4.9 0 1.4.3.4.9.7.6 1.4-.1.2.1.4.4.3 1.1-.4 8.5-4.7 12.2-2.6.2.1.7.8 1.4.3 1.4-1.1 2.3 1.2 3 1.2 1.1.1.8 3.6 1.8 3.3.4-.1.9 2.4-1.1 1.1.1.2.4 2.3-.4 2.7-.7.4 1.5 2.1-.8 3.1-.6.3.4 1.5.7 1.3.7-.3 2.1-.3 4.9-1.6 1.8-.9 8.8 1.9 5.6 6.6-.2-2.2-4.3 2.1-1.3 3.7 1.3.7 5.7 7.5 5.6 9.3-.1 1-1.6 3.7-2.1 3.4-.1 0 .8-2-.1-1.1-1 .9-.7-.1-1.1 0-.4 0-.4 1.4-.9 2-.5.6 1.3 2.4 1.7 3.1.4.7.3 1.4.4 2.1.1.3 1.6 1.3 2 1.6.5.4 1.8 1.6 1.4 2.2-.3.7-1.4.6-1.9.3-.2-.1-.3.3-.3.5.1.4.3 1 .2 1.3-.2.6-.6-.3-1-.4-.5-.1-1.6 1.3-1.7 1.5-.3.6-.6.8-1.2.2-.8-.6-.7.8-1.2.4-.6-.4-.9.8-3.6-.8-.7-.4-.9-.3-1.5.6-.5.9-.8-.4-1-.4-.2 0-.1 2.5 1.4 3 .2.1.6.3.7.4.3.4.5.7 1 1 .5.2.5.9.3 1.5s-.2 1.3-.9 1.8c-.4.3.2.4.6.3.2 0 .8.4 0 .7-.3.1.2.7-.2.9-.6.3-.1 1-.9.8-1.7-.4-1.6 1.3-2.5 1.8-3.9 2-4.2-2.1-5-2.3-4-1.1-6.1-5.9-6.7-5.7-.6.2-.4 1.7-.4 3.8 0 2.1-1.3 3.1-1.6 3.9 1.2-.9.9 0 .6.3-.3.3-1.1 1.2-2.1 1.1-.6-.1-1 .2-.9.9.1.4-.1.5-.4.7-1.1.7-2.3.6-3.3-.5-.7-.8-2.8-3.6-3.1-4.2-.1-.3-.3-.6-.5-.1-.1.3-.8.3-1.6.8-2.4 1.7-2.4 4.9-4.7 6.1-1.2.7-2.3 1.9-3.4 2.9-1 .9-2 1.5-2.2 1.8-.1.2-.5.4-.9.1-.5-.4-1-.9-1.3.2-.1.3-.4.1-.6.1-1.4-.6-3.5-2.4-2.9-4.3.2-.7-.4-.9-.7-1.1-2.3-1.5-2.4-6.4-2.2-7.1.8-2.5-7.4-.4-8.7.4-.5.3-.5 1.1-1.1 1-.4 0-1.9 1.1-2.2 1.4 1.1-3.6-3.5-.5-1.8.6 1 .5-.3.7-1.2.3-.6-.2-4.5-2.4-5.2-3.4m29.1-13.4c1.8-.1 3.6-.3 5.5-.4 2.4-.1 4.7-.5 7-.7 1.8-.1 3.5-.4 5.2-.8 1.6-.4 3.1-1 4.6-1.4.6-.2 1.5-.3 1.8-1 .3-.7.6-1.3.9-2 1-2.1 1.5-4.3 1.8-6.6.2-1.5-.1-2.9-.2-4.4-.1-1.5-.8-2.8-1.8-3.9-.7-.8-1.6-1.5-2.4-2.3-.8-.7-1.6-1.5-2.6-2-.8-.5-1.7-.7-2.4-1.3-.6-.4-1.2-.6-1.9-.6-1.7-.1-3.3-.6-4.8-1.1-.9-.3-1.8-.6-2.7-.8-.9-.2-1.9.3-2.9.2-1.1-.1-2.1.6-3.3.5-.8-.1-1.7.2-2.1 1.2-.2.4-.9.5-1.3.3-1.2-.6-2.3-.1-3.4.2-1.5.4-2.9 1.1-4.3 1.9-.8.5-1.7 1-2.3 1.8-.3.4-.6.6-1 .9-1 .7-2 1.3-2.6 2.5-.4.8-1 1.5-1.3 2.2-.3.8-.5 1.7-.7 2.6-.1.3-.2.5-.2.8 0 1.5.5 2.9.9 4.4.2.7.3 1.5.7 2.1.8 1.2 1.7 2.4 2.7 3.5 1 1.1 2.2 2 3.4 2.6 2 1 4.3 1.5 6.7 1.7.9.1 2-.1 3-.1" fill="#f1c61a"/><path class="st1" d="M61.6 17.2c-1.1 1 2.1-1 5.3-.1 1.2.2 3.6 2.6 4 3 .2.2 2 .3 2.5 1.9.2.4 2.4 3.7 2.6 5.1.2 1.4.1 6.4.5 7.5 1 2.6-1.6 8.7-1.8 9.4-.6 2-4.6 5.1-4.5 5.6.2.6.3 3.8-1.4 4.7-1.7.8-4 .2-4.1-.3-.1-.5-2.6-2.2-2.8-2.4.8 1.1.9 2.9.8 3 0 0 0 1.3.2 1.7.3.2 2.2-1.6 2.5-1.5 0 .1.1 0 .2.1-.6.5-3.9 4.6-7.2 6.1-3.3 1.5-10 5.6-25.1 2.4-5.3-1.2-10.6-6.4-10.9-6.8-3.4-4.5-5.3-9.7-5.2-9.4-.8-1.7.4-2.8-.2-4.4-.6-1.6-3.4.3-3.5-10.4v-1.1c-.1-.5-1.2-1.5-1.6-2.1-1.4-2.5 1.9-5.6 2-8 .1-2.4-1.8-3.1.3-5.7 2.3-2.7 5.4-.2 6.6-1.2 1.2-1-.2-2.6 1.6-5 2.5-3.3 5.8-.4 6.7.3 1.6 1.3 2.2 2.7 2.4 3.3.3-.3.9-6.9 3.6-7.8 3.8-1 5.1 3.9 5.1 4 1.2-2.9 3.2-4.6 5.5-4 1.9.5 3.1 2.4 3 4 2-3.7 4.5-3.9 5.7-3.7 1.2.2 2.4.7 3 1.9.4.7.6 1.3.5 2.2-.1.3-.1.5-.2.8h.1c.4-.4.4-.5 1.4-1.3 1-.8 2.5-.6 3.2-.3.6.3 1.1.6 1.5 1.1 2 2.5-1.8 7-2.3 7.4m12.9 20.2c-.4-.2-1.3.7-1.9 1 .2.2 1.5 1.2 1.6 1.1.6-.5.7-2 .3-2.1m-15.4 1.2c0 .3-.5.7-.5.8.2.1 2.2.9 2 1.6 0 .3-.3.6-.6.5-.3 0-.7-.4-.7-.6 0-.1-.7-1.5-1.4-.9-.1.2-.6.9-.6 1 .7.2 2.7 2 3.1 2 .4 0 1-.1 1.2-.5.3-.5.5-1 .3-1.6-.6-1.6-2.4-3.5-2.8-2.3m.6 17.7c-.9.8-2.9-.5-2.5-.9.4-.4 1.2-1.9.6-2.9-.4 0-2.4 1.4-2.3 1.5-.3.3 1.4 4.2 2.5 4.3.6.1 3.7-1.4 3.6-2.9-.1-1.6-.8-4.6-2-4.5-1.3.1.5 3.7.7 3.9.5.4-.5 1.5-.6 1.5m-16.8-.2c-.9-.3-1.5.2-2.6 0-.4 2.3-.5 4.7.5 5.4.3.2 1.7 1 2.6.8 2.4-.6 2.3-4.8 2.4-5.5.1-.8-1.4-.7-2-.8.9 2.5-.4 5-.7 5-.3 0-.8-.8-.8-1.4-.2-1.5.6.1.6-3.5m25.7-32c.2.8-.5 1.6-1.3 1.6-.8.1-2 .2-2.7.3-.7.1-.7.3-.6.5.1.2.5.7.7 1.6.2.8.4.9.8 1s1.4-.5 2.2-.9c5-2.7 4-4.8 3.5-5.6-.6-.8-2.8-2-8 1l-.6.3c.3.5.6 1 .8 1.5.2-.1.3-.1.4-.2.9-.6 4.6-1.9 4.8-1.1M43.2 43.8c1.6 0 6.3-1.1 8.8-2.2 2.4-1.1 5.8-7.7 5.8-10.1 0-.3-.7.4-1.1-.6-.1-.3-1.3-.5-2-1.1-1.6-1.4-5.3-2.6-7.1-2.9-3.4-.7-7.9.4-9 .7s-3.4 3.5-3.8 4.3c-.4.9-2.3 5.5-1.8 7.5.8 3 1.8 3.7 2.5 4.2.8.5 3-.8 4.6 0 1.5.9 1.4.3 3.1.2m3.6-27.7c.1-.4.6-3.3 1-4.7.3-.9-.8-4.1-2.6-4.4-4-.6-4.5 8.2-4.6 9.5 0 0 1.3-.7 2.7-.1 0-.4-1.4-7 1.3-6.4.3.1.9 1 .5 1.6-.4.6-.3 1.6-.4 1.7-.2.5-.5 2.3-.6 2.6-.1.5 2.6.7 2.7.2m7.4 1c0-1.1 1.4-3.4 1.8-4.5.2-.5.6-2.2.6-2.5.2-1.8-.5-2.5-1.9-2.7-1.5-.2-4.6-.7-5.9 6-.1.3-.7 1.8-.8 3.2.3-.1 1.9-.1 1.9-.4-.2-1.6 2-5.1 2.8-5.5.3-.2 1.1.3 1.1.5s.1 1.1.1 1.8-.5.6-1.1.9c-.9-.1-1.4 1-1.7 2.7 1.3-.5 2.7.4 3.1.5m-25.4.1c0 .1.2.1.3.1.6-.2 2.2-.6 2.3-.7 0 0-1.3-4.1-1.8-4.7-.8-1.3-3.5-3.1-5.3-1.6-3.6 3.1.9 7.2 2.5 8 .4.4 1.4-.3 1.2-.6-.4-.4-2.2-3.4-2.5-4.3-.3-.9-.3-1.3.3-1.5.6-.2 1.5.8 1.6 1.1 0 .3 1 3.7 1.4 4.2M17.2 28.6c-.9-.6 0-1.3.7-1.6.7-.3 2.7 1.8 5.2 1.7.2 0 .2-2.2.4-3.4-3.3-.3-5.3-1.9-6.5-1.5-.3.1-.4.6-.4.5 0 0-1.2 6.3.8 7.3 1.5.5 5.6.5 5.6-.3 0-.5 0-1.9-.2-1.8-2.6 1.2-5-.6-5.6-.9zm22.1-17.7c0-.7-.8-2.1-1.6-3-.3-.3-1.3-1.4-2.1-.8-.9.6-1.2 1.6-1.7 2.5-1.5 4-.2 5.8-.1 6.5h1.3c-.4-.8-.3-1.6-.3-2.4.2-1.1 0-2.3 0-2.4 0-2.5 1.9-1.3 2-.5.1.8 0 1.3-.3 1.6-.3.3-.4 2.8-.4 3.5 0 .1 2.7.4 2.7.4.7.1.3-.9.5-5.4m-8.9 47.9c0 .5 5.5 4 7.4.3.3-.6.9-2.8 1-3.4-.4.2-1.8-.6-2.5-.8-.1.3-.2.7-.2 1.1-.1.8-1.5 2.9-2 2.9s-.4-1.7 0-2.2c.1-.1 1.4-1 1.8-2.1-2.2-.3-2.8-1.4-3.6-1.5-1.5 2.2-1.9 5.2-1.9 5.7m38.1-8.7c-.2-1.7-1-3-2.2-4.1-.6-.5-1.3-.9-2-1.3-.2-.1-.3-.1-.4.2 0 .4-.5 1.1-.7 1.8.3.1.6.1.8.2.5.3 4.1 2.5 2.6 3.3-.2.1-.3.1-.5.2-.4.1-.6 0-.7-.4-.1-.2-.8-.9-.9-1.1-.3-.8-1-1.2-1.7-1.6-.4.5-1.2 1.8-1.8 2-.1.1.1.3.4.5.3.2 1.6 1.3 2.8 2 4.4 2.6 4.3-.7 4.3-1.7m-6-39.2c-3.2-2.9-6.7 3.7-7.3 6.4 0 .1 0 .3.1.3.4.2.7.3 1.1.5.4-.9 1.8-4.6 3-5.3.3-.2 1.3-.2.9 1.8-1.8.3-2.8 3.6-2.9 3.7-.4.3 1 1.1 1.5.8 2.7-2.8 4.9-7 3.6-8.2zm7.3 30.6c-.3.3-.8 1.6-4.3.2-.5-.2-1 1.5-.1 1.9 0 0 5.3 2.5 6.5.1.8-1.4.1-4.6-2.8-4.7-1-.1-1.9-.3-2.9-.6-.3-.1-.4 0-.4.2-.1.5-.2 1-.3 1.6.4-.1 3.4-.2 4.3 1.3zM65.4 35c1.9.5 5.1.6 6 .3 2.7-.8 1.9-2.3 2-2.3-.4-2-2.7-2.3-3.4-2.4-1.2-.2-2.4-.1-3.5.3-.3.1-1.7.6-1.5 1.7 1.1-.6 3.5-.9 5.2-.1-.1 1.4-3.8.9-5 1.1.1.5.2.9.2 1.4m-13 11.8c-.2 0-.2.4-.2.6 0 .9-.3 1.7-.7 2.4-.7 1.3-2.6 1.6-3.6.6-.4-.4-1.4-1.7-1.5-1.8-.1.2-.6 2.5-2.4 4.5 1.2-.1 3.6.6 6.2-.9 1.4-.8 2.2-.7 2.6-.8.5-.2 2.3-.4 3-1.5-1.6-.7-2.9-2.5-3.1-2.7-.1-.1-.1-.4-.3-.4m.5-20.8c1.9 1.1 2.4 1 2.5.9 1-.8 2.6-3.6 1.9-4.8-.6-1-1.5-1.5-2.7-1.5-1.2 0-2.2.5-3.1 1.2-.8.6-1.3 1.5-1.6 2.4 0 .1 0 .3.1.3.5.2.9.4 1.4.6.2.1.3.1.5-.2.6-.8 1.2-1.5 1.9-2.2.2-.2.7-.4 1.6.4-.3.8-2.2 2.6-2.5 2.9m-31.2 7.8c-1.5-.1-3.3.2-4.2.6-.3.1.2 3.3.2 3.9.1.7-.2 3 .4 3.1 1.8.2 3-1.7 6-1.5-.2-.4-.5-1.5-.7-1.9-.1-.4-4.4.6-5.1-.1-.2-.3.4-2 2.5-1.5.8.3 2 .5 2.4 0 .9-.9.5-2.6-1.5-2.6zm-.1 11.9c-.5-1.8 1.3-.6 3.5-1.5.1 0 1.1-.7 1.1-.9 0-.5-.9-1.8-1.1-2.2-.6.1-3.4 1.2-3.6 1.4-2.2.9-2.4 3.5-1.8 4.1 1.6 1.9 4.3 1.1 4.7.8.5-.3.9-.8 1.4-1.2.2-.2 1.5-.7 1.7-.8-.2-.4-.7-1-.9-1.4-1.2 1.1-4.1 2.5-4.6 2.5-.6 0-.4-.8-.4-.8m6-11.6c-1.6-2.2-2.5-4.3-2.1-6.5.4-2.1 2.7-2.1 3.8-1.6.3.1.7.3 1 .4.3.1-1-1.9-1-4.9.1-1-2.4 2.4-3.5 4-.7 1-1.1 2.9-1.3 4.8-.2 1.7.1 3.2-.3 4.2 1.2-.3 2.2-.8 3.4-.4m.7-5s1.5.5 2.1.8c.2.1 1.1-.6 1.3-1 .4-.4-1.5-2.5-4.2-1.7-.6.2-2.3 1.4-.2 5.4.3.4 2 1.5 2.2.6.1-.5.3-1.1.4-1.6 0-.1 0-.3-.1-.4-.3-.3-.7-.6-1-.9-.2-.2-.3-.4-.4-.7-.1 0-.1-.2-.1-.5m-2.9 25.6c1.6.3 3.4-1.1 3.8-1.5.3-.3 1.7-2.1.3-2.9-.2.4-.3.7-.6 1.1-.7 1.4-2.9 2.6-3.1 2.2-.9-2.1 2.4-3.4 2.9-3.8-.4-.7-.7-1.2-1.1-1.8-.1-.2-.2-.3-.4-.1-.1.1-2.5 1.9-3.4 4.3-.1 0 1.3 2 1.6 2.5m13-5c.1.6 1.3 4 4.1 3s2.8-5.4 2.5-6c-.5.1-2.6.9-2.4 2 .6.6-.7 2.8-1.2 2.6-.8-.3-.5-1.6-.5-2.4-.4 0-2.7.2-2.5.8m-2.2-24.2c-.3-1-1-2.5-1.6-3.4-1.1-2.1-3.4-1.4-3.8-.8-.4.5-.5 3 .7 5.1.3.5.5.9.7 1.3.3.6.8-1.1 1-1.3-.5-1.1-1-2.3-1.6-3.5.3-.3.6-.7 1.1-.6.1.2 1.3 3.7 2.1 3.8.5.1 1-.5 1.4-.6m9.2-3c.1-.1.9-1.6 1.3-1.6s1.4 1.5.2 2.4c-.2.2-.2.3.1.3.4.1.8.2 1.1.3.4.1.6 0 .8-.3.1-.1.6-1 .5-1.5-.1-.5 0-1.9-1.2-2.6-2-1.2-4.9 1.8-5.2 3.4-.1.5.2.8.7.7.3 0 1.7-.3 1.7-.4v-.7M31.1 48c.1.3 2.1 4.1 7.4 5-.8-.9-1.7-3.7-1.6-4-.4-.1-3-1.8-5.8-1zm20 12.6c3.5-1.4 2.5-4.4 2.5-5.3-.4.2-1.9 1.1-2.7 1.1 0 1.1.5.8.8 1.2.3.4.3.8.2 1.4-.1.8-2.2-.1-1.8-.9.3-.7-.1-1 0-1.6-.3-.1-2.2.3-2.3.8-.1 3.1 2.4 3.6 3.3 3.3M39.5 22.2c-.2 1-.1 1.9-.2 2.3.5 0 1.1-.1 1.5-.1 0-.4-.4-2.1-.8-3.6s-1.1-2.3-2.2-2.1c-.9.1-1.6 1-1.7 1.3-.1.8-.5 2.4.3 4.2.1.3.4.9.6.8.3-.1 1.4-.5 1.4-.6-.1-.3-1.3-3.1 0-3.9.3-.1 1.4.7 1.1 1.7m13.1 22.2c.2.4.5.7.7 1 .3.5.6 1 1 1.5.7.7 1.5 1.3 2.4 1.7 1 .3 1.5-.4 1.6-.9.7-2.7-1.2-4.8-1.5-5.4 0 0-.3-.7-.8-.1-.1.1-.9 1.1-1.3 1.3.3.2 2.8 1.2 2.7 2.6 0 .3-.4.8-.6.9-.7.5-1.5.2-1.9-.5v-.1c0-.6-.4-1.2-.7-1.7-.4-.7-.5-.8-1-.6-.3 0-.4.2-.6.3zM40.2 18.6c.7 1.4 1.3 2.2 1.5 4.3.2-.2 1.5-2.3 1.8-2.8.8-1.1 3.3-1.8 3.4-1.8-.8 0-2.7-.2-3.9-.1-1.1.1-1.9.3-2.8.4m20.7 12.1c.3.3 2.2 2.3 2.2 4.4.1 1-.1 1.9-1.3 2.4-.3.1-.6.3-.9.4.7.8 1.7 1.3 2.2 2.4.5-.5.6-1.8.8-2.6.1-.6.1-1.3.2-1.9.1-.7-.1-1.4-.3-2-.1-.3-.2-.6-.4-.9-.3-.6-.6-1.2-.8-1.9-.1-.4 0-.9-.5-1.1-.4.2-.6.4-1.2.8m-.4-10.9c-.6.3-.6.4-.2 1 .3.3.4.4.8.1 0 0 2.9-2 3.4-.6s-3 1.3-3.1 1.6c0 .1.6 1.3 1.5 1 .7-.4 4.3-1.8 3.1-3.3-1.5-2-4.7-.2-5.5.2M29.3 41.3c-1.4 0-2.2 1.6-.4 3.4 1.7 1.9.6 2.2 3.7 2.4-.1-.3-.9-1.7-1.1-2.2-.3-1-1.5-.1-2-.9-.3-.6 1-2.7-.2-2.7zm-4.4 14.6c.1 1 3 3.4 3.6 3.8 1-.3-.4-3.3 1.3-4.5.2-.3.3-.6.4-.9-1.3.5-3.3 1.6-5.3 1.6m24.8-10.5c0 .2.2 2-.1 2.5-.3.5-1.4-.8-1.3-2.7-.2.1-.5.1-.7.1-.3.1-.3.8-.4 1.1 0 .5.6 2.2 1.8 2.9.5.3 1.3.1 1.5-.2.4-.5.7-2.2 0-4.2-.6-.1-.8.5-.8.5M28.9 38c-1.7-.7-1.5-1.6-1.5-1.7.1-.9 1.5-.1 1.6-.5.1-.4-1.9-1.1-3.3-.6-1.1.4.1 3.5 3.5 4.2-.4-.3-.4-.8-.3-1.4zM16 21.9c.6.3 5.8 1.1 7.6 2.5.2-.6.3-1.2.5-1.8-.4-.2-3.6-.5-5.4-2.2-.2-.2-.3-2.2 1.6-2 1.9.2.8.7.9 1.1.1.4 2.9 1.4 3.3 2.5 0 .1 1.8-2.3 1.9-2.6.1-.3-5.1-2.9-6.2-3.2 0 0-4.8-1.9-5.7 1.7-.1.3.8 3.7 1.5 4m34.2-.3c.7-.5 1.4-1 2-1.5.7-.4 1.5-.6 2.2-.8-1.7-.5-3.5-1.1-5.4-.8 1.2.8 1 2 1.2 3.1M60 34.4c-.3-.2-.6.1-.6.4 0 .5.1 1 .1 1.5 0 0 .6.1 1.3-.1.6-.2 1-1 1-1.2.1-.6 0-1.2-.2-1.8-.2-.3-.2-.4-.6-1-.4-.6-2.2-1.6-2.8-.8-.2.1.2 2.1.4 2.8.6-2.1 1.8-1.1 2-.7 0 .4-.1 1.1-.6.9m-.8 9.6c.4.9.9 1.8.8 2.8.8-.5 2.1-2.1 2-2.7-.5.1-1.2.4-2.8-.1zM35.6 18.7c0-.2-1.8.1-2.6.7.3 0 1.7 1.2 2.2 1.7 0-.9.4-2.4.4-2.4zm28 9.2c0-1.2-3.3-5.7-4.4-5.1-.6.5-.8 1.9-1 2.4 1.8.3 3.1 1.3 4.3 2.6.1-.2 1 .5 1.1.1M27.8 40.7c-.8-.4-2.3-1.7-3-2.1 0 0 .4 1.7.5 1.9.5 1.5 1.1 1.8 1.5 1.3.3-.6.7-1 1-1.1zm41.6 6.7c-.2.1.4 1.1.6 1.6.2-.4 1.2-1.3 1-1.7-.5.3-1.4 0-1.6.1zM45.8 62h.8c.5-.1.6-.4.3-.8l-.6-1.2c-.2-.1-.3 1.3-.5 2zm14.8-33.9c.6-3.3-5-.8-4.9-.6.2.4.5.8.7 1.2.2-.1.6-.5 1.1-.8.5-.3 1.5-.4 1.7.2.3.5-1.1.9-1.1.9-.4.1-.7.2-1 .3 2.2 1.2 3.4-.5 3.5-1.2z"/><path class="st1" d="M45.4 16.4l-.6.3v.1h.5c0-.1 0-.2.1-.4z"/></svg>