<?xml version="1.0" encoding="utf-8"?>
<!-- Generator: Adobe Illustrator 26.4.1, SVG Export Plug-In . SVG Version: 6.00 Build 0)  -->
<svg version="1.1" id="Layer_1" xmlns="http://www.w3.org/2000/svg" xmlns:xlink="http://www.w3.org/1999/xlink" x="0px" y="0px"
	 viewBox="0 0 419 139" style="enable-background:new 0 0 419 139;" xml:space="preserve">
<style type="text/css">
	.st0{fill:#FFFFFF;}
</style>
<g>
	<path class="st0" d="M142.6,67.4h1.1l3.3-19.1h-1.9v-2.8h9.9v2.8h-1.9l3.3,19.1h1.1v2.8h-6.1v-2.8h1.6l-0.7-4.6h-4.6l-0.7,4.6h1.6
		v2.8h-5.9V67.4z M148.1,60.1h3.7L150,48.1h-0.1L148.1,60.1z"/>
	<path class="st0" d="M159,67.4V48.3h-1.5v-2.8h6.5v2.8h-1.5V66l1.2,1.2h2.1l1.2-1.2V48.3h-1.5v-2.8h6.5v2.8h-1.5v19.1l-2.8,2.8h-6
		L159,67.4z"/>
	<path class="st0" d="M173.6,67.4v-4.1h3.5v2.8l1.2,1.2h2.2l1.2-1.2v-5.8l-0.9-0.9h-4.7l-2.4-2.4v-8.5l2.8-2.8h5.9l2.8,2.8v4.1h-3.5
		v-2.8l-1.2-1.2h-2.1l-1.2,1.2v5.6l0.9,0.9h4.8l2.4,2.4v8.8l-2.8,2.8h-6.1L173.6,67.4z"/>
	<path class="st0" d="M189.2,67.4h2.4V48.3h-2.3V53h-2.8v-7.5h13.6V53h-2.8v-4.7h-2.3v19.1h2.4v2.8h-8.4V67.4z"/>
	<path class="st0" d="M201.4,67.4h1.8V48.3h-1.8v-2.8h10.5l2.8,2.8v7.3l-2.2,2.2l2.2,2.3v7.1l0.2,0.2h1.1v2.8H213l-1.8-1.8v-7.6
		l-1.5-1.5h-3v8.1h1.6v2.8h-6.9V67.4z M209.7,56.6l1.5-1.5v-5.5l-1.2-1.2h-3.2v8.3H209.7z"/>
	<path class="st0" d="M217,67.4h1.1l3.3-19.1h-1.9v-2.8h9.9v2.8h-1.9l3.3,19.1h1.1v2.8h-6.1v-2.8h1.6l-0.7-4.6h-4.6l-0.7,4.6h1.6
		v2.8H217V67.4z M222.5,60.1h3.7l-1.8-11.9h-0.1L222.5,60.1z"/>
	<path class="st0" d="M232.9,67.4h1.8V48.3h-1.8v-2.8h7.7v2.8h-2.4v19.1h3.8v-5.4h2.9v8.1h-12V67.4z"/>
	<path class="st0" d="M245.9,67.4h2V48.3h-2v-2.8h7.5v2.8h-2v19.1h2v2.8h-7.5V67.4z"/>
	<path class="st0" d="M254.4,67.4h1.1l3.3-19.1h-1.9v-2.8h9.9v2.8h-1.9l3.3,19.1h1.1v2.8h-6.1v-2.8h1.6l-0.7-4.6h-4.6l-0.7,4.6h1.6
		v2.8h-5.9V67.4z M259.9,60.1h3.7l-1.8-11.9h-0.1L259.9,60.1z"/>
	<path class="st0" d="M270.2,67.4h1.8V48.3h-1.8v-2.8h4.6l5.9,16V48.3h-1.8v-2.8h6.6v2.8h-1.7v21.9h-2.9L275.1,54v13.5h1.8v2.8h-6.6
		V67.4z"/>
	<path class="st0" d="M292.6,67.4h1.8V48.3h-1.8v-2.8h12v6.6h-3v-3.8h-3.7v8.3h5.2v3.1h-5.2v7.8h2.4v2.8h-7.7V67.4z"/>
	<path class="st0" d="M306.2,67.4v-19l2.8-2.8h6.3l2.8,2.8v19l-2.8,2.8H309L306.2,67.4z M313.4,67.3l1.2-1.2V49.7l-1.2-1.2H311
		l-1.2,1.2v16.4l1.2,1.2H313.4z"/>
	<path class="st0" d="M320.3,67.4v-19l2.8-2.8h6.3l2.8,2.8v19l-2.8,2.8h-6.3L320.3,67.4z M327.5,67.3l1.2-1.2V49.7l-1.2-1.2H325
		l-1.2,1.2v16.4l1.2,1.2H327.5z"/>
	<path class="st0" d="M333.7,67.4h1.8V48.3h-1.8v-2.8h10.6l2.8,2.8v19l-2.8,2.8h-10.6V67.4z M342.3,67.3l1.2-1.2V49.7l-1.2-1.2H339
		v18.8H342.3z"/>
	<path class="st0" d="M143.4,96.7v-4.1h3.5v2.8l1.2,1.2h2.2l1.2-1.2v-5.8l-0.9-0.9h-4.7l-2.4-2.4v-8.5l2.8-2.8h5.9l2.8,2.8v4.1h-3.5
		V79l-1.2-1.2h-2.1L147,79v5.6l0.9,0.9h4.8l2.4,2.4v8.8l-2.8,2.8h-6.1L143.4,96.7z"/>
	<path class="st0" d="M157.7,96.7v-19l2.8-2.8h6.3l2.8,2.8v19l-2.8,2.8h-6.3L157.7,96.7z M164.9,96.6l1.2-1.2V79l-1.2-1.2h-2.5
		l-1.2,1.2v16.4l1.2,1.2H164.9z"/>
	<path class="st0" d="M172.6,77.6h-1.3v-2.8h6.5v2.8h-1.7l2.6,18.9l2.7-18.9h-1.7v-2.8h6.2v2.8h-1.2l-3.5,21.9h-5.1L172.6,77.6z"/>
	<path class="st0" d="M186.7,96.8h1.8V77.6h-1.8v-2.8h12.1v6.2h-2.9v-3.5H192v7.9h5.4v3.1H192v8.2h3.9v-3.4h2.9v6.2h-12.2V96.8z"/>
	<path class="st0" d="M200.2,96.8h1.8V77.6h-1.8v-2.8h10.5l2.8,2.8V85l-2.2,2.2l2.2,2.3v7.1l0.2,0.2h1.1v2.8h-3.1l-1.8-1.8v-7.6
		l-1.5-1.5h-3v8.1h1.6v2.8h-6.9V96.8z M208.5,85.9l1.5-1.5v-5.5l-1.2-1.2h-3.3v8.3H208.5z"/>
	<path class="st0" d="M215.9,96.8h1.8V77.6h-1.8v-2.8H228v6.2h-2.9v-3.5h-3.9v7.9h5.4v3.1h-5.4v8.2h3.9v-3.4h2.9v6.2h-12.2V96.8z"/>
	<path class="st0" d="M229.5,96.8h2V77.6h-2v-2.8h7.5v2.8h-2v19.1h2v2.8h-7.5V96.8z"/>
	<path class="st0" d="M238.7,96.7v-19l2.8-2.8h6.1l2.8,2.8v4.1H247V79l-1.2-1.2h-2.3l-1.2,1.2v16.4l1.2,1.2h2.3l1.2-1.2v-5.9h-2.7
		v-3h6.3v10.1l-2.8,2.8h-6.2L238.7,96.7z"/>
	<path class="st0" d="M252.2,96.8h1.8V77.6h-1.8v-2.8h4.6l5.9,16V77.6h-1.8v-2.8h6.6v2.8h-1.7v21.9h-2.9l-5.9-16.2v13.5h1.8v2.8
		h-6.6V96.8z"/>
	<path class="st0" d="M271.2,96.8h2.4V77.6h-2.2v4.7h-2.8v-7.5h13.6v7.5h-2.8v-4.7h-2.3v19.1h2.4v2.8h-8.4V96.8z"/>
	<path class="st0" d="M286.6,96.8h2.4v-5.5l-4.4-13.7h-1.2v-2.8h6.7v2.8h-1.9l2.8,9.8l2.8-9.8h-1.9v-2.8h6.3v2.8H297l-4.4,13.7v5.5
		h2.4v2.8h-8.4V96.8z"/>
	<path class="st0" d="M303.6,96.8h1.1l3.3-19.1h-1.9v-2.8h9.9v2.8h-1.9l3.3,19.1h1.1v2.8h-6.1v-2.8h1.6l-0.7-4.6h-4.6l-0.7,4.6h1.6
		v2.8h-5.9V96.8z M309.1,89.4h3.7L311,77.5h-0.1L309.1,89.4z"/>
	<path class="st0" d="M319.5,96.8h1.8V77.6h-1.8v-2.8h7.7v2.8h-2.4v19.1h3.8v-5.4h2.9v8.1h-12V96.8z"/>
	<path class="st0" d="M332.5,96.8h1.8V77.6h-1.8v-2.8h7.7v2.8h-2.4v19.1h3.8v-5.4h2.9v8.1h-12V96.8z"/>
	<path class="st0" d="M345.5,96.8h2V77.6h-2v-2.8h7.5v2.8h-2v19.1h2v2.8h-7.5V96.8z"/>
	<path class="st0" d="M354,96.8h1.1l3.3-19.1h-1.9v-2.8h9.9v2.8h-1.9l3.3,19.1h1.1v2.8h-6.1v-2.8h1.6l-0.7-4.6H359l-0.7,4.6h1.6v2.8
		H354V96.8z M359.5,89.4h3.7l-1.8-11.9h-0.1L359.5,89.4z"/>
	<path class="st0" d="M369.9,96.8h1.8V77.6h-1.8v-2.8h4.6l5.9,16V77.6h-1.8v-2.8h6.6v2.8h-1.7v21.9h-2.9l-5.9-16.2v13.5h1.8v2.8
		h-6.6V96.8z"/>
	<path class="st0" d="M386.6,96.7v-19l2.8-2.8h5.9l2.8,2.8v4.7h-3.5V79l-1.2-1.2h-2l-1.2,1.2v16.4l1.2,1.2h2l1.2-1.2v-3.5h3.5v4.8
		l-2.8,2.8h-5.9L386.6,96.7z"/>
	<path class="st0" d="M399.7,96.8h1.8V77.6h-1.8v-2.8h12.1v6.2h-2.9v-3.5H405v7.9h5.4v3.1H405v8.2h3.9v-3.4h2.9v6.2h-12.2V96.8z"/>
</g>
<path class="st0" d="M70.4,44.2v28.1h-2.9V44.2c0,0,0.1-1.7,1.4-1.7C70.3,42.6,70.4,44.2,70.4,44.2z M64.1,33.7
	c3.1-3.1,2.8-10.5,2.8-10.5l-1.1-8.8c-29.2,1.7-52.4,25.9-52.4,55.5c0,0.8,0,1.6,0.1,2.4h47.8c-0.3-5.5-1.5-23.6-1.5-28.5
	C59.8,38,61,36.8,64.1,33.7z M63.9,42.9c-1.1,0-1.4,1.2-1.4,1.2l0.8,28.2h2.5L65.2,44C65.2,44,65,42.9,63.9,42.9z M74.1,42.9
	c-1.1,0-1.3,1.1-1.3,1.1l-0.5,28.3h2.5l0.8-28.2C75.6,44.1,75.2,42.9,74.1,42.9z M124.6,69.9c0-29.6-23.1-53.8-52.2-55.5l-1.3,8.7
	c0,0-0.3,7.4,2.8,10.5c3.1,3.1,4.3,4.3,4.3,10.1c0,4.9-1.1,23-1.5,28.5h47.8C124.6,71.5,124.6,70.7,124.6,69.9z"/>
<path class="st0" d="M127,45.7c-3.2-7.5-7.7-14.2-13.5-20c-5.8-5.8-12.5-10.3-20-13.5c-7.8-3.3-16-5-24.5-5s-16.8,1.7-24.5,5
	c-7.5,3.2-14.2,7.7-20,13.5c-5.8,5.8-10.3,12.5-13.5,20c-3.3,7.8-5,16-5,24.5S7.7,87,11,94.7c3.2,7.5,7.7,14.2,13.5,20
	s12.5,10.3,20,13.5c7.8,3.3,16,5,24.5,5s16.8-1.7,24.5-5c7.5-3.2,14.2-7.7,20-13.5c5.8-5.8,10.3-12.5,13.5-20c3.3-7.8,5-16,5-24.5
	S130.3,53.4,127,45.7z M69,129.4c-32.7,0-59.2-26.5-59.2-59.2S36.3,11,69,11s59.2,26.5,59.2,59.2S101.7,129.4,69,129.4z"/>
<g>
	<path class="st0" d="M40.7,106l-1.7,1.2l-1.4,5.2v1.1v0l0,0l-0.7,1.6l-0.1,0.3l-0.2-0.2l-0.2-0.2l-0.1-0.1l0-0.1l0.5-1.4l0-0.3
		l-1.6,1.4c0.9,0.7,1.9,1.4,2.9,2.1l3.2-5.8L40.7,106z"/>
	<path class="st0" d="M37.1,108l-5,2.8l-0.6,0.8c0.9,0.8,1.8,1.6,2.7,2.3l2-1.9L37.1,108z"/>
	<path class="st0" d="M40.3,103.5l2.4-9.9L34,99.9l-2.4,5.5l0,0.1l-0.1,0l-4.4,1.6c1,1.1,2,2.1,3,3.2l0.3,0L40.3,103.5z"/>
	<path class="st0" d="M54.9,124.2c0.5,0.1,1,0.3,1.5,0.4l-0.4-1.7L54.9,124.2z"/>
	<path class="st0" d="M56,113.5l-2.6,0.6l-1.7,6.7l0,0l0,0l-1.2,2c1,0.4,2,0.7,3.1,1l1.8-2.5L56,113.5z"/>
	<path class="st0" d="M52.2,112.9l0-0.1l0.1,0l3.7-1.1l8.7-8.5l-1.9-9.3l-2.7,2.9l1.9,2l0.1,0.1l0,0.1l-0.8,2.7l0,0.2h-0.2h-0.3
		h-0.3l0.1-0.3l0.5-2.4L60,98.2l-0.8,6l0,0.1l-0.1,0l-0.3,0.1l-0.3,0.1l0-0.3l0.2-7.7l0-0.1l0-0.1l3.9-5l0.8-11.6l-2.5,4.8l-0.1,4.6
		l0,0l0,0c-0.5,1-1.4,2.7-1.5,3c0,0.1-0.1,0.2-0.2,0.2c-0.1,0-0.2,0-0.4-0.3L58.5,92l0.1-0.1l1.2-2.7l-0.2-2.8l-3.8,6l-1.1,13.3v2.9
		v0l0,0l-0.8,2.3l-0.1,0.2l-0.2-0.1l-0.6-0.3l-0.2-0.1l0.1-0.2l0.7-2l-0.3-2l-4.4,2.4l-0.3,9.3l0,0l0,0l-1.4,3.1
		c0.8,0.3,1.6,0.7,2.5,1l0.8-1.7L52.2,112.9z"/>
	<path class="st0" d="M47,116l-3.2,2l-0.5,1.8c0.8,0.4,1.7,0.9,2.6,1.3l0.9-2.3L47,116z"/>
	<path class="st0" d="M42.3,117.1L42.3,117.1l4.5-2.9l0.3-6.2l0-0.1l0.1-0.1l5.3-3.2l0.4-6.7l-4,1.9l-1.5,4.8l-0.1,0.2l-0.2,0
		l-0.6-0.1l-0.2,0l0-0.2l1.2-5l0-0.1l0.1,0l5.3-3.3l-0.3-2.2l-7.4-0.3l-2.9,10.9l0.9,6.1l0,0.1l0,0.1l-4.1,6.8
		c0.8,0.5,1.7,1,2.6,1.5L42.3,117.1L42.3,117.1z"/>
	<path class="st0" d="M27.7,94.5l-2.5-1.7l-3.3,1.4l-0.2,0.1l-0.1-0.2l-0.2-0.4l-0.1-0.2l0.2-0.1l3.6-1.9l0.1-0.1l0.1,0l4.5,2.2
		l6.8,1.9l5.9-4.1l0.1,0l0.1,0l9.1-0.4l2.2-2.8l-3.2-0.8l-3,1.6L47.4,89l-0.1-0.1l-0.4-0.3l-0.2-0.2l0.2-0.2l2.1-1.4l-0.5-0.3
		L47.4,87L47.2,87l-0.1-0.1L47,86.6l-0.1-0.2l0.2-0.1l1.3-0.5l0.1,0l0.1,0l1.7,0.3l4.9,0.4l1.8-2.3l-9.2-0.1l-12,8.4l-0.1,0.1
		l-0.1-0.1l-0.4-0.4L34.9,92l0.2-0.2l4.9-3.7L34.4,88l-3.4,2.4l-0.1,0.1l-0.1-0.1l-0.4-0.3L30.3,90l0.2-0.2l3.2-3l0.1-0.1l0.1,0
		l7.7-0.1l3.7-2.9l-3.1-0.6l-2.6,1.3l-0.2,0.1l-0.1-0.2l-0.3-0.4l-0.1-0.2l0.2-0.1l1.6-1l-1.8-0.7l-0.2-0.1l0.1-0.2l0.1-0.3l0.1-0.2
		l0.2,0l2.8,0.6l5.2,0.6h9.8l4.3-6.9H13.4c0.7,7.5,2.9,14.6,6.3,21l2,0.8L27.7,94.5z"/>
	<path class="st0" d="M90.8,82.6l4.8-0.9l0.1,0l0.1,0l2.6,1.6l0.2,0.1l-0.1,0.2L98.2,84l-0.1,0.2l-0.2-0.1l-2.2-1.2l-3.1,0.8l4,3.3
		l7.2-0.6l0.1,0l0.1,0.1l2.3,4l0.1,0.2l-0.2,0.1l-0.5,0.2l-0.2,0.1l-0.1-0.2l-2.1-3.2l-5.3,0.6l4.3,3.4l0.1,0.1l-0.1,0.2l-0.3,0.5
		l-0.1,0.2l-0.2-0.1l-11.4-8.5l-10-0.3l1.9,2.8l4.7-0.3l0.1,0l0,0l3.3,1.5l0.2,0.1l-0.1,0.2l-0.2,0.5l-0.1,0.2l-0.2-0.1l-2.1-0.9
		l0.1,1.5l0,0.2l-0.2,0l-0.4,0l-0.2,0l0-0.2l-0.3-1.7l-3.6,0.6l2,2.9l8.9,0.3l0.1,0l0,0l6.6,4.4l6.1-2.1l0.1,0l0.1,0l5.5,2.6
		l0.2,0.1l-0.1,0.2l-0.2,0.5l-0.1,0.2l-0.2-0.1l-2.3-0.9l-0.1,1.7l0.4,0.7l0.1,0.1l-0.1,0.1l-0.2,0.2l-0.2,0.2l-0.2-0.2l-0.7-0.8
		l-0.1-0.1v-0.1v-2.3l-1.9-0.8l-4.7,2l3.2,2.6l9.1,1.9c5.1-7.5,8.4-16.4,9.4-26H77.2l5.6,6.4L90.8,82.6z"/>
	<path class="st0" d="M34.4,97l-4.9-1.3l-7.8,2.9l0,0L21.2,99c0.6,0.9,1.1,1.8,1.7,2.7l8.3-2.4L34.4,97z"/>
	<path class="st0" d="M25.7,105.3l0.2-0.1l0.7-0.4l0.1,0l0.1,0l1.4,0.5l2.3-0.9l1-3.3l-7.6,2C24.6,104,25,104.6,25.7,105.3
		L25.7,105.3z"/>
	<path class="st0" d="M26.7,105.7l-0.5,0.2l-0.1,0c0.1,0.1,0.1,0.1,0.2,0.2l0.7-0.3L26.7,105.7z"/>
	<path class="st0" d="M81.6,124.6c0.4-0.1,0.9-0.2,1.3-0.3L82,123L81.6,124.6z"/>
	<path class="st0" d="M101,108.3l0.5,3.3l2.5,2.1c0.8-0.6,1.5-1.2,2.2-1.9l-0.5-0.7L101,108.3z"/>
	<path class="st0" d="M100.5,112.5L100.5,112.5l-1.5-5.2l-2-1.4l-0.5,5l3.5,5.7c1-0.7,2-1.4,2.9-2.1L100.5,112.5L100.5,112.5z"/>
	<path class="st0" d="M91.3,116.6l-0.2,2l1,2.4c0.9-0.4,1.8-0.8,2.6-1.3l-0.6-1.9L91.3,116.6z"/>
	<path class="st0" d="M94.8,111.3L94.8,111.3l0.5-7.3l-3.2-10.3l-6.9,0.1v2.1l4.6,2.6l0.1,0l0,0.1l1.7,6.7l0,0.2l-0.2,0.1l-0.5,0.2
		l-0.2,0.1l-0.1-0.2l-1.6-6l-3.8-1.2l-0.1,6.1l5.5,3l0.1,0.1l0,0.1l0.3,6.2l4,2.9l0.1,0l0,0.1l0.6,2.3c1-0.5,1.9-1.1,2.8-1.7
		L94.8,111.3L94.8,111.3z"/>
	<path class="st0" d="M107.4,104.3l4.4,1.7c0.8-1,1.6-2,2.4-3l-7.9-1.6L107.4,104.3z"/>
	<path class="st0" d="M106.6,105.1L106.6,105.1l-2.2-4.7L95,94.2l2.1,9.3l9.9,6.5l1.2,0c1-1,2-2.1,3-3.2L106.6,105.1L106.6,105.1z"
		/>
	<path class="st0" d="M61.8,120.5L61.8,120.5l3.5-9.5l-0.2-5.4l-2.8,2.7l-0.3,4.4l0,0l0,0l-1.7,2.9l-0.2,0.3l-0.2-0.2l-0.3-0.4
		l-0.1-0.1l0.1-0.1l1.2-2.5l0-2.8l-3.1,2.7l-0.9,8.3l0.9,4.1c1.5,0.3,2.9,0.5,4.4,0.7L61.8,120.5L61.8,120.5z"/>
	<path class="st0" d="M89.7,119.1L89.7,119.1l-0.7-9.6l-5.7-2.9l-0.1-0.1l0-0.1l-1-14.4L74,79.5l0.3,2.8l0.9,8.9l4,4.8l0.1,0.1
		l0,0.1l-0.4,3.9l1.6,1.9l0.1,0.1l0,0.1l-0.8,3.1l-0.1,0.2l-0.2-0.1l-0.4-0.1l-0.2-0.1l0-0.2l0.5-2.7l-0.7-0.7l-0.2,2.2l0,0.2
		l-0.2,0l-0.6-0.1l-0.2,0l0-0.2l0.1-6.8l-2.8-2.7l-2.8,7.4l0.9,1.8l8.3,7.9l4.5,3.2l0.1,0l0,0.1l1.5,6.4l1,1.5
		c0.9-0.3,1.7-0.7,2.5-1L89.7,119.1L89.7,119.1z"/>
	<path class="st0" d="M72.1,113.4l-2.6,6.4l2.3,4.5l0.1,0.1l-0.1,0.1l-0.4,0.4l-0.2,0.2l-0.1-0.3l-2.5-4.9l0-0.1l0-0.1l3-8.3
		l-0.9-4.9l-0.9,1.2v2.3v0.2l-0.2,0l-0.4,0.1l-0.3,0.1l0-0.3l-0.2-2.6l0-0.1l0-0.1l1.3-2.4l-1.4-3.6l0-0.1l0-0.1l2.6-8.4l-0.4-7.5
		l-2.1-9l-0.7,5.9l0,0l0,0l-1.6,6.2l2.4,4.7l0,0.1l0,0.1l-0.8,4.8l0,0.3l-0.3-0.1l-0.4-0.2l-0.1-0.1l0-0.1l0.5-4L66,90.3l-0.8,2.7
		l1.9,9.4l0,0l0,0l-0.5,9l1.7,5.9l0,0.1l0,0.1l-1.2,3.6l0.9,1.1l0,0.1v0.1v1.8v0.2h-0.2h-0.4h-0.2V124v-1.5l-0.4-0.4l-0.4,1.4
		l-0.1,0.2l-0.2-0.1l-0.3-0.2l-0.2-0.1l0-0.2l1.5-5.8l-1.2-3.7l-2.8,6.8l0.4,5.2c1.8,0.2,3.7,0.3,5.6,0.3c1.4,0,2.7,0,4.1-0.1
		l2.3-5.1L72.1,113.4z"/>
	<path class="st0" d="M80,112.5l-3.2-2.8l-0.3,2.2l1.5,4.4l0,0.1l-0.1,0.1l-0.4,0.4l-0.2,0.2l-0.1-0.3l-1.6-4.7l0,0l0,0l-0.3-3.7
		l-2.9-2.3l0.5,5.1l3.7,9.3l0,0.1l0,0.1l-2.5,5c2.1-0.2,4.1-0.5,6.1-0.9l0.8-3.7L80,112.5z"/>
	<path class="st0" d="M86.2,121.4L86.2,121.4l-1.4-5.9l-3.2-2.3l0.7,7.9l2.1,2.8c1-0.3,1.9-0.6,2.9-0.9L86.2,121.4L86.2,121.4z"/>
</g>
</svg>
