<svg xmlns="http://www.w3.org/2000/svg" id="Layer_2" data-name="Layer 2" viewBox="0 0 152.8 54.4"><defs><style>      .cls-1 {        fill: #ccbb9f;      }      .cls-1, .cls-2, .cls-3, .cls-4, .cls-5, .cls-6, .cls-7, .cls-8, .cls-9, .cls-10, .cls-11 {        stroke-width: 0px;      }      .cls-1, .cls-2, .cls-3, .cls-4, .cls-5, .cls-6, .cls-7, .cls-9, .cls-11 {        fill-rule: evenodd;      }      .cls-2 {        fill: #2192b9;      }      .cls-3 {        fill: #603917;      }      .cls-4, .cls-10 {        fill: #3a2416;      }      .cls-5 {        fill: #722a14;      }      .cls-6 {        fill: #faaf40;      }      .cls-7 {        fill: #7fd4ff;      }      .cls-8 {        fill: #a87c4f;      }      .cls-9 {        fill: #e95726;      }      .cls-11 {        fill: #895d3b;      }    </style></defs><g id="Layer_2-2" data-name="Layer 2"><g id="Final_Design" data-name="Final Design"><g id="Smooth_Mountain" data-name="Smooth Mountain"><path class="cls-11" d="M.8,32.6c0-.7,0-1.5,0-2.2,0,0,0,0,0,0,0-.1.1-.1.2-.2,0,0,0,0,0,0,.1-.1.3-.2.6-.2,0,0,0,0,0,0,.3,0,.6-.2.8-.2,0,0,0,0,0,0,.3,0,.4-.2.5-.4.3-.4.3-.6.2-1.1,0-.2-.2-.5-.3-.8,0,0,0,0,0,0-.2-.6,0-1.3.2-1.7.1-.2.3-.3.5-.3,0,0,0,0,0,0,.4,0,.7.3.8.7,0,.3,0,.7-.2,1.2,0,0,0,0,0,0-.1.3-.3.6-.4,1,0,.3,0,.6,0,.9,0,.2.2.3.4.4,0,0,0,0,0,0,.2.1.5.2.7.3.1,0,.2.1.4.2,0,0,0,0,0,0,0,0,0,0,0,.2,0,0,0,0,0,0,0,.6-.2,2-.4,2.6,0,0,0,0,0,0l-1.7,6.9c-1.2-2.3-2.1-4.8-2.6-7.4h0Z"></path><path class="cls-1" d="M7,45.1c0-2.9,0-5.7,0-8.6h0c0-1.4-.3-2.9,0-3.8.1-.4.5-.6.8-.9.5-.3.9-.6,1.1-1,.6-1.2.5-2.3.3-3.3-.1-.6-.3-1-.2-1.4,0-.4.2-.7.5-1s.6-.5.9-.4c0,0,0,0,0,0,1.1,0,1.5.9,1.5,1.1.2.9-.1,1.6-.5,2.3,0,0,0,0,0,0-.4.9-.7,1.7-.3,2.9,0,0,0,0,0,0,.3.7.8,1,1.3,1.3,0,0,.2,0,.2.1,0,0,0,0,.1.1,0,0,0,0,0,0,0,0,0,.2,0,.4,0,0,0,0,0,0-.2,2.5-1.4,8.9-2.7,12.5h0c-.2.7-.5,1.4-.7,2.1-.9-.8-1.7-1.6-2.4-2.5Z"></path><path class="cls-4" d="M13.9,50.8c.7-5.8,0-11.7.2-17.5,0,0,0,0,0,0,0-1.1.1-2.3.8-3.2.3-.4,1.5-2.3,1.8-2.8.3-.5.2-1.2,0-1.9,0,0,0,0,0,0-.2-.5-.4-1.1-.6-1.5,0,0,0,0,0,0,0-.2-.1-.4-.1-.6.1-1.3.6-2.2,1.8-2.4.3,0,.6.1.8.3,0,0,0,0,0,0,.4.4.7,1,.7,1.2,0,0,0,0,0,0,.1.9-.2,1.4-.4,2-.3.7-.5,1.4,0,2.4.3.8.9,1.3,1.5,1.9h0c.5.5,1,1,1.2,1.7h0c.4,1.1.2,2.2,0,3.4,0,0,0,0,0,0-1.3,6.2-3,12.3-5.3,18.2-.8-.4-1.6-.8-2.4-1.2Z"></path><path class="cls-3" d="M26.4,54.4c-.3-2.1-.6-4.2-1.1-6.2-1.2-5.3-1.8-15.4-1.8-15.9,0-.9.5-1.6.9-2.3.6-.8,1.3-1.6,1.7-2.5.9-1.8.7-3.6.4-5.2-.2-.9-.3-1.7-.2-2.3.1-.5.3-.9.7-1.2.3-.2.6-.3,1.1-.3,1.3,0,1.7,1,1.9,1.8h0c.1.6-.1,1.3-.3,2.2-.4,1.5-.8,3.3,0,5.1.4,1,1,1.7,1.3,2.5,0,0,0,0,0,0,.8,1.8.6,3.9.4,5.9-.7,6.1-1.4,12.3-2.1,18.5-.6,0-1.3,0-1.9,0s0,0,0,0c-.3,0-.6,0-.9,0Z"></path><path class="cls-5" d="M39,51.7c-1.7-5.2-4.2-13-5.1-18-.2-1.1-.4-2.3,0-3.4.3-.7.7-1.2,1.2-1.7.5-.6,1.1-1.2,1.4-1.9,0,0,0,0,0,0,.5-1.1.5-2,.4-2.8,0-.5-.1-.9-.1-1.3h0c0-.5.3-1.1.7-1.4,0,0,0,0,0,0,.2-.2.5-.4.8-.4,0,0,0,0,0,0,.9,0,1.7.7,1.6,1.6,0,0,0,0,0,0,0,1-.5,1.6-.9,2.3-.3.5-.5,1-.4,1.6,0,0,0,0,0,0,0,.9.3,1.5.8,2.5,0,0,0,0,0,0,.3.5.7.8,1,1.3.6.9.7,2.1.7,3.2,0,5.7-.7,11.5-.1,17.1-.7.4-1.4.8-2.2,1.2Z"></path><path class="cls-11" d="M45.7,47.2c-.8-3.4-1.8-7.3-2.3-10.2-.3-1.7-.5-3-.3-3.6h0c0-.2.4-.7.7-1.2.3-.4.5-.8.5-1,.2-.8.5-1.4-.2-2.9,0,0,0,0,0,0-.4-.8-.6-1.8-.5-2.6.1-.8.5-1.4,1.4-1.5,0,0,0,0,0,0,.6-.1,1,.2,1.2.7,0,0,0,0,0,0,.4,1,.4,2.5,0,3.5h0c-.2.5-.3.8-.4,1.1,0,0,0,0,0,0,0,.3,0,.4,0,.7,0,0,0,0,0,0,0,.3.2.6.6,1.2,0,0,0,0,0,0,.3.3,1.1.8,1.4,1.2.6.8.6,2,.6,3.1,0,2.9-.1,5.8-.2,8.7-.8,1-1.7,1.9-2.6,2.8Z"></path><path class="cls-3" d="M51.3,40c-.7-2.7-1.4-7-1.5-7.4,0-.4.1-.8.4-1.1,0,0,0,0,0,0,.3-.5.6-.9.8-1.4.4-1,.2-1.9,0-2.8-.1-.4-.2-.8-.2-1.1,0-.2,0-.4.3-.6,0,0,0,0,0,0,.1,0,.3-.1.5-.2h0c.6,0,.8.4.9.8,0,.3,0,.6,0,1.1-.1.8-.3,1.8.2,2.7.2.5.6.8.8,1.2.4.6.4,1.4.5,2.2-.6,2.3-1.4,4.6-2.5,6.6Z"></path><path class="cls-9" d="M45,47.9c-.9.8-1.9,1.5-2.9,2.2,0-.8-.1-1.6-.1-2.5.9-.2,1.8-.4,2.8-.8,0,.4.2.7.3,1ZM38.3,52.1c-2.5,1.1-5.2,1.9-8.1,2.1.3-3,.7-6,1-9,1.8,1,3.7,1.9,5.6,2.3.5,1.6,1,3.1,1.5,4.5ZM25.6,54.3c-3-.2-5.8-.9-8.5-2,1.2-3.2,2.3-6.4,3.2-9.6,1-.6,2.1-1.1,3.2-1.1.3,2.4.6,4.9,1,6.7h0c.5,2,.8,4,1.1,6ZM13.1,50.3c-1.1-.7-2.1-1.4-3-2.2.1-.5.3-.9.4-1.4.6,0,1.2-.2,1.7-.3,0,0,0,0,0,0,.4,0,.8-.2,1.2-.3,0,1.4-.1,2.8-.3,4.1Z"></path><g><path class="cls-6" d="M.4,29.7c0-.8,0-1.6,0-2.4H.3c0-.1,1.7-.1,1.7-.1,0,.2,0,.4.1.5.1.4.2.6.3.8,0,0,0,0,0,0,0,0,0,0,0,.1s0,0,0,.1c0,0,0,0-.2.1-.3,0-.6.2-.8.3-.3,0-.6.2-.8.3,0,0,0,0,0,0,0,0-.1,0-.2.2Z"></path><path class="cls-6" d="M42.2,35c0,.6.2,1.4.3,2.2.2,1,.4,2.2.7,3.4-.4.1-.8.3-1.2.4,0-2,.2-4,.2-5.9ZM40,27.9c.8,0,1.8-.3,2.9-.6,0,.6.3,1.1.5,1.6.6,1.1.3,1.6.2,2.3,0,.1-.2.4-.4.7,0,0,0,0,0,0l-.4.6s0,0,0,0c-.2.3-.3.6-.4.7,0,0,0,0,0,0,0,0,0,.2,0,.2v-.6c0-.2,0-.3,0-.5s0,0,0,0c0-.9-.3-1.8-.8-2.5-.3-.4-.7-.8-1-1.2-.1-.3-.3-.5-.4-.7Z"></path><path class="cls-6" d="M46.5,29.8h0s0,0,0,0c0,0,0,0,0,0ZM46.6,30.3s0,0,0,0c0,0,0,0,.1,0,0,0,0,0,0,0,0,0,0,0-.1,0ZM48.6,32.5s0,0,0,0c0,0,0,0,0,0,0,0,0,0,0,0ZM49.2,33s0,0,0,0c0,0,0,0,0,0,0,0,0,0,0,0ZM49.2,33c0,0-.2,0-.2-.1,0,0,.2.1.2.1ZM54.7,27.5l-.2-.2h0c0,0,0,.7,0,.7,0,0,0,0,0,0,0,1-.1,2-.2,3,0,0,0-.2-.1-.3,0,0,0,0,0,0-.2-.4-.6-.7-.8-1.2,0,0,0,0,0,0-.1-.2-.2-.5-.2-.7,0,0,0-.6,0-.6,0-.3,0-.6,0-.9,0-.4.1-.7.1-1s0-.3,0-.4c0,0,0,0,0,0-.2-.7-.7-1.4-1.6-1.4h-.2s0,0,0,0c-.4,0-.7.2-.9.3,0,0,0,0,0,0-.3.3-.5.6-.5,1.1,0,0,0,0,0,0v.2c0,.3.1.8.2,1.2.1.4.2.9.2,1.4s0,.2,0,.3c0,0-.2.7-.2.7-.2.4-.5.8-.7,1.2-.3.5-.5.9-.5,1.5v.2l.3.3-.3-.3h0c0,0,0,0,0,.1,0,0,0,0,0,0,0-.2-.2-.4-.3-.6,0,0,0,0,0,0-.3-.3-.9-.8-1.3-1.1,0-.1-.2-.3-.3-.5,0,0,0,0,0,0-.1-.2-.2-.3-.3-.5h0s0,0,0,0c0-.1,0-.2,0-.3,0,0,0,0,0,0,0-.3.2-.6.3-1,.2-.8.3-2,.2-3,2.3-.9,4.6-2,6.7-3,.3,1.5.4,3.1.4,4.7l.2.2ZM49.4,35.7c0-.2,0-.5,0-.7.2.9.3,1.9.6,2.9-.2,0-.4.2-.6.3,0-.8,0-1.6,0-2.5h0s0,0,0,0Z"></path><path class="cls-6" d="M12.6,31.4c-.2-.1-.4-.3-.6-.4,0,0-.2-.2-.2-.4,0,0,0,0,0,0-.1-.3-.2-.5-.2-.8,0-.5.2-1,.4-1.4.3-.6.7-1.4.6-2.3,1-.4,1.9-.9,2.9-1.5.1.3.3.7.4,1.1,0,.2.1.5.1.7,0,.2,0,.3,0,.5,0,0,0,0,0,0-.1.2-.5.8-.8,1.3-.4.6-.8,1.1-.9,1.4-.2.3-.4.6-.5,1,0,0,0,0,0,0l-.2.7s0,0,0,0c0,.3-.1.5-.1.8,0,0,0,0,0,0-.1-.3-.4-.4-.6-.6,0,0,0,0,0,0ZM13.3,35.3c0,1.3,0,2.6,0,4-.3.1-.6.3-.9.4.3-1.6.6-3.1.8-4.4Z"></path><path class="cls-6" d="M4.8,28.9s0,0,0,0c0-.1,0-.2,0-.4,0-.3.2-.6.3-.8,0-.2.2-.4.2-.6,1,0,1.9,0,2.8-.2,0,.2.1.5.2.8,0,.4.1.8.1,1.2s0,1-.3,1.5c-.1.2-.5.4-.8.7-.2.1-.4.3-.6.5,0,0-.3.3-.5.6,0,0,0,0,0,0,0,0,0,.1,0,.2,0,0,0,0,0,0,0,0,0,0,0,.1v-.7c.1,0,.1,0,.1,0,0-.5.1-1,.2-1.3,0,0,0,0,0,0,0-.5-.2-.8-.4-.9-.1-.1-.3-.2-.5-.3-.2,0-.4-.2-.6-.3,0,0,0,0,0,0,0,0,0,0,0,0,0,0,0,0,0,0ZM6,32.9c0,.3,0,.6,0,1,0,.8.1,1.7.1,2.6,0,1.4,0,2.7,0,4.1-.6,0-1.3,0-1.9,0,.6-2.5,1.2-4.9,1.8-7.4,0,0,0,0,0,0v-.4Z"></path><path class="cls-6" d="M33,30.8s0,0,0,0v.6c-.1,0-.1,0-.1,0,0,.8.1,1.7.2,2.5,0,0,0,0,0,0,.2.9.4,1.9.6,3,.2.9.5,1.8.7,2.7-.4-.2-.7-.5-1.1-.7,0,0,0,0,0,0-.5-.3-.9-.5-1.4-.8,0-.7.2-1.5.3-2.2,0,0,0,0,0,0,.1-.9.2-1.9.2-2.8s0-1.6-.3-2.4c0,0,0,0,0,0,0-.3-.1-.5-.2-.7,0,0,0,0,0,0,0-.2-.1-.3-.2-.4-.2-.4-.4-.8-.7-1.2-.2-.4-.5-.8-.6-1.3,0,0,0,0,0,0-.2-.6-.3-1.2-.3-1.8s0-1.1.2-1.6c.9.5,1.7,1,2.6,1.5,0,0,0,0,0,0,.9.5,1.8,1.1,2.8,1.6-.3.5-.7.9-1,1.3-.3.3-.5.6-.8.9-.2.3-.5.7-.6,1-.1.2-.2.5-.2.7Z"></path><path class="cls-6" d="M22.7,32.4c0,.4.1,1.4.2,2.6-.2,0-.5,0-.7,0,0-.4.2-.8.2-1.2.1-.5.2-1,.2-1.5ZM22.7,32.2s0,0,0,0l.2.2-.2-.2ZM22.7,31.7c0-.5,0-1-.3-1.5,0,0,0,0,0,0-.3-.8-.9-1.4-1.5-2,0,0,0,0,0,0-.1-.1-.3-.3-.4-.4,0,0-.3-.4-.3-.4,0,0,0,0,0,0-.2-.2-.4-.5-.5-.8-.3-.7-.2-1.3,0-1.8,0,0,0,0,0,0,.2-.6.4-1.1.4-1.9s0-.3,0-.5c0,0,0,0,0,0,1.3-.5,2.7-.8,4.1-.7h0c.5,0,.9.1,1.4.2,0,.1,0,.3,0,.4s0,0,0,0c.1.7.2,1.5.2,2.2s0,1.4-.4,2.1c0,0-.2.4-.2.4-.4.8-1.1,1.5-1.6,2.3,0,0,0,0,0,0-.3.4-.5.8-.7,1.3,0,0,0,0,0,0-.1.3-.2.7-.3,1Z"></path></g><path class="cls-2" d="M6.1,43c-.3,0-.5,0-.8,0-.3-.4-.6-.8-.8-1.2.5,0,1.1,0,1.6,0v1.3ZM11.8,42.5c.1-.5.2-.9.3-1.4.4-.1.8-.3,1.2-.4,0,.4,0,.9,0,1.3-.5.2-1.1.4-1.6.5ZM21.9,36.5c.4,0,.7-.2,1.1-.2,0,.4,0,.8.1,1.3-.5,0-1,.2-1.5.3.1-.5.2-.9.3-1.4ZM31.8,39.7c0,0,.1,0,.2.1,1,.6,2,1.2,3,1.6.1.5.3,1,.4,1.6-1.3-.5-2.5-1.2-3.8-1.9,0-.5.1-.9.1-1.4ZM42,42.2c.5-.1,1-.3,1.6-.4,0,.4.2.8.3,1.2-.7.2-1.3.4-1.9.5,0-.4,0-.9,0-1.3ZM49.3,39.6c.3-.1.6-.3.9-.4.1.4.2.8.3,1.2-.4.2-.8.4-1.3.5,0-.5,0-.9,0-1.4ZM49.3,42.5c.3-.1.5-.2.8-.3-.3.4-.5.8-.8,1.1,0-.3,0-.5,0-.8ZM44.5,45.6c-.9.3-1.8.5-2.5.7v-1.3c.7-.2,1.5-.4,2.3-.7,0,.4.2.8.3,1.2ZM31.3,43.7c0-.5.1-.9.2-1.4.2.1.3.2.5.3,1.3.8,2.6,1.5,3.9,2,.1.5.3,1,.4,1.5-1.7-.5-3.4-1.5-5-2.5,0,0,0,0,0,0ZM23.3,40.4c-.9,0-1.7.3-2.6.6.1-.5.3-1,.4-1.5.7-.2,1.4-.4,2.1-.4,0,.4.1.8.1,1.3ZM10.9,45.5c.1-.4.3-.9.4-1.4,0,0,.1,0,.2,0,0,0,0,0,0,0,.6-.1,1.3-.3,1.9-.6,0,.4,0,.9,0,1.3-.6.2-1.1.4-1.7.5-.3,0-.5,0-.8.1Z"></path><path class="cls-7" d="M8,25.9c-.8,0-1.7.1-2.6.1,0,0,0,0,0-.1,0,0,0,0,0,0-.2-.8-.9-1.3-1.6-1.3-.4,0-.9.2-1.3.7-.3.2-.4.6-.5.9H.3c.2-4.6,1.6-9,3.8-12.8,2.8,0,5.7-.2,7.6-.6h0c2.3-.5,4.4-1.8,6.4-3,1.9-1.1,3.8-2.1,5.9-2,2.3.1,4.7,1.8,7.3,3.3,2.8,1.7,5.8,3.2,8.8,2.9,2.3-.2,5.7-1.4,9.1-2.8,2.2,3,3.8,6.5,4.6,10.3-2.1,1-4.5,2.1-6.8,3.1,0,0,0,0,0,0,0,0,0,0,0,0-.4-.9-1.1-1.4-2.1-1.2-1.2.2-1.9,1.1-2.1,2.2,0,0,0,0,0,0,0,.2,0,.4,0,.5-1.1.3-2.2.6-3.1.7,0,0,0,0,0,0,0-.1,0-.3,0-.4,0-.4.1-.8.3-1.2h0c.3-.7.8-1.5.9-2.6.2-1.5-1.1-2.6-2.5-2.6-.5,0-1,.2-1.4.6,0,0,0,0,0,0-.6.5-1,1.3-1,2s0,.9.1,1.4c0,0,0,0,0,0,0,.5,0,1.1-.2,1.8-.9-.4-1.8-1-2.6-1.5h0c-1-.6-1.9-1.1-2.9-1.7,0,0,0,0,0-.1,0,0,0,0,0,0,.3-1,.5-1.9.3-2.6h0c-.2-1.2-1-2.6-2.7-2.5,0,0,0,0,0,0-.7,0-1.2.2-1.5.4,0,0,0,0,0,0-.5.4-.8,1-1,1.6,0,0,0,0,0,0,0,.3,0,.7,0,1.1-.4,0-.8-.1-1.2-.2h0c-1.6,0-3.1.2-4.6.8-.1-.2-.3-.5-.5-.7-.4-.4-.9-.7-1.5-.6-1.6.2-2.4,1.4-2.5,3.2l.3.3-.3-.3h0c0,.1,0,.2,0,.3-.9.6-1.9,1.1-2.9,1.5-.3-.5-1-1.3-2.1-1.3-.5,0-1.1.2-1.5.7s-.6.9-.7,1.4ZM5,12C9.9,4.9,18.1.2,27.4.2s16,3.9,20.9,9.9c-3.2,1.3-6.3,2.4-8.4,2.5-2.7.2-5.4-1.2-7.9-2.8h0c-2.8-1.7-5.4-3.4-7.9-3.5-2.4-.1-4.5.9-6.7,2.2-1.9,1.1-3.9,2.4-6,2.8,0,0,0,0,0,0-1.6.4-4,.5-6.4.6Z"></path></g></g></g><g><g><path class="cls-8" d="M140,15.3h-13.9v21.8h8.8v-7.1h4.4c7.7,0,13.1-2,13.1-7.5s-5-7.2-12.5-7.2ZM135,25.1v-4.9h4.7c2.8,0,3.9,1,3.9,2.4s-1.1,2.5-4,2.5h-4.5Z"></path><polygon class="cls-8" points="64.5 15.3 64.4 15.3 64.4 37.1 64.5 37.1 73.5 37.1 73.6 37.1 73.6 15.3 73.5 15.3 64.5 15.3"></polygon><polygon class="cls-8" points="80.3 15.3 80.2 15.3 80.2 37.1 80.3 37.1 89 37.1 89.1 37.1 89.1 28.6 99 28.6 99.1 28.6 99.1 23.5 99 23.5 89.1 23.5 89.1 20.5 105.5 20.5 105.6 20.5 105.6 15.3 105.5 15.3 80.3 15.3"></polygon><polygon class="cls-8" points="110.6 15.3 110.4 15.3 110.4 37.1 110.6 37.1 119.5 37.1 119.6 37.1 119.6 15.3 119.5 15.3 110.6 15.3"></polygon></g><g><path class="cls-10" d="M67.2,41.7c-.1,0-.2,0-.4,0-.3,0-.4.1-.4.3v.3h.7v1h-.7v3.1h-1.1v-3.1h-.5v-1h.5v-.5c0-.8.4-1.1,1.2-1.1s.5,0,.7.1v.9Z"></path><path class="cls-10" d="M71.3,44.4c0,1.3-.8,2.2-1.9,2.2s-1.9-.9-1.9-2.2.8-2.2,1.9-2.2,1.9.9,1.9,2.2ZM70.2,44.4c0-.6-.3-1.1-.8-1.1s-.8.5-.8,1.1.2,1.1.8,1.1.8-.5.8-1.1Z"></path><path class="cls-10" d="M74.7,42.5l-.3,1.1c-.2-.2-.4-.3-.6-.3-.4,0-.7.2-.7.9v2.3h-1.1v-4.2h1.1v.3c.2-.2.5-.4.9-.4s.6.1.8.3Z"></path><path class="cls-10" d="M78.9,46.5h-1.1v-5.6h1.1v5.6Z"></path><path class="cls-10" d="M83.7,46.5h-1.1v-2.3c0-.7-.3-1-.7-1s-.7.2-.7.9v2.3h-1.1v-4.2h1.1v.3c.2-.2.5-.4,1-.4,1.1,0,1.5.7,1.5,1.9v2.3Z"></path><path class="cls-10" d="M88,46.5h-1.1v-.3c-.2.2-.5.3-.9.3-.9,0-1.6-.7-1.6-2.2s.6-2.1,1.6-2.1.7.1.9.3v-1.3l1.1-.5v5.8ZM86.9,45.2v-1.6c-.2-.2-.4-.4-.7-.4s-.7.4-.7,1.1.3,1.2.7,1.2.5-.1.7-.3Z"></path><path class="cls-10" d="M90.2,41.4c0,.3-.3.6-.6.6s-.6-.3-.6-.6.3-.6.6-.6.6.3.6.6ZM90.1,46.5h-1.1v-4.2h1.1v4.2Z"></path><path class="cls-10" d="M94.5,45.8c0,1.4-.3,2.1-1.8,2.2l-.4-.8c.9-.1,1.1-.3,1.1-1-.2.2-.5.3-.9.3-.9,0-1.6-.7-1.6-2.2s.6-2.1,1.6-2.1.7.1.9.3v-.2h1.1v3.5ZM93.4,45.2v-1.6c-.2-.2-.4-.4-.7-.4s-.7.4-.7,1.1.3,1.2.7,1.2.5-.1.7-.3Z"></path><path class="cls-10" d="M98.8,44.4c0,.2,0,.3,0,.3h-2.5c0,.6.5.8.9.8s.6-.1.7-.3l.8.7c-.3.4-.9.7-1.5.7-1.2,0-2-.8-2-2.2s.8-2.2,1.9-2.2,1.8,1,1.8,2.2ZM97.8,43.9c0-.4-.3-.7-.7-.7s-.6.3-.7.7h1.4Z"></path><path class="cls-10" d="M103.2,46.5h-1.1v-2.3c0-.7-.3-1-.7-1s-.7.2-.7.9v2.3h-1.1v-4.2h1.1v.3c.2-.2.5-.4,1-.4,1.1,0,1.5.7,1.5,1.9v2.3Z"></path><path class="cls-10" d="M107.7,44.4c0,1.3-.8,2.2-1.9,2.2s-1.9-.9-1.9-2.2.8-2.2,1.9-2.2,1.9.9,1.9,2.2ZM106.6,44.4c0-.6-.3-1.1-.8-1.1s-.8.5-.8,1.1.2,1.1.8,1.1.8-.5.8-1.1Z"></path><path class="cls-10" d="M112,46.5h-1.1v-.3c-.2.2-.5.4-1,.4-1.1,0-1.5-.7-1.5-1.9v-2.4h1.1v2.3c0,.7.3,1,.7,1s.7-.2.7-.9v-2.3h1.1v4.2Z"></path><path class="cls-10" d="M116.2,45.3c0,1-.8,1.3-1.7,1.3s-1.3-.2-1.7-.5l.4-.8c.4.2.9.4,1.4.4s.6-.1.6-.3-.2-.3-.6-.4c-1-.3-1.6-.5-1.6-1.4s.7-1.2,1.7-1.2,1.1.2,1.5.4l-.3.9c-.4-.2-.9-.3-1.2-.3s-.6,0-.6.3.1.2.9.5c.7.2,1.4.5,1.4,1.3Z"></path><path class="cls-10" d="M123.8,42.7c0,1.3-.9,1.8-2,1.8h-1.2v2h-1.1v-5.6h2.4c1,0,1.9.6,1.9,1.8ZM122.7,42.7c0-.5-.3-.7-.8-.7h-1.3v1.4h1.3c.5,0,.8-.2.8-.7Z"></path><path class="cls-10" d="M127.8,44.4c0,.2,0,.3,0,.3h-2.5c0,.6.5.8.9.8s.6-.1.7-.3l.8.7c-.3.4-.9.7-1.5.7-1.2,0-2-.8-2-2.2s.8-2.2,1.9-2.2,1.8,1,1.8,2.2ZM126.7,43.9c0-.4-.3-.7-.7-.7s-.6.3-.7.7h1.4Z"></path><path class="cls-10" d="M132.1,44.4c0,1.3-.8,2.2-1.9,2.2s-1.9-.9-1.9-2.2.8-2.2,1.9-2.2,1.9.9,1.9,2.2ZM131,44.4c0-.6-.3-1.1-.8-1.1s-.8.5-.8,1.1.2,1.1.8,1.1.8-.5.8-1.1Z"></path><path class="cls-10" d="M136.5,44.5c0,1.2-.6,2.1-1.6,2.1s-.7-.1-.9-.3v1.2l-1.1.5v-5.7h1.1v.3c.2-.2.5-.3.9-.3.9,0,1.6.7,1.6,2.2ZM135.3,44.5c0-.9-.3-1.2-.7-1.2s-.5.1-.7.3v1.6c.2.2.4.4.7.4s.7-.4.7-1.1Z"></path><path class="cls-10" d="M138.3,46.5h-1.1v-5.2l1.1-.5v5.8Z"></path><path class="cls-10" d="M142.7,44.4c0,.2,0,.3,0,.3h-2.5c0,.6.5.8.9.8s.6-.1.7-.3l.8.7c-.3.4-.9.7-1.5.7-1.2,0-2-.8-2-2.2s.8-2.2,1.9-2.2,1.8,1,1.8,2.2ZM141.7,43.9c0-.4-.3-.7-.7-.7s-.6.3-.7.7h1.4Z"></path><path class="cls-10" d="M146.7,45.3c0,1-.8,1.3-1.7,1.3s-1.3-.2-1.7-.5l.4-.8c.4.2.9.4,1.4.4s.6-.1.6-.3-.2-.3-.6-.4c-1-.3-1.6-.5-1.6-1.4s.7-1.2,1.7-1.2,1.1.2,1.5.4l-.3.9c-.4-.2-.9-.3-1.2-.3s-.6,0-.6.3.1.2.9.5c.7.2,1.4.5,1.4,1.3Z"></path></g><g><path class="cls-10" d="M66.4,11.9h-1.1v-5.6h1.1v5.6Z"></path><path class="cls-10" d="M71.3,11.9h-1.1v-2.3c0-.7-.3-1-.7-1s-.7.2-.7.9v2.3h-1.1v-4.2h1.1v.3c.2-.2.5-.4,1-.4,1.1,0,1.5.7,1.5,1.9v2.4Z"></path><path class="cls-10" d="M74.6,10.6l-.2,1.1c-.2.1-.5.3-.8.3-.7,0-1.1-.5-1.1-1.3v-2h-.7v-1h.7v-1.1l1.1-.5v1.6h1v1h-1v1.7c0,.4.1.5.4.5s.3,0,.6-.3Z"></path><path class="cls-10" d="M78.8,9.8c0,.2,0,.3,0,.3h-2.5c0,.6.5.8.9.8s.6-.1.7-.3l.8.7c-.3.4-.9.7-1.5.7-1.2,0-2-.8-2-2.2s.8-2.2,1.9-2.2,1.8,1,1.8,2.2ZM77.7,9.4c0-.4-.3-.7-.7-.7s-.6.3-.7.7h1.4Z"></path><path class="cls-10" d="M82.3,7.9l-.3,1.1c-.2-.2-.4-.3-.6-.3-.4,0-.7.2-.7.9v2.3h-1.1v-4.2h1.1v.3c.2-.2.5-.4.9-.4s.6.1.8.3Z"></path><path class="cls-10" d="M86.4,11.9h-1.1v-2.3c0-.7-.3-1-.7-1s-.7.2-.7.9v2.3h-1.1v-4.2h1.1v.3c.2-.2.5-.4,1-.4,1.1,0,1.5.7,1.5,1.9v2.4Z"></path><path class="cls-10" d="M90.7,11.9h-1.1v-.3c-.2.2-.5.4-.9.4-.8,0-1.6-.5-1.6-1.5s.7-1.4,1.7-1.4.6,0,.8.2v-.2c0-.3-.2-.5-.6-.5s-.8,0-1.1.3l-.4-.8c.5-.3.9-.4,1.6-.4,1,0,1.7.5,1.7,1.5v2.8ZM89.6,10.7v-.5c-.2-.1-.4-.2-.8-.2s-.6.2-.6.5.2.6.6.6.6-.2.8-.4Z"></path><path class="cls-10" d="M94.1,10.6l-.2,1.1c-.2.1-.5.3-.8.3-.7,0-1.1-.5-1.1-1.3v-2h-.7v-1h.7v-1.1l1.1-.5v1.6h1v1h-1v1.7c0,.4.1.5.4.5s.3,0,.6-.3Z"></path><path class="cls-10" d="M96.3,6.8c0,.3-.3.6-.6.6s-.6-.3-.6-.6.3-.6.6-.6.6.3.6.6ZM96.2,11.9h-1.1v-4.2h1.1v4.2Z"></path><path class="cls-10" d="M100.7,9.8c0,1.3-.8,2.2-1.9,2.2s-1.9-.9-1.9-2.2.8-2.2,1.9-2.2,1.9.9,1.9,2.2ZM99.6,9.8c0-.6-.3-1.1-.8-1.1s-.8.5-.8,1.1.2,1.1.8,1.1.8-.5.8-1.1Z"></path><path class="cls-10" d="M105.1,11.9h-1.1v-2.3c0-.7-.3-1-.7-1s-.7.2-.7.9v2.3h-1.1v-4.2h1.1v.3c.2-.2.5-.4,1-.4,1.1,0,1.5.7,1.5,1.9v2.4Z"></path><path class="cls-10" d="M109.4,11.9h-1.1v-.3c-.2.2-.5.4-.9.4-.8,0-1.6-.5-1.6-1.5s.7-1.4,1.7-1.4.6,0,.8.2v-.2c0-.3-.2-.5-.6-.5s-.8,0-1.1.3l-.4-.8c.5-.3.9-.4,1.6-.4,1,0,1.7.5,1.7,1.5v2.8ZM108.3,10.7v-.5c-.2-.1-.4-.2-.8-.2s-.6.2-.6.5.2.6.6.6.6-.2.8-.4Z"></path><path class="cls-10" d="M111.4,11.9h-1.1v-5.2l1.1-.5v5.8Z"></path><path class="cls-10" d="M118.8,7.4h-2.9v1h1.7v1.1h-1.7v2.3h-1.1v-5.6h4v1.1Z"></path><path class="cls-10" d="M122.5,11.9h-1.1v-.3c-.2.2-.5.4-1,.4-1.1,0-1.5-.7-1.5-1.9v-2.4h1.1v2.3c0,.7.3,1,.7,1s.7-.2.7-.9v-2.3h1.1v4.2Z"></path><path class="cls-10" d="M127.1,11.9h-1.1v-2.3c0-.7-.3-1-.7-1s-.7.2-.7.9v2.3h-1.1v-4.2h1.1v.3c.2-.2.5-.4,1-.4,1.1,0,1.5.7,1.5,1.9v2.4Z"></path><path class="cls-10" d="M131.4,11.9h-1.1v-.3c-.2.2-.5.3-.9.3-.9,0-1.6-.7-1.6-2.2s.6-2.1,1.6-2.1.7.1.9.3v-1.3l1.1-.5v5.8ZM130.3,10.6v-1.6c-.2-.2-.4-.4-.7-.4s-.7.4-.7,1.1.3,1.2.7,1.2.5-.1.7-.3Z"></path><path class="cls-10" d="M135.8,9.8c0,.2,0,.3,0,.3h-2.5c0,.6.5.8.9.8s.6-.1.7-.3l.8.7c-.3.4-.9.7-1.5.7-1.2,0-2-.8-2-2.2s.8-2.2,1.9-2.2,1.8,1,1.8,2.2ZM134.7,9.4c0-.4-.3-.7-.7-.7s-.6.3-.7.7h1.4Z"></path><path class="cls-10" d="M139.2,7.9l-.3,1.1c-.2-.2-.4-.3-.6-.3-.4,0-.7.2-.7.9v2.3h-1.1v-4.2h1.1v.3c.2-.2.5-.4.9-.4s.6.1.8.3Z"></path><path class="cls-10" d="M142.9,10.7c0,1-.8,1.3-1.7,1.3s-1.3-.2-1.7-.5l.4-.8c.4.2.9.4,1.4.4s.6-.1.6-.3-.2-.3-.6-.4c-1-.3-1.6-.5-1.6-1.4s.7-1.2,1.7-1.2,1.1.2,1.5.4l-.3.9c-.4-.2-.9-.3-1.2-.3s-.6,0-.6.3.1.2.9.5c.7.2,1.4.5,1.4,1.3Z"></path></g></g></svg>