<?xml version="1.0" encoding="UTF-8"?><svg id="Layer_2" xmlns="http://www.w3.org/2000/svg" xmlns:xlink="http://www.w3.org/1999/xlink" viewBox="0 0 112.11 138.8"><defs><style>.cls-1{fill:url(#linear-gradient);}.cls-2{fill:#0052c4;}.cls-3{fill:#fff;}.cls-4{fill:#231f20;}</style><linearGradient id="linear-gradient" x1="52.81" y1="-21.21" x2="89.62" y2="-58.01" gradientTransform="translate(0 92.01)" gradientUnits="userSpaceOnUse"><stop offset=".27" stop-color="#ffdd15"/><stop offset=".88" stop-color="#faaf40"/></linearGradient></defs><g id="Layer_2-2"><g><path class="cls-3" d="M112.11,2.97V138.8H0V3.33C17.56,1.19,37.06,0,57.6,0c19.34,0,37.76,1.06,54.51,2.97"/><g><g><path class="cls-2" d="M24.33,47.35c-1.14-1.11-.83-1.65,.7-1.22l15.45,4.42c1.53,.44,2.42-.46,1.99-1.99l-4.42-15.45c-.44-1.53,.11-1.85,1.22-.7l11.18,11.55c1.11,1.14,2.33,.82,2.71-.73l3.9-15.59c.19-.77,.45-1.16,.7-1.16H18.4v39.37c5.14-2.3,11.85-4.13,19.56-5.31l-13.63-13.19Z"/><path class="cls-1" d="M57.77,62.35c15.95,0,30.16,1.37,39.37,3.49-5.14-2.3-11.85-4.13-19.56-5.31l13.63-13.19c1.14-1.11,.83-1.65-.7-1.22l-15.45,4.42c-1.53,.44-2.42-.46-1.99-1.99l4.42-15.45c.44-1.53-.11-1.85-1.22-.7l-11.18,11.55c-1.11,1.14-2.33,.82-2.71-.73l-3.9-15.59c-.19-.77-.45-1.16-.7-1.16V62.35Z"/></g><path class="cls-4" d="M60.14,72.86c0,.85-.69,1.54-1.54,1.54s-1.54-.69-1.54-1.54,.69-1.54,1.54-1.54,1.54,.69,1.54,1.54Zm-2.63,19.03h2.19v-15.11h-2.19v15.11Zm13.92-10.32c-.69-.32-1.44-.65-2.22-.97-.65-.27-1.25-.53-1.8-.77-.54-.24-2.64-1.08-2.64-3.31,0-.56,.01-3.18,4.15-3.18,3.05,0,4.65,1.34,4.65,1.34l.82-1.94s-2-1.42-5.38-1.42c-5.89,0-6.54,3.6-6.54,5.34,0,3.18,2.49,4.37,3.15,4.72,.65,.34,1.4,.68,2.22,1,.65,.27,1.27,.52,1.86,.75,.57,.23,1.09,.51,1.54,.84,.44,.32,1.45,1.11,1.45,2.92,0,1.21-.3,3.41-4.72,3.41-3.27,0-5.32-1.42-5.32-1.42l-.75,2s2.16,1.44,6.04,1.44c4.81,0,7.11-2.23,7.11-5.54,0-3.71-2.89-4.88-3.6-5.21Zm-32.98-9.82h-2.28v12.37c0,1.06,0,6.12-5.12,6.12s-5.12-5.06-5.12-6.12v-12.37h-2.28v12.63c0,1.1-.12,7.94,7.4,7.94,7.52,0,7.4-6.84,7.4-7.94v-12.63Zm9.6,4.74c-2.95,0-4.67,.52-5.83,.84v14.55h2.19v-13.02c1.29-.32,2.49-.35,3.35-.35,3.45,0,4.12,1.96,4.12,5.55v7.83h2.19v-8.43c0-3.5-.95-6.97-6.03-6.97Zm38.48,13.75c-4.48,0-7.29-3.05-7.29-8.43,0-5.37,2.81-8.42,7.29-8.42,1.97,0,3.36,.56,4.33,1.15l1.04-1.81s-1.98-1.41-5.75-1.41c-4.87,0-9.31,3.66-9.31,10.47v.06c0,6.81,4.44,10.47,9.31,10.47,3.77,0,5.75-1.41,5.75-1.41l-1.04-1.81c-.97,.59-2.36,1.15-4.33,1.15Z"/></g></g></g></svg>