<?xml version="1.0" encoding="utf-8"?>
<!-- Generator: Adobe Illustrator 23.0.0, SVG Export Plug-In . SVG Version: 6.00 Build 0)  -->
<svg version="1.1" id="Layer_1" xmlns="http://www.w3.org/2000/svg" xmlns:xlink="http://www.w3.org/1999/xlink" x="0px" y="0px"
	 viewBox="0 0 467.21 467.21" style="enable-background:new 0 0 467.21 467.21;" xml:space="preserve">
<style type="text/css">
	.st0{fill:#FCB12B;}
	.st1{fill:#F47D2D;}
	.st2{fill:#D35034;}
	.st3{fill:#FFFFFF;}
</style>
<path class="st0" d="M379.42,67.5C340.35,35.24,269.96,3.69,215.34,3.69c-62.45,0-98.69,33.45-139.59,74.41
	C34.91,118.98,5.59,171.38,5.59,233.73c0,91.78,38.47,174.84,117.06,210.22c28.28,12.73,75.9,15.76,108.93,15.76
	c78.27,0,139.12-31.67,179.68-92.12c24.12-35.95,50.37-91.38,50.37-137.92C461.62,159.48,429.62,108.95,379.42,67.5z"/>
<path class="st1" d="M368.52,79.78c-36.15-29.85-100.53-58.36-151.07-58.36c-57.78,0-94.81,29.23-132.65,67.12
	c-37.78,37.83-64.98,87.41-62.15,145.03c3.55,72.32,25.67,156.25,98.38,188.98c26.17,11.78,83.16,22.86,113.72,22.86
	c72.41,0,122.45-25.36,159.98-81.29c22.31-33.26,52.33-92.42,52.33-135.48C447.05,163.71,414.96,118.13,368.52,79.78z"/>
<path class="st2" d="M358.3,91.29c-33.41-27.58-88.01-54.34-134.71-54.34c-53.41,0-93.95,26.02-128.93,61.04
	c-34.92,34.96-53.01,83.46-53.01,136.78c0,78.48,29.88,148.16,97.08,178.42c24.18,10.89,64.9,13.48,93.14,13.48
	c66.93,0,118.48-19.69,153.16-71.39c20.62-30.74,47.11-93.24,47.11-133.03C432.14,162.24,401.22,126.74,358.3,91.29z"/>
<g>
	<path class="st3" d="M121.28,202.97h13.11v15.01c0,12.42-5.35,21.21-20.87,21.21c-16.56,0-21.21-8.8-21.21-21.21v-81.75
		c0-12.42,4.66-21.21,21.21-21.21c15.52,0,20.87,8.8,20.87,21.21v13.28h-13.11v-13.28c0-5.17-1.72-9.14-7.76-9.14
		c-6.04,0-7.76,3.97-7.76,9.14v81.75c0,5.17,1.72,9.14,7.76,9.14c6.04,0,7.76-3.97,7.76-9.14V202.97L121.28,202.97z"/>
	<path class="st3" d="M179.58,151.23v86.24h-7.59l-3.28-4.66c-2.41,4.14-6.38,6.38-12.42,6.38c-12.07,0-16.73-6.55-16.73-20.01
		v-67.95h12.76v67.95c0,5.35,1.72,8.97,7.24,8.97c5.52,0,7.24-3.62,7.24-8.97v-67.95H179.58L179.58,151.23z"/>
	<polygon class="st3" points="199.24,115.01 199.24,237.47 186.47,237.47 186.47,115.01 199.24,115.01 	"/>
	<path class="st3" d="M202.68,151.23h8.62v-22.42l12.76-3.45v25.87h13.28v11.38h-13.28v56.74c0,6.04,1.21,8.8,6.73,8.8
		c2.76,0,4.14-0.34,6.55-1.38v11.04c-1.55,0.69-5.18,1.38-7.24,1.38c-15.01,0-18.8-7.24-18.8-19.83v-56.74h-8.62V151.23
		L202.68,151.23z"/>
	<path class="st3" d="M281.67,151.23v86.24h-7.59l-3.28-4.66c-2.41,4.14-6.38,6.38-12.42,6.38c-12.07,0-16.73-6.55-16.73-20.01
		v-67.95h12.76v67.95c0,5.35,1.73,8.97,7.24,8.97c5.52,0,7.25-3.62,7.25-8.97v-67.95H281.67L281.67,151.23z"/>
	<path class="st3" d="M314.27,162.1c-9.49-1.21-12.93,4.48-12.93,12.59v62.78h-12.76v-86.24h9.14l2.93,4.31
		c2.76-4.14,6.21-6.9,13.62-6.9V162.1L314.27,162.1z"/>
	<path class="st3" d="M343.76,169.51c0-6.04-2.24-8.97-7.25-8.97c-5,0-7.24,2.93-7.24,8.97v16.21h14.49V169.51L343.76,169.51z
		 M356.18,207.8v11.38c0,12.07-4.14,20.01-19.66,20.01c-15.52,0-20.01-7.93-20.01-20.01v-49.67c0-12.07,4.48-20.01,20.01-20.01
		c15.52,0,19.66,7.93,19.66,20.01v25.87h-26.91v23.8c0,6.04,2.24,8.97,7.24,8.97c5,0,7.25-2.93,7.25-8.97V207.8H356.18L356.18,207.8
		z"/>
</g>
<g>
	<polygon class="st3" points="224.67,254.3 238.12,254.3 238.12,362.09 255.71,362.09 255.71,375.03 224.67,375.03 224.67,254.3 	
		"/>
	<path class="st3" d="M273.65,288.79v86.24h-12.76v-86.24H273.65L273.65,288.79z M273.65,260.85v15.18h-12.76v-15.18H273.65
		L273.65,260.85z"/>
	<path class="st3" d="M311.59,251.88v11.21c-1.9-0.86-3.97-1.21-6.73-1.21c-5.52,0-7.24,2.76-7.24,8.8v18.11h11.9v11.38h-11.9v74.85
		h-12.76v-74.85h-7.76v-11.38h7.76v-18.11c0-12.59,4.14-19.84,19.66-19.84C306.94,250.85,309.52,251.19,311.59,251.88L311.59,251.88
		z"/>
	<path class="st3" d="M340.05,307.07c0-6.04-2.24-8.97-7.24-8.97c-5,0-7.25,2.93-7.25,8.97v16.21h14.49V307.07L340.05,307.07z
		 M352.47,345.36v11.38c0,12.07-4.14,20.01-19.66,20.01c-15.53,0-20.01-7.93-20.01-20.01v-49.67c0-12.07,4.48-20.01,20.01-20.01
		c15.52,0,19.66,7.93,19.66,20.01v25.87h-26.91v23.8c0,6.04,2.24,8.97,7.25,8.97c5,0,7.24-2.93,7.24-8.97v-11.38H352.47
		L352.47,345.36z"/>
</g>
<g>
	<path class="st0" d="M127.55,268.64h1.77v0.06h0.51v0.06h0.25v0.13h0.25v0.06h0.19v0.06h0.25v0.06h0.25v0.06h0.13v0.13h0.13v0.06
		h0.25v0.06h0.13v0.06h0.19v0.06h0.06v0.13h0.13v0.06h0.19v0.06h0.06v0.06h0.13v0.06h0.13v0.13h0.13v0.06h0.06v0.06h0.19v0.06h0.06
		v0.06h0.06v0.13h0.06v0.06h0.19v0.06h0.06v0.06h0.06v0.06h0.06v0.06h0.06v0.13h0.13v0.06h0.06v0.06h0.06v0.06h0.06v0.06h0.06v0.13
		h0.13v0.06h0.06v0.06h0.06v0.06h0.06v0.19h0.06v0.06h0.06v0.06h0.13v0.06h0.06v0.19h0.06v0.06h0.06v0.13h0.06v0.06h0.13v0.19h0.06
		v0.06H135v0.13h0.06v0.19h0.06v0.13h0.13v0.19h0.06v0.13h0.06v0.25h0.06v0.19h0.06v0.25h0.13v0.88h-0.13v0.25h-0.06v0.19h-0.06
		v0.19h-0.06v0.13h-0.06v0.06h-0.13v0.19h-0.06v0.06H135v0.06h-0.06v0.06h-0.06v0.06h-0.13v0.13h-0.13v0.06h-0.06v0.06h-0.19v0.06
		h-0.19v0.06h-0.44v0.13h-1.45v-0.13h-0.7v-0.06h-0.32v-0.06h-0.25v-0.06h-0.25v-0.06h-0.25v-0.13h-0.19v-0.06h-0.25v-0.06h-0.19
		v-0.06h-0.19v-0.06h-0.13v-0.12h-0.13v-0.06h-0.25v-0.06h-0.13v-0.06h-0.19v-0.06h-0.06v-0.12h-0.13v-0.06h-0.19v-0.06h-0.13v-0.06
		h-0.19v-0.06h-0.06v-0.13h-0.13v-0.06h-0.19v-0.06h-0.06v-0.06h-0.13v-0.06h-0.19v-0.13h-0.06v-0.06h-0.13v-0.06h-0.06v-0.06h-0.19
		v-0.06h-0.06v-0.06h-0.13v-0.13h-0.13v-0.06h-0.13v-0.06h-0.06v-0.06h-0.13v-0.06h-0.13v-0.13h-0.13v-0.06h-0.13v-0.06h-0.13v-0.06
		h-0.13v-0.06h-0.06v-0.13h-0.19v-0.06h-0.06v-0.06h-0.13v-0.06h-0.19v-0.06h-0.06V273h-0.13v-0.06h-0.19v-0.06h-0.06v-0.13h-0.06
		v-0.13h-0.06v-0.19h-0.06v-0.32h-0.13v-0.69h0.13v-0.19h0.06v-0.19h0.06v-0.13h0.06v-0.19h0.06v-0.13h0.13v-0.06h0.06v-0.13h0.06
		v-0.13h0.06v-0.13h0.06v-0.06h0.13v-0.06h0.06v-0.13h0.06v-0.06h0.06v-0.06h0.06v-0.06h0.13v-0.06h0.06v-0.13h0.06v-0.06h0.06
		v-0.06h0.06v-0.06h0.19v-0.06h0.06v-0.13h0.13v-0.06h0.19v-0.06h0.13v-0.06h0.13v-0.06h0.25v-0.13h0.25v-0.06h0.38V268.64
		L127.55,268.64z M126.54,290.18h1.45v0.06h0.44v0.06h0.32v0.06h0.32v0.12h0.19v0.06h0.25v0.06h0.19v0.06h0.25v0.06h0.13v0.13h0.25
		v0.06h0.13V291h0.19v0.06h0.13v0.06h0.13v0.13h0.13v0.06h0.13v0.06h0.13v0.06h0.13v0.06h0.13v0.13h0.06v0.06h0.19v0.06h0.06v0.06
		h0.13v0.06h0.06v0.13h0.13v0.06h0.13v0.06h0.06v0.06h0.06v0.06h0.13v0.13h0.06v0.06h0.06v0.06h0.06v0.06h0.06v0.06h0.13v0.12h0.06
		v0.06h0.06v0.06h0.06v0.06h0.06v0.06h0.13v0.12h0.06v0.06h0.06v0.06h0.06v0.06h0.06v0.06h0.13v0.19h0.06v0.06h0.06v0.06h0.06v0.19
		h0.06v0.06h0.13v0.13h0.06v0.06h0.06v0.19h0.06v0.06h0.06v0.12h0.06v0.19h0.13v0.13h0.06v0.13h0.06v0.19h0.06v0.13h0.06v0.25h0.13
		v0.13h0.06v0.25H135v0.19h0.06v0.25h0.06v0.31h0.13v0.38h0.06v0.51h0.06v1.14h0.06v1.14h0.06v0.88h0.13v0.95h0.06v0.88h0.06v0.82
		h0.06v0.82h0.06v0.95h0.13v0.95h0.06v1.14h0.06v1.52h0.06v3.66h-0.06v2.97h0.06v1.45h0.06v1.14h0.13v1.01h0.06v0.88h0.06v1.01h0.06
		v1.07h0.06v1.45h0.13v2.9h-0.13v1.14h-0.06v0.63h-0.06v0.63h-0.06v0.44h-0.06v0.57h-0.13v0.51h-0.06v0.57h-0.06v0.63h-0.06v0.63
		h-0.06v0.63h-0.13v0.69h-0.06v0.76h-0.06v1.01h-0.06v1.14h-0.06v3.98h0.06v0.76h0.06v0.57h0.06v0.51h0.06v0.25h0.13v0.31h0.06v0.32
		h0.06v0.25h0.06v0.19h0.06v0.19h0.13v0.13h0.06v0.12h0.06v0.19h0.06v0.13h0.06v0.06h0.13v0.12h0.06v0.13h0.06v0.06h0.06v0.06h0.06
		v0.12h0.13v0.06h0.13v0.06h0.06v0.06h0.19V345h0.13v0.12h0.13v0.06h0.44v0.06h0.38v-0.06h0.5v-0.06h0.25V345h0.25v-0.06h0.13v-0.06
		h0.25v-0.06h0.13v-0.06h0.19v-0.12h0.13v-0.06h0.06v-0.06h0.19v-0.06h0.13v-0.06h0.06v-0.12h0.19v-0.06h0.06v-0.06h0.13v-0.06h0.13
		v-0.06h0.13v-0.13h0.06v-0.06h0.06v-0.06h0.19v-0.06h0.06v-0.06h0.06v-0.13h0.13v-0.06h0.13v-0.06h0.06v-0.06h0.06v-0.06h0.06
		v-0.13h0.19v-0.06h0.06v-0.06h0.06v-0.06h0.06v-0.06h0.06v-0.13h0.13v-0.06h0.06v-0.06h0.06v-0.06h0.13v-0.06h0.13v-0.13h0.06
		v-0.06h0.06v-0.06h0.06v-0.06h0.06v-0.06h0.13v-0.12h0.06v-0.06h0.06v-0.06h0.06v-0.06h0.06v-0.06h0.13v-0.13h0.06v-0.06h0.06
		v-0.06h0.06v-0.06h0.06v-0.06h0.13v-0.06h0.06v-0.13h0.06v-0.06h0.06v-0.06h0.06v-0.06h0.13v-0.06h0.06v-0.19h0.06v-0.06h0.06
		v-0.06h0.06v-0.06h0.13v-0.13h0.06v-0.06h0.06v-0.06h0.06v-0.06h0.06v-0.06h0.13v-0.12h0.06v-0.13h0.06v-0.06h0.06v-0.06h0.06
		v-0.12h0.13v-0.06h0.06v-0.06h0.06v-0.06h0.06v-0.06h0.06v-0.19h0.06v-0.06h0.13v-0.06h0.06V339h0.06v-0.13h0.06v-0.06h0.06v-0.13
		h0.13v-0.06h0.06v-0.13h0.06v-0.06H147v-0.06h0.06v-0.12h0.13v-0.13h0.06v-0.06h0.06v-0.06h0.06v-0.12h0.06v-0.13h0.13v-0.06h0.06
		v-0.06h0.06v-0.06h0.06v-0.13h0.06v-0.12h0.13v-0.06h0.06v-0.06h0.06v-0.13h0.06v-0.13h0.06v-0.06h0.13v-0.06h0.06v-0.13h0.06
		v-0.13h0.06v-0.06h0.06v-0.13h0.13v-0.06h0.06v-0.13h0.06v-0.06h0.06v-0.12h0.06v-0.06h0.13v-0.13h0.06v-0.13h0.06v-0.06h0.06
		v-0.06h0.06v-0.12h0.13v-0.13h0.06v-0.06h0.06v-0.06h0.06v-0.19h0.06v-0.06h0.13v-0.06h0.06v-0.19h0.06v-0.06h0.06v-0.06h0.06
		v-0.13h0.06v-0.13h0.13v-0.06h0.06v-0.13h0.06v-0.06h0.06v-0.13h0.06v-0.13h0.13v-0.06h0.06v-0.06h0.06v-0.19h0.06v-0.06h0.06
		v-0.12h0.13v-0.06h0.06v-0.12h0.06v-0.13h0.06v-0.06h0.06v-0.06h0.13v-0.19h0.06v-0.06h0.06v-0.13h0.06v-0.13h0.06v-0.06h0.13
		v-0.13h0.06v-0.06h0.06v-0.19h0.06v-0.06h0.06v-0.06h0.13v-0.19h0.06v-0.06h0.06v-0.13h0.06v-0.06h0.06v-0.13h0.13v-0.13h0.06
		v-0.06h0.06v-0.19h0.06v-0.06h0.06v-0.13h0.13v-0.06H153v-0.12h0.06v-0.13h0.06v-0.06h0.06v-0.19h0.13v-0.06h0.06v-0.12h0.06v-0.06
		h0.06v-0.06h0.06v-0.19h0.13v-0.06h0.06v-0.12h0.06v-0.13h0.06v-0.13h0.06v-0.06h0.06v-0.19h0.13v-0.06h0.06v-0.06h0.06v-0.13h0.06
		v-0.12h0.06v-0.13h0.13v-0.06h0.06v-0.19h0.06v-0.06h0.06v-0.12h0.06v-0.06h0.13v-0.19h0.06v-0.06h0.06v-0.13h0.06v-0.13h0.06
		v-0.12h0.13v-0.06h0.06v-0.19h0.06v-0.06h0.06v-0.06h0.06v-0.12h0.13v-0.13h0.06v-0.13h0.06v-0.06h0.06v-0.19h0.06v-0.06h0.13
		v-0.13h0.06v-0.06h0.06v-0.19h0.06v-0.06h0.06v-0.12h0.13v-0.06h0.06v-0.19h0.06v-0.06h0.06v-0.13h0.06v-0.13h0.13v-0.13h0.06
		v-0.06h0.06v-0.19h0.06v-0.06h0.06v-0.13h0.13v-0.06h0.06v-0.19h0.06v-0.06h0.06v-0.13h0.06v-0.12h0.13v-0.13h0.06v-0.06h0.06
		v-0.19h0.06v-0.06h0.06v-0.12h0.06v-0.06h0.13v-0.19h0.06v-0.06h0.06v-0.06h0.06v-0.19h0.06v-0.06h0.13v-0.13h0.06v-0.06h0.06
		v-0.19h0.06v-0.06h0.06v-0.06h0.13v-0.06h0.06v-0.13h0.13v0.25H159v0.31h0.13v0.38h0.06v0.31h0.06v0.44h-0.06v0.13h-0.06v0.19H159
		v0.13h-0.06v0.13h-0.06v0.19h-0.06v0.06h-0.06v0.13h-0.13v0.19h-0.06v0.13h-0.06v0.19h-0.06v0.06h-0.06v0.12h-0.13v0.19h-0.06v0.13
		h-0.06v0.12h-0.06v0.06h-0.06v0.19h-0.13v0.13h-0.06v0.19h-0.06v0.13h-0.06v0.06h-0.06v0.19h-0.06v0.12h-0.13v0.13h-0.06v0.13
		h-0.06v0.13h-0.06v0.12h-0.06v0.19h-0.13v0.06h-0.06v0.12h-0.06v0.19h-0.06v0.12h-0.06v0.06h-0.13v0.19h-0.06v0.13h-0.06v0.06
		h-0.06v0.19h-0.06v0.13h-0.13v0.06h-0.06v0.19h-0.06v0.12h-0.06v0.19h-0.06v0.06h-0.13v0.13h-0.06v0.19h-0.06v0.06h-0.06v0.13
		h-0.06v0.06h-0.13v0.19h-0.06v0.13h-0.06v0.06h-0.06v0.19h-0.06v0.13h-0.13v0.06h-0.06v0.19h-0.06v0.13h-0.06v0.06h-0.06v0.19
		h-0.13v0.06h-0.06v0.13h-0.06v0.06h-0.06v0.19h-0.06v0.13h-0.13v0.06h-0.06v0.19h-0.06v0.06h-0.06v0.12h-0.06v0.13h-0.13v0.13
		h-0.06v0.06h-0.06v0.19h-0.06v0.06h-0.06V333h-0.06v0.06h-0.13v0.19h-0.06v0.06h-0.06v0.13h-0.06v0.13h-0.06v0.12h-0.13v0.06h-0.06
		v0.13h-0.06v0.13H153v0.13h-0.06v0.06h-0.13v0.19h-0.06v0.06h-0.06v0.12h-0.06v0.06h-0.06v0.13h-0.13v0.13h-0.06v0.06h-0.06v0.19
		h-0.06v0.06h-0.06v0.06h-0.13v0.13h-0.06v0.12h-0.06v0.13h-0.06v0.06h-0.06v0.06h-0.13v0.19h-0.06v0.06h-0.06v0.06h-0.06v0.19
		h-0.06v0.06h-0.13v0.06h-0.06v0.13h-0.06v0.13h-0.06v0.06h-0.06v0.13h-0.13v0.06h-0.06v0.13h-0.06v0.13h-0.06v0.06h-0.06v0.06
		h-0.13v0.12h-0.06v0.13h-0.06v0.06h-0.06v0.06h-0.06v0.06h-0.13v0.19h-0.06v0.06h-0.06v0.06h-0.06v0.06h-0.06v0.19h-0.06v0.06
		h-0.13v0.06h-0.06v0.06h-0.06v0.13h-0.06v0.13h-0.06v0.06h-0.13v0.06h-0.06V339h-0.06v0.06h-0.06v0.13h-0.06v0.06h-0.13v0.13h-0.06
		v0.06h-0.06v0.06h-0.06v0.06h-0.06v0.06h-0.13v0.19h-0.06v0.06h-0.06v0.06h-0.06v0.06h-0.06v0.12h-0.13v0.06h-0.06v0.06h-0.06v0.06
		h-0.06v0.06h-0.06v0.19h-0.13v0.06h-0.06v0.06h-0.06v0.06h-0.06v0.13h-0.06v0.06h-0.13v0.06h-0.06v0.06h-0.06v0.06h-0.06v0.13
		h-0.06v0.06h-0.13v0.06H147v0.06h-0.06v0.06h-0.06v0.06h-0.06v0.13h-0.13v0.06h-0.06v0.06h-0.06v0.06h-0.06v0.06h-0.06v0.12h-0.13
		v0.06h-0.06v0.06h-0.06v0.06h-0.06v0.06h-0.06v0.13h-0.06v0.06h-0.13v0.06h-0.06v0.06h-0.06v0.06h-0.06v0.13h-0.06v0.06h-0.13v0.06
		h-0.06v0.06h-0.06v0.06h-0.06v0.13h-0.06v0.06h-0.19v0.06h-0.06v0.06h-0.06v0.06h-0.06v0.13h-0.13v0.06h-0.06v0.06h-0.06v0.06
		h-0.06v0.06h-0.19v0.13h-0.06v0.06h-0.06v0.06h-0.06v0.06h-0.06v0.06h-0.13v0.12h-0.06v0.06h-0.13v0.06h-0.06v0.06h-0.13v0.06
		h-0.06v0.12h-0.06v0.06h-0.06v0.06h-0.06v0.06h-0.19V345h-0.06v0.12h-0.06v0.06h-0.06v0.06h-0.13v0.06h-0.06v0.06h-0.06v0.06h-0.06
		v0.13h-0.06v0.06h-0.13v0.06h-0.13v0.06h-0.06v0.06h-0.06v0.13h-0.13v0.06h-0.06v0.06h-0.06v0.06h-0.06v0.06h-0.06v0.13h-0.06v0.06
		h-0.13v0.06h-0.06v0.06h-0.06v0.06h-0.13v0.12h-0.13v0.06h-0.06v0.06h-0.06v0.06h-0.06v0.06H141v0.13h-0.13v0.06h-0.06v0.06h-0.06
		v0.06h-0.06v0.06h-0.06v0.13h-0.13v0.06h-0.06v0.06h-0.06v0.06h-0.06v0.06h-0.19v0.13h-0.06v0.06h-0.06v0.06h-0.06v0.06h-0.06v0.06
		h-0.13v0.13h-0.06v0.06h-0.06v0.06h-0.06v0.06h-0.06v0.06h-0.13v0.13h-0.06v0.06h-0.06v0.06h-0.13v0.06h-0.13v0.06h-0.06v0.13
		h-0.06v0.06h-0.06v0.06h-0.06v0.06h-0.13v0.06h-0.06v0.13h-0.06v0.06h-0.06v0.06h-0.19v0.06h-0.06v0.06h-0.06v0.06h-0.06v0.13
		h-0.06v0.06h-0.06v0.06h-0.13v0.06h-0.13v0.06h-0.06v0.13h-0.06v0.06h-0.13v0.06h-0.06v0.06h-0.06v0.06h-0.13v0.13h-0.13v0.06
		h-0.06v0.06h-0.06v0.06h-0.06v0.06h-0.19v0.13h-0.06V351h-0.06v0.06h-0.06v0.06h-0.06v0.06h-0.19v0.12h-0.06v0.06h-0.06v0.06h-0.19
		v0.06h-0.06v0.06h-0.06v0.13h-0.06v0.06h-0.19v0.06h-0.06v0.06h-0.06v0.06h-0.13v0.13h-0.13v0.06H135v0.06h-0.06v0.06h-0.06v0.06
		h-0.19v0.12h-0.06v0.06h-0.13v0.06h-0.13v0.06h-0.13v0.06h-0.06v0.12h-0.13v0.06h-0.13v0.06h-0.13v0.06h-0.06v0.06h-0.19v0.13
		h-0.13v0.06h-0.06v0.06h-0.19v0.06h-0.13v0.06h-0.06v0.06h-0.19v0.12h-0.13v0.06h-0.13v0.06h-0.19v0.06h-0.13v0.06h-0.19v0.13
		h-0.13v0.06h-0.13v0.06h-0.19v0.06h-0.13v0.06h-0.19v0.13h-0.19v0.06h-0.19v0.06h-0.19v0.06h-0.19v0.06h-0.19v0.12h-0.25v0.06
		h-0.19v0.06h-0.25v0.06h-0.32v0.06h-0.25v0.13h-0.38v0.06h-0.5v0.06h-2.09v-0.06h-0.44v-0.06h-0.32v-0.13h-0.32v-0.06h-0.19v-0.06
		h-0.25v-0.06h-0.13v-0.06h-0.25v-0.12h-0.13v-0.06h-0.19v-0.06h-0.13v-0.06h-0.19v-0.06h-0.06v-0.13h-0.13v-0.06h-0.19v-0.06h-0.06
		v-0.06H123v-0.06h-0.06v-0.13h-0.13v-0.06h-0.13v-0.06h-0.06v-0.06h-0.06v-0.06h-0.13v-0.12h-0.13v-0.06h-0.06v-0.06h-0.06v-0.06
		h-0.06v-0.06h-0.13v-0.06h-0.06v-0.13h-0.06v-0.06h-0.06v-0.06h-0.06v-0.06h-0.13v-0.06h-0.06v-0.19h-0.06v-0.13h-0.06v-0.19h-0.06
		v-0.13h-0.13v-0.25h-0.06v-0.12h-0.06v-0.25h-0.06v-0.12h-0.06v-0.25h-0.13v-0.13h-0.06v-0.25h-0.06v-0.19h-0.06v-0.25h-0.06v-0.32
		h-0.13v-0.19h-0.06v-0.25h-0.06v-0.25h-0.06v-0.32h-0.06v-0.25h-0.13v-0.32h-0.06v-0.25h-0.06v-0.32h-0.06v-0.25h-0.06v-0.31h-0.13
		v-0.25h-0.06v-0.25h-0.06v-0.25h-0.06v-0.25h-0.06v-0.25h-0.13v-0.25h-0.06v-0.25h-0.06v-0.25h-0.06v-0.19h-0.06v-0.31h-0.13v-0.25
		h-0.06v-0.31h-0.06v-0.25h-0.06v-0.25h-0.06v-0.32h-0.13v-0.32h-0.06v-0.19h-0.06v-0.32h-0.06v-0.32h-0.06v-0.31h-0.06v-0.25h-0.13
		v-0.31h-0.06v-0.32h-0.06v-0.32h-0.06v-0.25h-0.06v-0.32h-0.13v-0.32h-0.06v-0.32h-0.06v-0.32h-0.06V339h-0.06v-0.32h-0.13v-0.32
		h-0.06v-0.31h-0.06v-0.32h-0.06v-0.25h-0.06v-0.31H117v-0.38h-0.06v-0.32h-0.06v-0.44h-0.06v-0.38h-0.06v-0.44h-0.13v-0.63h-0.06
		v-0.69h-0.06v-3.22h0.06v-0.82h0.06v-1.77h0.13v-6.38h0.06v-2.71h0.06v-1.58h0.06v-1.07H117v-0.95h0.13v-0.76h0.06v-0.57h0.06
		v-0.51h0.06v-0.57h0.06v-0.44h0.13v-0.44h0.06v-0.57h0.06v-0.57h0.06v-0.63h0.06v-0.51h0.13v-0.63h0.06v-0.57h0.06v-0.63h0.06
		v-0.51h0.06v-0.57h0.13v-0.57h0.06v-0.51h0.06v-0.57h0.06v-0.44h0.06v-0.51h0.06v-0.51h0.13v-0.44h0.06v-0.44h0.06v-0.44h0.06
		v-0.38h0.06v-0.38h0.13v-0.38h0.06v-0.32h0.06v-0.32h0.06v-0.25h0.06v-0.25h0.13v-0.32h0.06v-0.19h0.06v-0.25h0.06v-0.25h0.06
		v-0.19h0.13v-0.25h0.06v-0.19h0.06v-0.25h0.06v-0.12h0.06v-0.25h0.13v-0.12h0.06v-0.25h0.06v-0.13h0.06v-0.19h0.06v-0.19h0.13
		v-0.19h0.06v-0.12h0.06v-0.13h0.06v-0.19h0.06v-0.13h0.13v-0.19h0.06v-0.13h0.06v-0.12h0.06v-0.19h0.06v-0.13h0.13v-0.19h0.06
		v-0.06h0.06v-0.13h0.06v-0.19h0.06v-0.13h0.13v-0.06h0.06v-0.19h0.06v-0.06h0.06v-0.12h0.06v-0.06h0.13v-0.19h0.06v-0.06h0.06
		v-0.13h0.06v-0.06h0.06v-0.19h0.06v-0.06h0.13v-0.12h0.06v-0.13h0.06v-0.06h0.06v-0.13h0.06v-0.06h0.13v-0.12H123v-0.06h0.06v-0.13
		h0.06v-0.06h0.06v-0.12h0.13v-0.06h0.06v-0.06h0.06v-0.13h0.06v-0.13h0.06v-0.06h0.13v-0.06h0.06v-0.06h0.06v-0.06h0.06v-0.13h0.06
		v-0.06h0.13v-0.06h0.06v-0.06h0.06v-0.06h0.13v-0.13h0.13v-0.06h0.06v-0.06h0.06v-0.06h0.06v-0.06h0.19v-0.13h0.06v-0.06h0.13V291
		h0.06v-0.06h0.13v-0.06h0.13v-0.13h0.06v-0.06h0.19v-0.06h0.06v-0.06h0.13v-0.06h0.19v-0.12h0.13v-0.06h0.13v-0.06h0.32V290.18
		L126.54,290.18z"/>
	<path class="st0" d="M173.28,341.97v0.06h-0.19v0.12h-0.06v0.06h-0.06v0.06h-0.13v0.13h-0.06v0.06h-0.06v0.06h-0.13v0.12h-0.06
		v0.06h-0.06v0.06h-0.13v0.13h-0.06v0.06h-0.13v0.13h-0.06v0.06h-0.06v0.06h-0.13v0.13h-0.06v0.06h-0.06v0.06h-0.13v0.13h-0.06v0.06
		h-0.06v0.06h-0.13v0.12h-0.06v0.06h-0.06v0.12h-0.13v0.06h-0.06v0.06h-0.13v0.13h-0.06v0.06h-0.06v0.19h-0.13v0.06h-0.06v0.06
		h-0.06v0.13h-0.13v0.06h-0.06v0.06h-0.06v0.13h-0.13v0.06h-0.06v0.19h-0.13v0.06h-0.06v0.12h-0.06v0.06h-0.13v0.06h-0.06v0.19
		h-0.06v0.06h-0.13v0.13h-0.06v0.06h-0.06v0.12h-0.13v0.13h-0.06v0.13h-0.13v0.06h-0.06v0.06h-0.06v0.19h-0.13v0.06h-0.06v0.13
		h-0.06v0.19h-0.13v0.06h-0.06v0.06h-0.06v0.13h-0.13v0.13h-0.06v0.12h-0.06v0.06h-0.13v0.19h-0.06v0.06h-0.13v0.06h-0.06v0.19
		h-0.06v0.12h-0.13v0.13h-0.06v0.13h-0.06v0.06h-0.13v0.19h-0.06v0.06h-0.06v0.19h-0.13v0.06h-0.06v0.13h-0.13v0.13h-0.06v0.12
		h-0.06v0.13h-0.13v0.13h-0.06v0.12h-0.06v0.13h-0.13v0.06h-0.06v0.19h-0.06v0.06h-0.13v0.19h-0.06v0.06h-0.06v0.19h-0.13v0.06
		h-0.06v0.19h-0.13v0.06h-0.06v0.19h-0.06v0.19h-0.13v0.19h-0.06v0.13h-0.06v0.19h-0.13v0.19h-0.06v0.19h-0.06v0.25h-0.13v0.25
		h-0.06v0.25h-0.13v0.25h-0.06v0.32h-0.06v0.38h-0.13v0.44h-0.06v0.38h-0.06v0.69h-0.13v0.69h0.13v0.63h0.06v0.25h0.06v0.25h0.13
		v0.19h0.06v0.12h0.06v0.19h0.13v0.06h0.06v0.19h0.13v0.06h0.06v0.13h0.06v0.19h0.13v0.06h0.06v0.06h0.06v0.12h0.19v0.06h0.06v0.06
		h0.13v0.13h0.19v0.06h0.06v0.06h0.19v0.12h0.13v0.06h0.19v0.13h0.19v0.06h0.13v0.06h0.32v0.13h0.32v0.06h0.44v0.06h2.21v-0.06h0.5
		v-0.06h0.38v-0.13h0.32v-0.06h0.38v-0.06h0.25v-0.13h0.13v-0.06h0.32v-0.12h0.13v-0.06h0.25v-0.06h0.19v-0.13h0.19v-0.06h0.19
		v-0.06h0.13v-0.12h0.19v-0.06h0.06v-0.06h0.19v-0.13h0.19v-0.06h0.06v-0.13h0.19v-0.06h0.06v-0.06h0.13v-0.13h0.13v-0.06h0.13
		v-0.06h0.06v-0.13h0.06v-0.06h0.19v-0.06h0.06v-0.13h0.13v-0.06h0.06v-0.12h0.13v-0.06h0.06v-0.19h0.06V357h0.13v-0.06h0.06v-0.13
		h0.06v-0.13h0.13v-0.13h0.06v-0.12h0.06v-0.13h0.13v-0.19h0.06v-0.13h0.13v-0.19h0.06v-0.19h0.06v-0.12h0.13v-0.19h0.06v-0.19h0.06
		v-0.25H177v-0.19h0.06v-0.25h0.06v-0.25h0.13v-0.25h0.06v-0.25h0.13v-0.32h0.06v-0.44h0.06v-0.51h0.13v-2.46h-0.13v-0.5h-0.06
		v-0.44h-0.06v-0.38h-0.13v-0.44h-0.06v-0.44h-0.13v-0.32h-0.06v-0.38H177v-0.32h-0.13v-0.25h-0.06v-0.25h-0.06v-0.32h-0.13v-0.25
		h-0.06v-0.13h-0.06v-0.19h-0.13v-0.19h-0.06v-0.19h-0.13v-0.12h-0.06v-0.19h-0.06v-0.19h-0.13v-0.06h-0.06v-0.19h-0.06v-0.06h-0.13
		v-0.19h-0.06v-0.06h-0.06v-0.12h-0.13v-0.13h-0.06v-0.13h-0.13v-0.06h-0.06v-0.06h-0.06v-0.13h-0.13v-0.06h-0.06v-0.06h-0.06v-0.13
		h-0.13v-0.06h-0.06v-0.13h-0.06v-0.06h-0.13v-0.06h-0.13v-0.12h-0.13v-0.06h-0.06v-0.06h-0.19v-0.13h-0.06v-0.06h-0.19v-0.06h-0.06
		v-0.12h-0.19v-0.06H173.28L173.28,341.97z M161.97,283.42h3.6v0.06h0.76v0.13h0.57v0.06h0.57v0.06h0.38v0.12h0.38v0.06h0.44v0.12
		h0.32v0.06h0.38v0.06h0.25v0.13h0.32v0.06h0.25v0.06h0.25v0.13h0.25v0.06h0.25v0.06h0.32v0.13h0.25v0.06h0.32v0.06h0.44v0.13h0.51
		v0.06h0.32v0.12h0.38v0.06h0.32v0.06h0.25v0.13h0.32v0.06h0.25v0.06h0.25v0.13h0.25v0.06h0.25v0.06h0.19v0.13h0.25v0.06h0.13v0.12
		h0.19v0.06h0.19v0.06h0.25v0.13h0.19v0.06h0.06v0.06H177v0.12h0.13v0.06h0.19v0.06h0.19v0.13h0.19v0.06h0.06v0.13h0.19v0.06h0.06
		v0.06h0.19v0.13h0.13v0.06h0.13v0.06h0.19v0.12h0.06v0.06h0.19v0.06h0.06v0.13h0.06v0.06h0.19v0.06h0.06v0.12h0.13v0.06h0.19v0.13
		h0.06v0.06h0.06v0.06h0.13v0.13h0.13v0.06h0.13v0.06h0.06v0.13h0.06v0.06h0.13v0.06h0.19v0.13h0.06v0.06h0.06v0.13h0.13v0.06h0.06
		v0.06h0.06v0.12h0.13v0.06h0.06v0.06h0.06v0.13h0.13v0.06h0.06v0.06h0.06v0.13h0.13v0.06h0.19v0.12h0.06v0.13h0.06v0.12h0.13v0.06
		h0.06v0.06h0.06v0.13h0.13v0.06h0.06v0.06h0.06V291h0.13v0.06h0.06v0.06h0.13v0.13h0.06v0.06h0.06v0.13h0.13v0.06H183v0.19h0.06
		v0.06h0.13v0.06h0.06v0.13h0.06v0.06h0.13v0.06h0.06v0.19h0.13v0.13h0.06v0.06h0.06v0.06h0.13v0.19h0.06v0.06h0.06v0.13h0.13v0.06
		h0.06v0.19h0.06v0.06h0.13v0.13h0.06v0.06h0.06v0.19h0.13v0.06h0.06v0.06h0.13v0.19h0.06v0.06h0.06v0.13h0.13v0.12h0.06v0.13h0.06
		v0.06h0.13v0.19h0.06v0.06h0.06v0.13h0.13v0.13h0.06v0.12h0.13v0.13h0.06v0.13h0.06v0.06h0.13v0.19h0.06v0.06h0.06v0.19h0.13v0.06
		h0.06v0.19h0.06v0.19h0.13v0.19h0.06v0.13h0.13v0.19h0.06v0.19h0.06v0.12h0.13v0.25h0.06v0.32h0.06v0.25h0.13v0.25h0.06v0.31h0.06
		v0.38h0.13v0.38h0.06v0.69h0.06v2.34h-0.06v0.69h-0.06v0.44h-0.13v0.44h-0.06v0.32h-0.06v0.25h-0.13v0.25h-0.06v0.25h-0.06v0.25
		h-0.13v0.25h-0.06v0.19h-0.06v0.25h-0.13v0.19h-0.06v0.19h-0.13v0.13h-0.06v0.19h-0.06v0.19h-0.13v0.06h-0.06v0.19h-0.06v0.19
		h-0.13v0.06h-0.06v0.19h-0.06v0.06h-0.13v0.19h-0.06v0.06h-0.13v0.13h-0.06v0.13h-0.06v0.12h-0.13v0.06h-0.06v0.06h-0.06v0.13
		h-0.13v0.06h-0.06v0.06h-0.06v0.12h-0.13v0.06h-0.06v0.13h-0.13v0.06h-0.06v0.06h-0.19v0.13h-0.06v0.06h-0.19v0.06h-0.06v0.13
		h-0.19v0.06h-0.13v0.06h-0.13v0.13h-0.19v0.06h-0.25v0.06h-0.13v0.13h-0.25v0.06h-0.32v0.13h-0.25v0.06h-0.38v0.06h-0.63v0.13h-1.2
		v-0.13h-0.5v-0.06h-0.44v-0.06h-0.25v-0.13h-0.25v-0.06h-0.25v-0.13h-0.19v-0.06h-0.19v-0.06h-0.13v-0.13h-0.19v-0.06h-0.19v-0.06
		h-0.06v-0.13h-0.13v-0.06H177v-0.06h-0.13v-0.13h-0.06v-0.06h-0.06v-0.06h-0.19v-0.13h-0.06v-0.06h-0.13v-0.12h-0.06v-0.13h-0.13
		v-0.13h-0.06v-0.06h-0.06v-0.19h-0.13v-0.06h-0.06v-0.19h-0.06v-0.19h-0.13v-0.25h-0.06v-0.13h-0.06v-0.25h-0.13v-0.32h-0.06v-0.13
		h-0.13v-0.25h-0.06v-0.25h-0.06v-0.38h-0.13v-0.51h0.13v-0.63h0.06v-0.38h0.06v-0.38h0.13v-0.32h0.06v-0.25h0.13v-0.38h0.06v-0.25
		h0.06v-0.32h0.13v-0.38h0.06v-0.06H177v0.06h0.13v0.13h0.19v0.06h0.13v0.06h0.06v0.13h0.19v0.06h0.06v0.06h0.06v0.13h0.13v0.06
		h0.13v0.13h0.13v0.06h0.06v0.06h0.19v0.12h0.06v0.06h0.19V303h0.19v0.13h0.13v0.06h0.82v-0.06h0.13V303h0.19v-0.06h0.19v-0.06h0.06
		v-0.12h0.13v-0.06h0.06v-0.06h0.06v-0.13h0.13v-0.19h0.06v-0.06h0.06v-0.19h0.13v-0.25h0.06v-0.25h0.06v-0.32h0.13v-1.9h-0.13
		v-0.51h-0.06v-0.25h-0.06v-0.32h-0.13v-0.25h-0.06v-0.13h-0.06v-0.19h-0.13v-0.19h-0.06v-0.06h-0.06v-0.19h-0.13v-0.06h-0.06v-0.13
		h-0.13v-0.12h-0.13v-0.13h-0.13v-0.06h-0.06v-0.06h-0.06v-0.12h-0.13v-0.06h-0.13v-0.06h-0.13v-0.13h-0.06v-0.06h-0.19v-0.13h-0.06
		v-0.06h-0.13v-0.06h-0.13v-0.12h-0.19v-0.06h-0.06v-0.06h-0.19v-0.13h-0.19v-0.06h-0.19v-0.06h-0.13v-0.13h-0.19v-0.06h-0.19v-0.13
		h-0.13v-0.06h-0.32v-0.06H177v-0.12h-0.25v-0.06h-0.38v-0.06h-0.32v-0.13h-0.44v-0.06h-0.5v-0.06h-1.71v-0.12h-0.57v0.12h-1.58
		v0.06h-0.82v0.06h-0.5v0.13h-0.51v0.06h-0.44v0.06h-0.32v0.12h-0.38v0.06h-0.25v0.06h-0.32v0.13h-0.25v0.06h-0.25v0.13h-0.19v0.06
		h-0.25v0.06h-0.25v0.13h-0.19v0.06h-0.19v0.06h-0.13v0.12h-0.32v0.06h-0.13v0.06h-0.19v0.13h-0.19v0.06h-0.13v0.13h-0.13v0.06
		h-0.19v0.06h-0.13v0.12h-0.19v0.06h-0.06v0.06h-0.19v0.13h-0.19V297h-0.06v0.06h-0.19v0.13h-0.06v0.06h-0.19v0.06h-0.06v0.12h-0.13
		v0.06h-0.13v0.13h-0.13v0.06h-0.06v0.06h-0.19v0.13h-0.06v0.06h-0.13v0.06h-0.06v0.13h-0.19v0.06h-0.06v0.06h-0.06v0.13h-0.13v0.06
		h-0.06v0.13h-0.06v0.06h-0.19v0.06h-0.13v0.12h-0.06v0.06h-0.06v0.06h-0.13v0.13h-0.06v0.06h-0.06v0.06h-0.13v0.13h-0.06v0.06
		h-0.06v0.13h-0.13v0.06h-0.06v0.06h-0.13v0.19h-0.06v0.06h-0.06v0.13h-0.13v0.06h-0.06v0.06h-0.06v0.12h-0.13v0.06h-0.06v0.19
		h-0.06v0.06h-0.13v0.13h-0.06v0.06h-0.06v0.19h-0.13v0.06h-0.06v0.06h-0.13v0.13h-0.06v0.13h-0.06v0.12h-0.13v0.19h-0.06v0.06
		h-0.06v0.19H159v0.12h-0.06v0.13h-0.06v0.13h-0.13v0.19h-0.06v0.25h-0.13v0.19h-0.06v0.25h-0.06v0.31h-0.13v0.44h-0.06v0.63h-0.06
		v1.77h0.06v0.69h0.06v0.5h0.13v0.38h0.06v0.31h0.06v0.38h0.13v0.25h0.06v0.25h0.13v0.25h0.06v0.19H159v0.25h0.13v0.19h0.06v0.13
		h0.06v0.19h0.13v0.19h0.06v0.13h0.06v0.19h0.13v0.19h0.06v0.19h0.13v0.06h0.06v0.19h0.06v0.13h0.13v0.13h0.06v0.12h0.06v0.13h0.13
		v0.19h0.06v0.06h0.06v0.19h0.13v0.06h0.06v0.06h0.06v0.19h0.13v0.06h0.06v0.12h0.13v0.06h0.06v0.13h0.06v0.06h0.13v0.19h0.06v0.06
		h0.06v0.06h0.13v0.12h0.06v0.06h0.06v0.06h0.13v0.13h0.06v0.06h0.19v0.13h0.06v0.06h0.13v0.06h0.06v0.13h0.06v0.06h0.19v0.06h0.06
		v0.13h0.13v0.06h0.19v0.06h0.06v0.13h0.19v0.06h0.06v0.06h0.19v0.12h0.13v0.06h0.19v0.13h0.19v0.06h0.19v0.06h0.13v0.12h0.19v0.06
		h0.25v0.06h0.25v0.13h0.25v0.06h0.25v0.06h0.25v0.13h0.32v0.06h0.25v0.13h0.13v0.06h0.25v0.06h0.19v0.12h0.25v0.06h0.19v0.06h0.19
		v0.13h0.25v0.06h0.13v0.06h0.19v0.12h0.19v0.06h0.19v0.13h0.13v0.06h0.19v0.06h0.19v0.13h0.13v0.06h0.19v0.06h0.19v0.13h0.06v0.06
		h0.19v0.06h0.19v0.12h0.13v0.06h0.13v0.06h0.19v0.13h0.06v0.06h0.19v0.13h0.13v0.06h0.13v0.06h0.13v0.13h0.13v0.06h0.19v0.06h0.06
		v0.13h0.19v0.06h0.06v0.06h0.06v0.12h0.19v0.06h0.06v0.12h0.13v0.06h0.13v0.06h0.13v0.13h0.06v0.06h0.19v0.06h0.06v0.13h0.13v0.06
		h0.06v0.06h0.19v0.13h0.06v0.06h0.06v0.12h0.13v0.06h0.19v0.06h0.06v0.13h0.06v0.06h0.13v0.06h0.06v0.12h0.06v0.06h0.13v0.06h0.13
		V321h0.13v0.06h0.06v0.06h0.13v0.13h0.06v0.06h0.06v0.13h0.13v0.06h0.06v0.06h0.06v0.13h0.13v0.06h0.06v0.06h0.06v0.12h0.13v0.06
		h0.06v0.06h0.06v0.13h0.13v0.06h0.06v0.13h0.13v0.06h0.06v0.06h0.06v0.13h0.13v0.06h0.06v0.06h0.06v0.13h0.13v0.06h0.06v0.06h0.06
		v0.13h0.13v0.06h0.06v0.19h0.13v0.06h0.06v0.12h0.06v0.06h0.13v0.06h0.06v0.13h0.06v0.06H177v0.06h0.06v0.19h0.06v0.06h0.13v0.13
		h0.06v0.06h0.13v0.13h0.06v0.06h0.06v0.06h0.13v0.19h0.06v0.06h0.06v0.13h0.13v0.06h0.06v0.06h0.06v0.12h0.13v0.19h0.06v0.06h0.06
		v0.06h0.13v0.12h0.06v0.06h0.13v0.06h0.06v0.19h0.06v0.06h0.13v0.12h0.06v0.06h0.06v0.13h0.13v0.06h0.06v0.19h0.06v0.06h0.13v0.06
		h0.06v0.13h0.13V327h0.06v0.19h0.06v0.06h0.13v0.06h0.06v0.13h0.06v0.06h0.13v0.12h0.06v0.13h0.06v0.13h0.13v0.06h0.06v0.06h0.13
		v0.13h0.06v0.13h0.06v0.13h0.13v0.06h0.06v0.12h0.06v0.06h0.25v-0.06h0.19v-0.12h0.25v-0.06h0.19v-0.13h0.25v-0.06h0.19v-0.06h0.25
		v-0.13h0.19v-0.06h0.13v-0.06h0.25v-0.13h0.13v-0.06h0.13v-0.06h0.19v-0.12h0.13v-0.06h0.13v-0.13h0.13v-0.06h0.06v-0.06h0.19
		v-0.13h0.06V327h0.19v-0.06h0.06v-0.13h0.06v-0.06h0.19v-0.06h0.13v-0.13h0.06v-0.06h0.19v-0.06h0.06v-0.13h0.06v-0.06h0.19v-0.12
		h0.06v-0.06h0.19v-0.06h0.13v-0.13h0.06v-0.06h0.19v-0.06h0.06v-0.12h0.06v-0.06h0.19v-0.06h0.06v-0.13h0.13v-0.06h0.19v-0.12h0.06
		v-0.06h0.06v-0.06h0.19v-0.13h0.06v-0.06h0.13v-0.06h0.13v-0.12h0.13v-0.06h0.06v-0.06h0.19v-0.13h0.06v-0.06h0.13v-0.13h0.06
		v-0.06h0.19v-0.06h0.06v-0.13h0.06v-0.06h0.19v-0.06h0.06v-0.13h0.13v-0.06h0.19v-0.06h0.06v-0.12H189v-0.06h0.13v-0.06h0.13v-0.13
		h0.13v-0.06h0.06v-0.13h0.19v-0.06h0.06v-0.06h0.13v-0.13h0.06v-0.06h0.19v-0.06h0.06v-0.13h0.06v-0.06h0.13v-0.06h0.13v-0.13h0.13
		v-0.06h0.06v-0.13h0.06v-0.06h0.19v-0.06h0.13v-0.12h0.06v-0.06h0.06v-0.06h0.19v-0.13h0.06v-0.06h0.13v-0.06h0.06v-0.13h0.06
		v-0.06h0.19v-0.13h0.13v-0.06h0.06V321h0.06v-0.13h0.19v-0.06h0.06v-0.06h0.13v-0.12h0.06v-0.06h0.06v-0.06h0.13v-0.13h0.19v-0.06
		h0.06v-0.06h0.06v-0.12h0.13v-0.06h0.06v-0.13h0.19v-0.06h0.06v-0.06h0.06v-0.13h0.13v-0.06h0.06v-0.06h0.06v-0.13h0.13v-0.06h0.19
		v-0.06h0.06v-0.12h0.06v-0.06h0.13v-0.12h0.06v-0.06h0.06v-0.06h0.13v-0.13h0.13v-0.06h0.13v-0.06h0.06v-0.13h0.13v-0.06h0.06
		v-0.06h0.06v-0.13h0.13v-0.06h0.06v-0.13h0.06v-0.06h0.13v-0.06h0.13v-0.12h0.13v-0.06h0.06v-0.06h0.06v-0.13h0.13v-0.06h0.06
		v-0.06h0.13v-0.13h0.06v-0.06h0.06v-0.06h0.13v-0.13h0.06v-0.06h0.06v-0.12h0.13v-0.06h0.06v-0.06h0.06v-0.13h0.19v-0.06h0.13
		v-0.06h0.06v-0.12h0.06v-0.06h0.13v-0.06h0.06v-0.13h0.06v-0.06h0.13v-0.13h0.06v-0.06h0.06v-0.06h0.13v-0.13h0.06v-0.06h0.13
		v-0.06h0.06v-0.12h0.06v-0.06h0.13v-0.06h0.06v-0.13h0.06v-0.06h0.13v-0.12h0.06v-0.06h0.06v-0.06h0.13v-0.19h0.06v-0.06h0.06
		v-0.13h0.13v-0.06h0.06v-0.06h0.13v-0.13h0.06v-0.06h0.06v-0.06h0.13v-0.13h0.06v-0.06h0.06v-0.13h0.13v-0.06h0.06v-0.06h0.06
		v-0.12h0.13v-0.13h0.06v-0.13h0.13v-0.06h0.06v-0.06h0.06v-0.13h0.13v-0.06h0.06v-0.12h0.06v-0.06h0.13v-0.06h0.06v-0.19h0.06
		v-0.06h0.13v-0.13h0.06v-0.06h0.13v-0.06h0.06v-0.12h0.06v-0.06h0.13v-0.19h0.06v-0.06h0.06v-0.13h0.13v-0.06h0.06v-0.06h0.06
		v-0.12h0.13v-0.06h0.06v-0.06h0.06v-0.13h0.13v-0.06h0.06v-0.06h0.13v-0.12h0.06v-0.06h0.06v-0.13h0.13v-0.06h0.06v-0.06h0.06
		v-0.13h0.13v-0.06h0.06v-0.06h0.06v-0.13h0.19v-0.06h0.13v-0.06h0.06v-0.13h0.06v-0.06h0.13v-0.13h0.06v-0.06h0.19v-0.06h0.25
		v-0.13h1.26v0.13h0.13v0.25h-0.13v0.32h-0.06v0.38h-0.13v0.32h-0.06v0.25h-0.06v0.19h-0.13v0.19h-0.06v0.06h-0.06v0.06h-0.13v0.13
		h-0.06v0.06h-0.06v0.19h-0.13v0.06h-0.06v0.12h-0.06v0.06h-0.13v0.19h-0.06v0.06h-0.13v0.06h-0.06v0.12h-0.06v0.13h-0.13v0.12
		h-0.06v0.06h-0.06v0.13h-0.13v0.12h-0.06v0.13h-0.06v0.06h-0.13v0.06h-0.06v0.12h-0.13v0.13h-0.06v0.13h-0.06v0.06h-0.13v0.13
		h-0.06v0.12h-0.06v0.13h-0.13v0.06h-0.06v0.06h-0.06v0.13h-0.13v0.12h-0.06v0.13h-0.13v0.06h-0.06v0.06h-0.06v0.12h-0.13v0.19
		h-0.06v0.06h-0.06v0.06h-0.13v0.12h-0.06v0.06h-0.06v0.19h-0.13v0.06h-0.06v0.06h-0.06v0.13h-0.13v0.06h-0.06v0.19h-0.13v0.06
		h-0.06v0.12h-0.06v0.06h-0.13v0.06h-0.06v0.13h-0.06v0.13h-0.13v0.12h-0.06v0.06h-0.06v0.13h-0.13v0.06h-0.06v0.06h-0.13v0.13
		h-0.06v0.12h-0.06v0.13h-0.13v0.06h-0.06v0.06h-0.06v0.12h-0.13v0.06h-0.06v0.06h-0.06v0.13h-0.13v0.19h-0.06v0.06h-0.13v0.06
		h-0.06v0.13h-0.06v0.06h-0.13v0.06h-0.06v0.13h-0.06v0.06h-0.13v0.06h-0.06v0.12h-0.06v0.06h-0.13v0.19h-0.06v0.06h-0.06v0.13
		h-0.13v0.06h-0.06v0.06h-0.13v0.13h-0.06v0.06h-0.06v0.06h-0.13v0.13h-0.06v0.06h-0.06v0.12h-0.13v0.06h-0.06v0.06h-0.06v0.13
		h-0.13v0.06h-0.06v0.06h-0.13v0.12h-0.06v0.06h-0.06v0.06h-0.13V321h-0.06v0.06h-0.06v0.06h-0.13v0.13h-0.06v0.06h-0.06v0.13h-0.13
		v0.06h-0.06v0.06h-0.13v0.13h-0.06v0.06h-0.06v0.06h-0.19v0.12h-0.06v0.06h-0.13v0.06h-0.06v0.13h-0.06v0.06h-0.13v0.13h-0.06v0.06
		h-0.06v0.06h-0.13v0.13h-0.06v0.06h-0.19v0.06h-0.06v0.13h-0.13v0.06h-0.06v0.06h-0.06v0.13h-0.13v0.06h-0.06v0.13h-0.19v0.06
		h-0.06v0.06h-0.13v0.12h-0.06v0.06h-0.19v0.06h-0.06v0.13h-0.06v0.06h-0.13v0.06h-0.06v0.13h-0.19v0.06h-0.06v0.06h-0.06v0.13
		h-0.19v0.06h-0.13v0.13h-0.06v0.06h-0.19v0.06h-0.06v0.12h-0.06v0.06h-0.19v0.06h-0.06v0.13h-0.13v0.06h-0.19v0.06h-0.06v0.12
		h-0.19v0.06h-0.06v0.13h-0.06v0.06h-0.19v0.06h-0.06v0.12h-0.19v0.06h-0.13v0.06h-0.13v0.13h-0.13v0.06h-0.13v0.06h-0.13v0.12
		h-0.13v0.06h-0.13v0.13h-0.13v0.06h-0.13v0.06h-0.06v0.13h-0.19v0.06h-0.06v0.06h-0.13v0.13h-0.06V327H189v0.06h-0.06v0.13h-0.06
		v0.06h-0.13v0.06h-0.06v0.13h-0.13v0.06h-0.06v0.12h-0.06v0.06h-0.13v0.06h-0.06v0.13h-0.06v0.06h-0.13v0.06h-0.06v0.13h-0.06v0.06
		h-0.13v0.06h-0.06v0.13h-0.13v0.06h-0.06v0.12h-0.06v0.06h-0.13v0.06h-0.06v0.13h-0.06v0.06h-0.13v0.06h-0.06v0.12h-0.06v0.06
		h-0.13v0.06h-0.06v0.13h-0.06v0.06h-0.13v0.13h-0.06v0.06h-0.13v0.06h-0.06v0.13h-0.06v0.06h-0.13v0.06h-0.06v0.12h-0.06v0.06
		h-0.13v0.06h-0.06v0.13h-0.06v0.06h-0.13v0.06h-0.06v0.12h-0.13v0.06h-0.06v0.13h-0.06v0.06h-0.13v0.06h-0.06v0.13h-0.06v0.06
		h-0.13v0.06h-0.06v0.13h-0.06v0.06h-0.13v0.06h-0.06v0.19h-0.13v0.13h-0.06v0.06h-0.06v0.19h-0.13v0.06h-0.06v0.19h-0.06v0.12
		h-0.13v0.19h-0.06v0.19h-0.06v0.44h-0.13v0.57h0.13v0.51h0.06v0.38h0.06v0.32h0.13v0.25h0.06v0.19h0.06v0.25h0.13v0.19h0.06v0.25
		h0.06v0.19h0.13v0.25h0.06v0.12h0.13v0.19h0.06v0.25h0.06v0.19h0.13v0.19h0.06v0.25h0.06v0.19h0.13v0.12h0.06v0.19h0.06v0.25h0.13
		v0.19h0.06v0.25h0.13v0.19h0.06v0.25h0.06v0.25h0.13v0.32h0.06v0.25h0.06v0.38h0.13v0.44h0.06v0.38h0.06v0.44h0.13v0.51h0.06v0.69
		h0.13v0.69h0.06v0.88h0.06v1.33h0.13v1.64h-0.13v1.2h-0.06v0.7h-0.06v0.63h-0.13v0.44h-0.06v0.32h-0.13v0.32h-0.06v0.38h-0.06v0.25
		h-0.13v0.31h-0.06v0.32h-0.06v0.13h-0.13v0.25h-0.06v0.19h-0.06v0.25h-0.13v0.19h-0.06v0.19h-0.13v0.13h-0.06v0.19h-0.06v0.19
		h-0.13v0.12h-0.06v0.19h-0.06v0.19h-0.13v0.06h-0.06v0.19h-0.06v0.19h-0.13v0.06h-0.06v0.19h-0.13v0.06h-0.06v0.19h-0.06v0.06
		h-0.13v0.13h-0.06v0.13h-0.06v0.12h-0.13v0.06h-0.06v0.19h-0.06v0.06h-0.13v0.13h-0.06v0.06h-0.06v0.19h-0.13v0.06h-0.06v0.06
		h-0.13v0.13h-0.06V357h-0.06v0.06h-0.13v0.13H183v0.06h-0.06v0.06h-0.13v0.12h-0.06v0.06h-0.06v0.13h-0.13v0.06h-0.06v0.06h-0.13
		v0.13h-0.06v0.06h-0.06v0.06h-0.13v0.13h-0.06v0.06h-0.06v0.06h-0.13v0.13h-0.06v0.06h-0.19v0.13h-0.06v0.06h-0.13v0.06h-0.06v0.12
		h-0.06v0.06h-0.19v0.06h-0.06v0.13h-0.13v0.06h-0.06v0.06h-0.19v0.12h-0.06v0.06h-0.06v0.13h-0.19v0.06h-0.13v0.06h-0.06v0.13
		h-0.19v0.06h-0.06v0.06h-0.19v0.13h-0.06v0.06h-0.19v0.06h-0.06v0.12h-0.19v0.06h-0.06v0.06h-0.19v0.13h-0.06v0.06h-0.19v0.13
		h-0.19v0.06h-0.06v0.06h-0.19v0.12h-0.19v0.06h-0.06v0.06h-0.19v0.13h-0.13v0.06h-0.13v0.06h-0.13v0.13h-0.19v0.06h-0.19v0.12
		h-0.19v0.06h-0.13v0.06h-0.13v0.13h-0.13v0.06h-0.19v0.06h-0.19v0.13h-0.19v0.06h-0.13v0.06h-0.19v0.13h-0.19v0.06h-0.19v0.12
		h-0.13v0.06h-0.25v0.06h-0.19v0.13h-0.19v0.06h-0.13V363h-0.32v0.12h-0.13v0.06h-0.25v0.06h-0.25v0.13h-0.19v0.06h-0.38v0.06h-0.25
		v0.13h-0.25v0.06h-0.32v0.13h-0.38v0.06h-0.32v0.06h-0.44v0.13h-0.51v0.06h-2.53v-0.06h-0.5v-0.13h-0.32v-0.06h-0.38v-0.06h-0.25
		v-0.13h-0.25v-0.06h-0.25v-0.13h-0.19v-0.06h-0.13v-0.06h-0.19v-0.13h-0.19v-0.06h-0.13v-0.06h-0.19V363h-0.13v-0.06h-0.13v-0.06
		h-0.13v-0.13h-0.13v-0.06h-0.13v-0.06h-0.13v-0.12h-0.13v-0.06h-0.06v-0.13h-0.13v-0.06h-0.06v-0.06h-0.06v-0.13h-0.13v-0.06h-0.06
		v-0.06h-0.06v-0.13h-0.13v-0.06h-0.06v-0.06h-0.06v-0.12h-0.13v-0.06h-0.06v-0.13h-0.06v-0.06h-0.13v-0.19h-0.06v-0.06h-0.13v-0.19
		h-0.06v-0.06h-0.06v-0.19h-0.13v-0.06h-0.06v-0.19h-0.06v-0.19h-0.13v-0.06h-0.06v-0.19h-0.06v-0.25h-0.13v-0.13h-0.06v-0.19h-0.13
		v-0.25h-0.06v-0.25h-0.06v-0.25h-0.13v-0.38h-0.06v-0.32h-0.06v-0.44h-0.13v-0.69h-0.06v-2.08h0.06v-0.76h0.13v-0.51h0.06v-0.44
		h0.06v-0.44h0.13v-0.32h0.06v-0.25h0.06v-0.25h0.13v-0.38h0.06v-0.19h0.13v-0.25h0.06v-0.25h0.06v-0.13h0.13v-0.25h0.06v-0.19h0.06
		v-0.19h0.13v-0.19h0.06v-0.13h0.06v-0.19h0.13v-0.19h0.06v-0.19h0.13v-0.13h0.06v-0.19h0.06v-0.19h0.13v-0.06h0.06v-0.19h0.06
		v-0.19h0.13v-0.06h0.06v-0.19h0.06v-0.06h0.13v-0.19h0.06v-0.06h0.06v-0.19h0.13v-0.06h0.06v-0.19h0.13v-0.06h0.06v-0.13h0.06
		v-0.13h0.13v-0.12h0.06v-0.06h0.06v-0.19h0.13v-0.06h0.06v-0.06h0.06v-0.12h0.13v-0.19h0.06v-0.06h0.13v-0.06h0.06v-0.13h0.06
		v-0.06h0.13v-0.19h0.06v-0.06h0.06v-0.06h0.13v-0.13h0.06v-0.06h0.06v-0.13h0.13v-0.06h0.06v-0.19h0.13v-0.06h0.06v-0.06h0.06
		v-0.13h0.13v-0.06h0.06v-0.06h0.06v-0.13h0.13v-0.06h0.06v-0.19h0.06v-0.06h0.13v-0.12h0.06v-0.06h0.06v-0.06h0.13v-0.13h0.06
		v-0.06h0.13v-0.06h0.06v-0.19h0.06v-0.06h0.13v-0.13h0.06v-0.06h0.06v-0.13h0.13v-0.06h0.06v-0.19h0.06v-0.06h0.13v-0.06h0.06
		v-0.13h0.13v-0.06h0.06v-0.19h0.06v-0.06h0.13v-0.13h0.06v-0.13h0.06v-0.13h0.13v-0.06h0.06v-0.19h0.06v-0.06h0.13v-0.19h0.06
		v-0.06h0.06v-0.19h0.13v-0.06h0.06v-0.19h0.13v-0.19h0.06v-0.06h0.06v-0.19h0.13v-0.12h0.06v-0.13h0.06v-0.19h0.13v-0.13h0.06
		v-0.13h0.06v-0.12h0.13v-0.19h0.06v-0.06h0.13v-0.19h0.06v-0.25h-0.06v-0.13h-0.13v-0.06h-0.06v-0.06h-0.13v-0.19h-0.06v-0.06
		h-0.06v-0.13h-0.13v-0.06h-0.06v-0.06h-0.06v-0.13h-0.13v-0.06h-0.06v-0.13h-0.06v-0.06h-0.13v-0.06h-0.06v-0.19h-0.13v-0.06h-0.06
		v-0.13h-0.06v-0.06h-0.13v-0.06h-0.06v-0.12h-0.06v-0.06h-0.13v-0.13h-0.06v-0.06h-0.06v-0.06h-0.13v-0.13h-0.06v-0.06h-0.06v-0.06
		h-0.13v-0.13h-0.06v-0.06h-0.19v-0.06h-0.06v-0.13h-0.13v-0.06h-0.06v-0.06h-0.06v-0.12h-0.13v-0.06h-0.06v-0.12h-0.06v-0.06h-0.13
		v-0.06h-0.19v-0.13h-0.06v-0.06h-0.06v-0.06h-0.13v-0.13h-0.06v-0.06h-0.06v-0.06h-0.19v-0.13h-0.06v-0.06h-0.13v-0.12h-0.06v-0.06
		h-0.19v-0.06h-0.06v-0.13h-0.13v-0.06h-0.13v-0.06h-0.13v-0.12h-0.06v-0.06h-0.19v-0.06h-0.06v-0.13h-0.19v-0.06h-0.06v-0.13h-0.13
		v-0.06h-0.13v-0.06h-0.13v-0.12h-0.13v-0.06h-0.13v-0.06h-0.13V333h-0.19v-0.06h-0.13v-0.06h-0.13v-0.12h-0.19v-0.06h-0.06v-0.06
		h-0.19v-0.13h-0.19v-0.06h-0.13v-0.13h-0.13v-0.06h-0.19v-0.06h-0.13v-0.13h-0.19v-0.06h-0.19v-0.06h-0.13v-0.12h-0.19v-0.06h-0.19
		v-0.06h-0.19v-0.13h-0.13v-0.06h-0.25v-0.13h-0.19v-0.06h-0.19v-0.06h-0.19v-0.13h-0.13v-0.06h-0.25v-0.06h-0.19v-0.13h-0.19v-0.06
		h-0.19v-0.06h-0.25v-0.13h-0.13v-0.06h-0.19v-0.12h-0.25v-0.06h-0.19v-0.06h-0.19v-0.13h-0.25v-0.06h-0.13v-0.06h-0.19v-0.12h-0.25
		v-0.06h-0.19v-0.06h-0.25v-0.13h-0.19v-0.06h-0.13v-0.06h-0.32v-0.13h-0.13v-0.06h-0.25v-0.13h-0.19v-0.06h-0.19v-0.06h-0.25v-0.12
		h-0.19v-0.06h-0.25v-0.06h-0.13v-0.13h-0.32v-0.06h-0.13v-0.06h-0.19v-0.12h-0.25v-0.06h-0.19v-0.13h-0.13v-0.06h-0.32v-0.06h-0.13
		v-0.13H153v-0.06h-0.25v-0.06h-0.19v-0.13h-0.19v-0.06h-0.25v-0.06h-0.13v-0.12h-0.19v-0.06h-0.25v-0.13h-0.19v-0.06h-0.19v-0.06
		h-0.13v-0.13h-0.19V327h-0.19v-0.06h-0.13v-0.13h-0.13v-0.06h-0.19v-0.06h-0.06v-0.13h-0.19v-0.06h-0.06v-0.06h-0.06v-0.13h-0.13
		v-0.06h-0.06v-0.12h-0.06v-0.06h-0.13v-0.06h-0.19v-0.13h-0.06v-0.06h-0.06v-0.06h-0.13v-0.12h-0.06v-0.06h-0.06v-0.06h-0.13v-0.13
		h-0.06v-0.06h-0.06v-0.12h-0.13v-0.06h-0.06v-0.06h-0.13v-0.13h-0.06v-0.06h-0.06v-0.06h-0.13v-0.12h-0.06v-0.06h-0.06v-0.06h-0.13
		v-0.13h-0.06v-0.06h-0.06v-0.13h-0.13v-0.06h-0.06v-0.06h-0.06v-0.13h-0.13v-0.06h-0.06v-0.06h-0.13v-0.13h-0.06v-0.06H147v-0.06
		h-0.13v-0.12h-0.06v-0.06h-0.06v-0.06h-0.13v-0.13h-0.06v-0.06h-0.06v-0.13h-0.13v-0.12h-0.06v-0.13h-0.13v-0.06h-0.06v-0.06h-0.06
		v-0.13h-0.13v-0.06h-0.06v-0.19h-0.06v-0.06h-0.13v-0.13h-0.06v-0.06h-0.06v-0.06h-0.13v-0.19h-0.06v-0.06h-0.13v-0.13h-0.06v-0.06
		h-0.06v-0.19h-0.13v-0.06h-0.06v-0.13h-0.06V321h-0.13v-0.13h-0.06v-0.06h-0.06v-0.19h-0.13v-0.06h-0.06v-0.19h-0.06v-0.06h-0.13
		v-0.19h-0.06v-0.06h-0.13v-0.19h-0.06v-0.06h-0.06v-0.19h-0.13v-0.06h-0.06v-0.19h-0.06v-0.06h-0.13v-0.19h-0.06v-0.19h-0.06v-0.06
		h-0.13v-0.19h-0.06v-0.19h-0.13v-0.13h-0.06v-0.19h-0.06v-0.13h-0.13v-0.13h-0.06v-0.19h-0.06v-0.19h-0.13v-0.12h-0.06v-0.19h-0.06
		v-0.25h-0.13v-0.19h-0.06v-0.19h-0.13v-0.13h-0.06v-0.25h-0.06v-0.19h-0.13v-0.25h-0.06v-0.25h-0.06v-0.19h-0.13v-0.25h-0.06v-0.25
		h-0.06v-0.25h-0.13v-0.38h-0.06v-0.25h-0.06v-0.32h-0.13v-0.38h-0.06v-0.44h-0.13v-0.38h-0.06v-0.44h-0.06v-0.63h-0.13v-0.76h-0.06
		v-4.55h0.06v-1.01h0.13v-0.69h0.06v-0.69h0.06v-0.5h0.13v-0.51h0.06v-0.44h0.13v-0.44h0.06v-0.38h0.06v-0.38h0.13v-0.38h0.06v-0.25
		h0.06v-0.32h0.13v-0.25h0.06v-0.38h0.06v-0.25h0.13v-0.25h0.06v-0.25h0.06v-0.25h0.13v-0.25h0.06v-0.19h0.13v-0.25h0.06v-0.25h0.06
		v-0.19h0.13V297h0.06v-0.19h0.06v-0.13h0.13v-0.19h0.06v-0.25h0.06v-0.19h0.13v-0.19h0.06v-0.13h0.13v-0.19h0.06v-0.19h0.06v-0.19
		h0.13v-0.13h0.06v-0.12h0.06v-0.13h0.13v-0.19h0.06v-0.19h0.06v-0.06h0.13v-0.19h0.06v-0.19h0.13v-0.06h0.06v-0.19h0.06v-0.06h0.13
		v-0.19h0.06v-0.06h0.06v-0.19h0.13v-0.06h0.06v-0.19h0.06v-0.06h0.13v-0.13h0.06v-0.12h0.06v-0.13h0.13v-0.06h0.06v-0.19h0.13
		v-0.06h0.06v-0.12h0.06v-0.06h0.13v-0.19h0.06v-0.06h0.06v-0.06h0.13v-0.12h0.06v-0.06h0.06v-0.19h0.13v-0.06h0.06v-0.13h0.13
		v-0.06h0.06V291h0.06v-0.12h0.13v-0.06h0.06v-0.06h0.06v-0.13H147v-0.06h0.06v-0.06h0.06v-0.12h0.13v-0.06h0.06v-0.06h0.13v-0.12
		h0.06v-0.06h0.06v-0.13h0.13v-0.06h0.06v-0.06h0.06v-0.13h0.13v-0.06h0.06v-0.06h0.19v-0.12h0.06v-0.06h0.06v-0.06h0.13v-0.13h0.06
		v-0.06h0.13v-0.13h0.13v-0.06h0.13v-0.06h0.06v-0.13h0.06v-0.06h0.19v-0.06h0.06v-0.13h0.13v-0.06h0.19v-0.06h0.06v-0.13h0.19
		v-0.06h0.06v-0.12h0.06v-0.06h0.19v-0.06h0.06v-0.13h0.19v-0.06h0.13v-0.06h0.13v-0.12h0.13v-0.06h0.13v-0.06h0.19v-0.13h0.06
		v-0.06h0.19v-0.06h0.19v-0.13h0.06v-0.06h0.19v-0.13h0.19v-0.06h0.13v-0.06h0.13v-0.12h0.13v-0.06h0.19v-0.06h0.19v-0.13h0.19
		v-0.06h0.13v-0.06h0.19v-0.12h0.19v-0.06h0.19v-0.13h0.13v-0.06h0.25v-0.06h0.19v-0.13h0.19v-0.06h0.13v-0.06h0.32v-0.13h0.13
		v-0.06h0.25v-0.06h0.19v-0.12h0.25v-0.06h0.19v-0.13h0.25v-0.06h0.25v-0.06h0.25v-0.13h0.25v-0.06h0.25v-0.06h0.25v-0.13h0.25
		v-0.06h0.32v-0.06h0.25v-0.13h0.32v-0.06h0.25v-0.06h0.38v-0.12h0.32v-0.06h0.38v-0.12h0.38v-0.06h0.44v-0.06h0.63v-0.13h0.69
		V283.42L161.97,283.42z"/>
</g>
</svg>
