<svg xmlns="http://www.w3.org/2000/svg" fill="none" viewBox="0 0 161 157" height="157" width="161">
<g clip-path="url(#clip0_137_2797)">
<path fill="#FDB913" d="M129.539 137.551C134.303 133.014 138.678 127.963 142.538 122.556C139.29 128.106 134.9 133.152 129.539 137.551ZM28.4558 139.897C23.231 135.776 18.7587 130.915 15.0967 125.398C22.3524 134.275 31.9738 141.759 43.2265 147.233C49.9277 150.49 56.9565 152.928 64.0862 154.491C50.5614 152.607 38.2033 147.59 28.4594 139.897M1.19741 77.9689C1.18661 83.3546 1.5971 90.6023 3.36152 97.2999C3.44434 97.6096 3.52716 97.9121 3.60998 98.2181C4.30494 102.201 5.25556 106.02 6.46545 109.667C2.69536 101.21 0.167568 90.6206 1.19741 77.9689ZM19.695 28.0836C19.947 27.7884 20.2063 27.4969 20.4619 27.2054C18.7515 29.4245 17.0915 31.8149 15.4856 34.3912C13.6887 36.9419 12.0216 39.5947 10.52 42.2876C12.9758 37.1059 16.0365 32.3688 19.6914 28.0836M74.525 1.51571C75.5405 1.51571 76.5379 1.53757 77.5137 1.57401C72.4654 1.76349 67.525 2.38296 62.7431 3.41055C59.7004 3.95714 55.6566 4.8754 51.1231 6.39492C46.9858 7.77961 42.0382 9.81656 36.9142 12.7499C49.5496 4.05552 63.0563 1.51571 74.525 1.51571ZM145.199 32.0299C144.41 31.1117 143.589 30.208 142.736 29.3188C140.028 26.4912 137.014 23.8274 133.709 21.335C132.329 20.0232 130.932 18.7879 129.499 17.6437C128.765 17.0534 128.019 16.4849 127.277 15.9493C119.719 10.487 110.22 6.0451 101.672 3.96078C121.016 7.37149 135.865 16.9004 145.195 32.0336M25.2043 23.0404C26.3709 21.7541 27.5556 20.5406 28.7547 19.3964C31.6786 17.0898 34.6637 15.1294 37.5912 13.4678C33.1405 16.2226 28.9923 19.4219 25.2043 23.0404ZM148.083 37.2407C150.438 42.0106 152.264 47.1704 153.538 52.6363C151.706 46.8935 149.232 41.5151 146.182 36.7342C143.921 33.1923 141.522 29.931 139.009 26.9649C142.628 30.31 145.62 33.7644 148.087 37.2444M113.591 148.435C106.81 152.079 98.9784 154.371 90.43 155.22C98.5211 153.988 106.346 151.704 113.591 148.435ZM115.697 146.387C103.807 152.239 90.1779 155.329 76.2787 155.329H76.2066C65.134 154.451 53.993 151.401 43.6334 146.365C30.7027 140.08 19.947 131.108 12.5257 120.421C11.9063 119.531 11.2906 118.595 10.682 117.622C9.43975 115.031 8.34149 112.324 7.40167 109.511C9.99428 115.782 13.1306 121.069 16.8683 125.497C31.8406 143.221 53.7194 153.387 76.9016 153.391H76.9052C90.6532 153.391 104.254 149.758 116.237 142.885C126.633 136.924 134.926 130.226 141.342 122.589C135.682 130.405 128.93 137.452 121.502 143.221C119.644 144.347 117.706 145.403 115.694 146.394M158.274 62.1725C160.067 73.3994 158.792 85.4316 154.593 97.4602C156.57 90.2525 157.492 82.4728 157.251 74.5618C157.154 71.3041 156.858 68.0683 156.379 64.8872C155.746 56.9289 154.082 49.4114 151.439 42.5426C155.281 49.3714 157.309 56.1272 158.274 62.1725ZM159.21 62.0194C157.741 52.8221 154.287 44.3682 148.919 36.7889C148.27 35.4734 147.579 34.1871 146.852 32.9336C138.761 19.0175 121.937 2.50321 87.5889 1.62138C83.7756 1.00556 79.3394 0.553711 74.525 0.553711C60.3161 0.553711 43.032 4.39805 28.0453 18.7369C24.9054 21.2257 21.8375 24.108 18.9856 27.4459C12.6625 34.8503 8.10743 43.5921 5.33118 53.5947C3.79362 57.8726 2.64495 62.4202 1.96439 66.8622C-3.19922 89.4436 2.72777 106.621 9.85384 118.081C10.1851 118.77 10.52 119.451 10.8729 120.122C15.0859 128.168 20.804 135.076 27.8725 140.652C40.6231 150.716 57.7739 156.266 76.167 156.288C78.3851 156.459 80.5997 156.55 82.8034 156.55H82.8106C97.4084 156.55 110.386 152.662 120.331 145.301C120.908 144.875 121.476 144.441 122.042 144.004C131.706 138.152 139.243 130.573 144.047 121.827C145.253 119.63 146.376 117.367 147.421 115.046C148.749 112.794 149.992 110.502 151.133 108.173C158.756 92.6138 161.55 76.6498 159.21 62.0158"></path>
<path fill="white" d="M39.7217 65.6015C39.556 65.4302 39.7217 65.2626 39.556 65.2043C39.61 65.3756 39.556 65.7728 39.7217 65.6015ZM39.4408 84.9763C39.4408 85.3734 39.3832 85.9383 39.5524 86.2225C39.7181 86.1678 39.6064 85.9383 39.6064 85.767C39.5524 85.4828 39.3832 85.2568 39.5524 85.0309C39.4948 85.0309 39.4948 84.9726 39.4408 84.9726M39.5524 68.943C39.5524 68.8847 39.6064 68.83 39.6064 68.6588C39.4372 68.3745 39.4372 67.9774 39.2715 67.7514C39.2139 68.2616 39.3832 68.7134 39.5524 68.9393M39.2175 65.7145C39.0519 65.0914 38.9403 64.6942 38.7134 64.0711L39.2175 65.7145ZM38.7134 90.6389C38.7134 90.8065 38.6558 90.8648 38.7134 91.0361C38.7134 90.9778 38.771 90.8648 38.825 90.6389H38.7134ZM38.6018 65.6015C38.6018 65.3756 38.5478 65.2626 38.4902 65.2043C38.5478 65.3756 38.4325 65.4302 38.6018 65.6015ZM38.3785 68.7171C38.3785 68.7754 38.4361 68.943 38.4902 69.1689C38.4902 69.1143 38.5478 68.8847 38.3785 68.7171ZM38.2093 91.7722C38.2669 91.6592 38.2669 91.4879 38.2669 91.2074C38.2093 91.375 37.932 91.6009 38.2093 91.7722ZM37.7628 80.6108C37.9284 80.6691 37.8744 80.9534 38.0437 80.7821C37.8744 80.7238 37.932 80.4432 37.7628 80.6108ZM38.0437 69.1143C37.8744 68.8337 37.932 68.3782 37.7628 68.2069C37.7628 68.6041 37.8744 68.943 38.0437 69.1143ZM38.2669 62.5989C38.0977 61.9758 37.7088 61.5786 37.6512 61.0685C37.4855 61.0138 37.4279 61.1814 37.3739 61.2397C37.6512 61.6916 38.0473 62.373 38.2705 62.5989M37.0894 95.059C37.2011 95.059 37.2587 95.0043 37.2587 94.946H37.2011C37.1434 94.946 37.1434 94.8877 37.0894 94.8877V95.0553V95.059ZM37.2587 67.2449C37.2011 67.0737 37.147 67.0154 37.0894 67.0154C37.0354 67.0737 36.9778 67.0737 36.8662 67.0737C36.8662 67.2449 36.9238 67.2996 36.9238 67.3579C37.093 67.2996 37.093 67.1903 37.2587 67.2449ZM36.7546 63.7322C36.8086 64.1294 37.0354 64.7525 37.2011 64.9237L36.7546 63.7322ZM36.8086 60.9009C36.7546 60.7296 36.5313 60.5583 36.3621 60.7879C36.5313 60.9555 36.5313 61.0138 36.6969 61.0721C36.6429 60.9045 36.8086 60.9592 36.8086 60.9045M36.3081 93.1897C36.3081 93.3609 36.0272 93.3026 36.1964 93.4739C36.2504 93.3026 36.4773 93.248 36.3081 93.1897ZM36.1928 90.5843C36.2468 90.5296 36.3621 90.2454 36.1928 90.2454C36.1928 90.4166 36.0236 90.4166 36.1928 90.5843ZM36.1928 69.8503C36.1388 69.6244 36.3621 69.4531 36.1928 69.2819C36.0236 69.5078 36.0236 69.6791 36.1928 69.8503ZM36.2504 70.8706C36.4197 70.8706 36.4737 70.8706 36.5313 70.8123C36.3621 70.8123 36.0848 70.7577 36.0272 70.8123C36.0848 70.8706 36.1388 70.8706 36.2504 70.8706ZM35.8579 62.8248C35.9156 62.8248 35.8039 62.9378 35.9696 62.9961C36.0272 62.9378 35.912 62.6536 35.8579 62.8248ZM35.7463 88.0918C35.8039 87.8076 36.1928 87.527 36.0272 87.2428C35.8579 87.64 35.7463 87.8076 35.7463 88.0918ZM35.9156 91.375C35.8579 91.4333 35.5807 91.6592 35.7463 91.8305C35.8039 91.6629 35.9696 91.5463 35.9156 91.375ZM35.5771 79.6488C35.5771 79.8201 35.6887 80.046 35.8579 79.8748L35.5771 79.6488ZM35.2998 68.3745C35.2998 68.7717 35.4114 69.1106 35.5771 69.3948C35.5771 68.9977 35.4655 68.6588 35.2998 68.3745ZM35.1306 61.2944C35.0766 61.1231 34.9649 61.0685 34.8497 61.1231C34.9613 61.2361 35.073 61.2944 35.1306 61.2944ZM34.7381 70.1892H34.6265C34.6265 70.3605 34.6841 70.4151 34.7381 70.4151V70.1892ZM34.5148 80.1043C34.6841 80.2756 34.8497 80.8987 35.0189 80.7274C34.8497 80.5015 34.6841 80.1626 34.5148 80.1043ZM34.234 58.6343C34.4572 58.6926 34.6265 58.9186 34.9037 58.9732C34.8461 58.576 34.3996 58.6343 34.234 58.6343ZM34.234 90.3C34.0647 90.5843 33.9531 90.8685 33.9531 91.0944C34.0107 90.8685 34.234 90.5259 34.234 90.3ZM34.3492 62.7119C34.2916 62.6536 34.2916 62.5406 34.1259 62.4823C34.0683 62.4277 34.0143 62.4277 33.9027 62.4277C34.1259 62.6536 34.2952 62.7665 34.3528 62.7119M33.7875 82.881C34.18 83.0486 34.0107 83.4458 34.4032 83.6754C34.4608 83.5078 34.2376 83.5624 34.4032 83.3911C34.2916 83.3911 34.2376 83.3911 34.2376 83.3328C34.2952 83.3328 34.2376 83.2199 34.2952 83.2199C34.0719 83.2745 34.1259 83.1069 34.1259 83.0486C33.9567 83.0486 33.9567 82.9903 34.0143 82.881C34.0683 82.881 34.2952 82.9357 34.1259 82.881C34.0683 82.8227 34.0143 82.8227 33.9567 82.881C33.8991 82.7097 33.8451 82.6514 33.8451 82.5968C33.6758 82.6514 33.9567 82.7097 33.7875 82.7097V82.881ZM33.6758 96.4182C33.8451 96.3599 34.1259 96.3016 34.5148 96.1339C34.6841 96.0756 34.9073 96.0756 34.7381 95.908C34.5148 96.1922 33.9531 96.1339 33.6758 96.4182ZM33.4526 81.9737C33.5102 82.1449 33.5102 82.3708 33.6758 82.5968C33.6182 82.3708 33.7334 82.6514 33.7875 82.4838C33.7334 82.4255 33.5102 82.3162 33.6758 82.1449C33.5102 82.1996 33.6182 81.9737 33.4526 81.9737ZM33.7334 95.0007C33.6758 94.8294 33.4526 94.9424 33.3986 95.0007C33.5642 95.0553 33.5642 94.8294 33.7334 95.0007ZM33.2833 92.5082C33.5066 92.5082 33.4526 92.3406 33.6182 92.1694C33.449 92.2277 33.449 92.3406 33.2833 92.5082ZM33.5642 64.7525C33.5102 64.4683 33.0601 64.184 32.8908 64.184L33.5642 64.7525ZM32.8368 75.7389C32.8945 75.8519 33.0061 75.9685 33.1177 76.0231C33.1753 75.9685 33.2869 76.0231 33.2869 75.8555C33.1177 75.8555 33.0061 75.5713 32.8404 75.7426M32.8368 81.1246C32.8368 81.0117 32.8368 80.9534 32.7792 80.8987C32.7252 80.9534 32.7792 81.1246 32.8368 81.1246ZM32.8908 93.8128C32.7216 93.8128 32.61 93.8711 32.7792 93.9257C32.7792 93.8674 32.8908 93.984 32.8908 93.8128ZM32.6676 90.6972C32.61 90.7555 32.4443 90.7555 32.4443 90.9268C32.6136 90.9268 32.6676 90.8685 32.6676 90.6972ZM32.3867 95.908C32.3867 96.0756 32.5524 95.9627 32.61 95.908H32.3867ZM33.6758 60.3324C33.0601 60.1065 32.7252 59.7639 32.1095 59.5963C32.556 59.8806 32.9485 60.2777 33.6218 60.3324C33.6218 60.3907 33.7334 60.3907 33.6794 60.3324M32.3867 61.1268C32.2211 61.0685 31.9942 60.9009 31.825 60.9555C31.9942 61.0138 32.1599 61.298 32.3867 61.1268ZM31.4937 91.0944C31.4937 91.0397 31.4361 90.9268 31.4361 91.0944C31.2669 91.0397 31.3821 91.3786 31.4361 91.2074C31.2669 91.1491 31.5477 91.1491 31.4937 91.0944ZM30.932 60.9555C30.932 61.1268 31.0436 61.1814 31.3245 61.1814C31.3821 61.0138 31.1012 60.8972 30.932 60.9555ZM31.2129 63.6192C31.4361 63.6739 31.771 63.7905 31.9942 63.7905C31.6017 63.7905 31.4901 63.5646 31.0976 63.5063C30.932 63.5063 30.8168 63.5646 30.7627 63.6192H31.2129ZM30.2622 92.3953C30.2046 92.3953 30.2622 92.4536 30.093 92.4536C30.093 92.6212 30.2622 92.5665 30.2622 92.3953ZM30.0354 78.8581C30.2586 79.084 30.4279 79.5395 30.8204 79.4812C30.5971 79.2553 30.4279 78.9711 30.2622 78.7451C30.2622 78.9164 30.093 78.8034 30.039 78.8581M30.093 60.5H29.9274C29.9274 60.5583 29.9274 60.6166 29.8697 60.6166C29.9274 60.6166 30.0354 60.5583 30.093 60.5ZM29.8697 62.6536C29.7005 62.6536 29.7005 62.5989 29.5349 62.6536C29.5349 62.8795 29.8121 62.7119 29.8697 62.6536ZM30.147 93.135C29.7545 92.9637 29.5313 92.9054 29.362 92.9637C29.6429 92.9637 29.8661 93.3026 30.147 93.135ZM29.7581 58.2371C29.5349 58.1825 29.3656 58.0659 29.3116 58.3501C29.3692 58.3501 29.7041 58.2918 29.7581 58.2371ZM29.254 80.046C29.308 80.1007 29.3656 80.3303 29.5349 80.159C29.3656 80.159 29.3116 79.9877 29.254 80.046ZM30.5971 91.6009C29.5349 91.6009 29.0307 91.262 28.1917 91.0361C28.6959 91.4296 29.985 91.7722 30.5971 91.6009ZM28.1881 61.4074C28.3538 61.3527 28.8615 61.1814 28.6923 61.1814C28.5266 61.2397 28.3574 61.2397 28.1881 61.4074ZM28.1881 75.3454C28.1881 75.2871 28.2422 75.2871 28.2422 75.2288C28.2422 75.4547 28.2962 75.513 28.3538 75.4547C28.2962 75.3964 28.2962 75.2288 28.2422 75.1741C28.2422 75.2288 28.0189 75.2871 28.1881 75.3454ZM27.8533 90.9231C28.0225 90.9231 28.0765 91.1491 28.1341 90.9778C27.9685 90.9778 27.9109 90.8648 27.8533 90.9231ZM28.7499 92.2823C28.3574 92.1147 28.2458 91.9398 27.8533 91.8851C27.7957 91.9398 27.7957 92.0528 27.9109 92.1111C28.1917 92.1111 28.5266 92.2787 28.7499 92.2787M27.7416 74.6056C27.8533 74.7186 27.9109 74.8316 27.9109 75.0028C28.1341 74.9445 28.0225 75.2871 28.1917 75.1158C28.1341 74.9482 27.9109 74.6056 27.7416 74.6056ZM27.9109 60.4454C27.6876 60.5037 27.5184 60.4454 27.3491 60.6166L27.9109 60.4454ZM28.7499 61.8592C28.1341 61.9175 27.7993 62.1434 27.1835 62.4277C27.6876 62.3694 28.1341 62.1434 28.5266 61.9758C28.5806 61.9758 28.9767 61.8592 28.7499 61.8592ZM27.0143 75.4C27.2951 75.7972 27.63 76.0814 28.0765 76.3657C27.684 76.0814 27.3491 75.7426 26.9567 75.3454L27.0143 75.4ZM26.9567 58.4631C27.1259 58.4631 27.2375 58.5214 27.4032 58.3501C27.1799 58.3501 26.7334 58.4631 26.9567 58.4631ZM27.2915 59.4251C26.899 59.4251 26.7334 59.538 26.4525 59.7093C26.845 59.6546 27.1259 59.5963 27.2915 59.4251ZM26.5642 68.3199C26.5101 68.3745 26.3985 68.3199 26.3409 68.3745C26.6218 68.6588 26.791 69.2236 27.0143 69.4495C26.845 69.0523 26.6218 68.7134 26.5678 68.3162M26.3409 66.1117C26.3793 66.0752 26.4165 66.0752 26.4525 66.1117C26.5101 66.057 26.6218 65.8274 26.4525 65.8857C26.4525 66.057 26.3985 65.9404 26.3409 66.1117ZM26.3985 88.1465C26.3985 88.0918 26.3409 87.9788 26.2869 87.8076C26.2869 87.8659 26.2293 87.8659 26.1753 87.8076C26.2329 87.9788 26.3445 88.0918 26.3985 88.1465ZM25.6712 60.9009C25.4479 60.9555 25.2787 61.1851 25.6712 60.9555V60.9009ZM25.6712 92.9637C25.6135 92.7925 25.3939 92.7378 25.2246 92.5665C25.2787 92.7925 25.5055 92.7925 25.6712 92.9637ZM25.1094 67.2449C25.1634 67.0737 25.2751 66.9024 25.221 66.7348C24.9402 67.1866 25.1634 67.3579 25.1094 67.981C25.2751 68.0393 25.2751 68.094 25.4443 68.2652C25.6675 67.981 25.3327 67.4745 25.1094 67.2449ZM25.167 74.8899C24.9978 74.7186 24.9438 74.4927 24.7745 74.438C24.9402 74.6056 24.9402 74.8352 25.167 74.8899ZM24.7169 85.5994C24.7745 85.654 24.9402 85.7123 24.9402 85.5447C24.8862 85.4864 24.7169 85.5447 24.7169 85.5994ZM24.7745 64.6395C24.7169 64.8071 24.5513 64.9237 24.4937 65.0914C24.7169 65.0914 24.7745 64.8071 24.7745 64.6395ZM24.4937 95.0007C24.3244 95.1683 24.7169 95.1137 24.5513 95.2849C24.7205 95.3432 24.8862 95.4015 24.9438 95.4562C25.0014 95.2303 24.6665 95.172 24.4973 95.0043M24.382 61.2397C24.8322 60.9555 25.1094 60.6713 25.5019 60.2777C25.0518 60.5037 24.7745 60.8425 24.382 61.2397ZM24.382 65.3756C24.4397 65.3756 24.2704 65.7145 24.4397 65.7145C24.4397 65.5432 24.5513 65.2043 24.382 65.3756ZM24.2704 67.6385C24.4397 67.6385 24.3244 67.7514 24.382 67.7514C24.382 67.5802 24.3244 67.4672 24.2704 67.4672V67.6348V67.6385ZM24.0472 95.7951C24.2164 95.7368 24.2164 95.908 24.382 95.908C24.3244 95.7368 24.2128 95.6821 24.0472 95.6821V95.7951ZM23.7663 65.2043C23.7087 65.0367 23.9319 64.9784 23.7663 64.9201C23.7663 65.0914 23.7087 65.0914 23.5971 64.9748V65.2007H23.7663V65.2043ZM23.4854 71.9456C23.4314 71.7743 23.4854 71.6614 23.3162 71.4901C23.3162 71.7743 23.3738 71.9456 23.4854 71.9456ZM23.3738 84.0689C23.3162 83.8977 23.0389 84.0143 22.8697 84.0689H23.3738ZM23.1506 63.2767C22.9813 63.5026 22.8157 63.6739 22.8697 63.8998C23.0389 63.7285 23.1506 63.5026 23.1506 63.2767ZM23.2082 92.7378C23.2082 92.3406 22.9273 92.2277 22.7617 92.0564C22.9309 92.2823 22.9849 92.5665 23.2082 92.7378ZM22.5924 72.0585C22.7617 72.1168 22.7617 72.3974 22.9273 72.3974C22.8733 72.2298 22.7581 71.8873 22.5924 72.0585ZM22.8697 93.248C22.8121 92.9091 22.7005 92.7378 22.5348 92.6832C22.5924 93.0257 22.7041 93.1933 22.8697 93.248ZM23.1506 74.8352C22.7581 74.6093 22.5924 74.0408 22.1999 73.9862C22.4808 74.2704 22.7617 74.6676 23.1506 74.8352ZM22.1423 71.0966C22.1423 70.9289 22.0883 70.8123 22.0307 70.8123C22.0883 70.8706 22.0883 71.0382 22.1423 71.0966ZM22.0307 65.6015C22.0883 65.7728 21.9731 65.8274 22.0307 65.8857C21.9731 66.2829 21.9191 66.4505 21.9191 66.6218C21.9767 66.3959 22.0883 66.1663 22.0307 65.8857C22.0307 65.7145 22.1963 65.6598 22.0307 65.6015ZM21.415 63.1637C21.3609 63.2767 21.3609 63.3314 21.5266 63.3314C21.5266 63.2184 21.469 63.1637 21.415 63.1637ZM21.2457 88.2594C21.2457 88.4271 21.2457 88.8242 21.415 88.9955C21.415 88.7113 21.3609 88.4271 21.2457 88.2594ZM21.3033 90.8685C21.1341 90.8685 21.1917 90.7555 21.0225 90.8102C21.0225 90.9814 21.0801 90.9814 21.0801 91.1491C21.2457 91.1491 21.1377 91.0397 21.3033 90.8685ZM21.1917 90.413C21.1917 90.3 21.1341 90.1871 21.0801 90.1288C20.9108 90.3 20.8568 90.2454 20.6876 90.3C20.6876 90.3 20.7452 90.413 20.7992 90.6426C20.8568 90.4166 20.9684 90.3583 21.1917 90.4166M20.4067 84.5791L20.6876 84.1819C20.5183 84.1236 20.576 84.2365 20.4067 84.2365V84.5791ZM20.3527 66.1117C20.5183 66.1663 20.4067 65.8857 20.3527 65.8857V66.1117ZM40.5066 64.184C40.8991 65.5432 41.1764 66.5635 41.0108 67.981L40.8415 70.9836C40.2258 71.2678 39.3868 71.2678 38.4902 71.2678C38.0977 71.3261 37.7628 71.3808 37.4819 71.3808C36.1928 71.3808 34.9649 71.3808 33.8991 70.7577C33.8415 69.7957 34.0107 68.5458 33.9567 67.6421C33.8991 67.3579 33.8451 67.1903 33.8451 67.2449C33.7875 66.8477 33.8451 66.5635 33.6758 66.1663C33.4526 65.4886 32.9485 64.6395 32.3327 64.3553C32.1635 64.184 31.9402 64.297 31.6594 64.2423C31.1552 64.184 30.8204 63.9034 30.147 63.9581C29.7545 63.9581 29.308 64.184 28.8615 64.4136C28.469 64.5812 28.0225 64.6395 27.7416 64.9237C27.4608 65.095 26.9567 65.7728 26.9026 66.17C26.845 66.7931 26.845 67.5291 27.0143 68.1523C27.2951 69.0013 27.63 69.7957 28.0765 70.4188C28.5266 71.0965 29.1424 71.6067 29.5349 72.2881C30.3739 72.9695 31.0472 73.7603 31.9978 74.3834C32.8944 75.0065 33.6758 75.6879 34.5184 76.3657L34.576 76.424C34.6337 76.5916 34.4644 76.3657 34.4644 76.5369C34.522 76.7046 34.522 76.4786 34.6877 76.4786L35.7499 77.4989C35.9732 77.7285 36.0848 77.8961 36.3657 78.122C36.6465 78.3516 36.9274 78.5775 37.1506 78.8581C37.2083 79.0294 37.2083 78.7451 37.3739 78.9164C37.3739 78.9711 37.4315 79.084 37.4855 79.1423C37.9896 79.7654 38.4938 80.3886 38.9979 81.1246C39.3328 81.6348 39.6136 82.1449 39.8945 82.768L40.341 83.7883C40.5102 84.0726 40.4526 84.4661 40.5102 84.8633L40.6759 85.5994C40.8451 87.414 40.8451 89.0538 40.1718 90.6972C40.0025 91.6629 39.7793 92.5665 39.1635 93.1897C39.1635 93.248 39.1059 93.248 39.1059 93.4156C38.2669 94.2646 37.7628 95.3432 36.6429 95.9627C36.4737 96.021 36.5313 95.908 36.3621 95.908C36.3621 96.1922 35.9156 96.134 35.7463 96.5311C35.5771 96.5311 35.1846 96.6477 35.0189 96.8737C34.8497 96.819 35.0189 96.7607 34.8497 96.819C34.0107 97.2709 33.2833 97.2126 32.61 97.668C32.2175 97.4968 32.1059 97.9523 31.8826 97.5551C30.932 97.9523 29.7005 97.7263 28.523 97.5551C28.1305 97.5551 27.8497 97.6134 27.5724 97.4421L27.2375 97.5551C26.9567 97.3875 26.4525 97.4421 26.2869 97.2162C25.6712 97.1579 25.167 96.932 24.8322 96.5931C23.8779 96.3089 23.3198 95.6311 22.4808 95.1209C22.4808 94.9497 22.3692 94.9497 22.3692 94.7821L22.0343 94.6108C21.6418 93.9877 21.1377 93.3646 20.972 92.7415C20.5796 92.286 20.3563 91.1527 20.1871 90.4203C20.0178 89.6842 19.9062 88.9481 19.9062 88.2667C19.8522 88.0955 19.9062 87.9825 19.9062 87.8149C19.9062 87.5306 19.7946 87.3047 19.7946 87.0205C19.7946 86.8492 19.8486 86.7363 19.8486 86.565C19.8486 86.1715 19.737 85.8289 19.7946 85.4317C19.7946 84.9216 19.9062 84.4114 20.0718 83.9013C22.2539 83.1652 24.4397 83.6754 26.6218 83.843C26.6218 83.956 26.6794 84.0143 26.845 84.0689C26.9026 86.1095 26.5101 88.3177 27.4032 89.9065C27.7957 90.5296 28.2422 90.6426 28.9155 90.8685C29.9237 91.2657 30.932 91.1491 31.8826 90.6426C32.0519 90.4713 32.2211 90.5296 32.3867 90.3583L32.8332 89.9065C33.1141 89.6769 33.449 89.451 33.6182 89.1704C33.7875 88.7732 33.8991 87.9825 33.8415 87.5817C33.8415 87.414 33.6722 87.1298 33.6722 86.9039C33.6146 86.5067 33.5606 86.2225 33.5606 85.9966C33.2797 85.4864 33.2257 84.8086 32.9449 84.3531C32.664 84.0689 32.3831 83.7883 32.2175 83.5041C32.0483 83.5588 32.2175 83.5041 32.0483 83.5041C31.5441 82.6514 30.6475 82.3709 29.9778 81.7477C29.4736 81.3506 29.1388 80.8987 28.6346 80.5015C28.3538 80.2756 27.9073 79.9914 27.6804 79.5942C27.3455 79.4229 27.0647 79.197 26.8954 78.9711C26.5029 78.6868 26.2221 78.5192 26.0564 78.122C25.8332 78.122 25.8872 77.8961 25.6639 77.8961C25.2715 77.273 24.4865 76.9341 24.04 76.3074C23.201 75.6843 22.5852 75.0065 21.7462 74.3251C21.577 73.8732 21.1305 73.5307 20.8496 73.0788C20.2339 72.1168 20.0646 70.8706 19.899 69.5661C19.899 69.3948 19.7874 69.4531 19.7874 69.3948C19.953 68.5458 19.6757 67.6385 19.7298 66.7894C19.7298 66.7348 19.7874 66.6765 19.8414 66.6182C19.6721 65.9951 19.953 65.259 20.1222 64.5776C20.1799 64.41 20.1222 64.2933 20.1799 64.1257L20.3491 63.8998C20.4031 63.6702 20.2915 63.4443 20.5147 63.2767C20.4607 63.222 20.4607 63.1637 20.4607 62.9961L20.9072 62.0888L21.6346 60.9555C22.2503 60.3324 22.6969 59.6546 23.4242 59.1445C24.3748 58.4631 25.4947 57.8983 26.8954 57.4428C28.7427 56.8197 30.7591 56.8743 32.9413 57.0456C33.6686 57.1039 34.342 57.3298 34.9577 57.6104C35.181 58.0076 35.8507 58.1205 36.3008 58.4048C36.6933 58.6307 36.9706 58.802 37.1975 59.1991C37.59 59.3704 37.8708 59.6546 38.0941 60.0518C38.4866 60.1065 38.6558 60.6203 38.9331 61.0138C39.1563 61.298 39.4372 61.524 39.6064 61.9175C39.9989 62.5406 40.2798 63.335 40.503 64.184"></path>
<path fill="white" d="M67.1524 61.4659C67.0948 61.4659 67.1524 61.5242 66.9832 61.4659C67.0372 61.6372 67.1524 61.6919 67.0948 61.8631C67.264 61.8048 67.1524 61.6372 67.1524 61.4659ZM66.9292 64.1296C66.8716 64.075 66.8175 64.075 66.7059 64.075C66.7635 64.2426 66.6483 64.4139 66.8175 64.4139C66.8716 64.3556 66.8716 64.1879 66.9292 64.1296ZM66.9832 58.1245C66.9256 58.1245 67.0372 58.0115 66.8716 58.0115C66.8716 58.1791 66.5907 58.0115 66.5907 58.1791C66.6483 58.1791 66.7599 58.2374 66.8139 58.2921C66.8139 58.1245 66.9256 58.1791 66.9832 58.1245ZM66.1442 91.2623C66.4251 91.2623 66.5367 91.2623 66.5907 91.2076C66.4214 91.2076 66.0866 91.2076 66.1442 91.2623ZM65.6401 62.202C65.6401 62.0307 65.7517 61.8595 65.5861 61.8595C65.5861 61.9178 65.6401 62.1437 65.4744 62.202H65.6437H65.6401ZM65.7517 96.4184C65.6941 96.4731 65.8093 96.2472 65.6401 96.3018C65.6401 96.4731 65.4708 96.3601 65.4168 96.4184C65.4744 96.4731 65.6977 96.5861 65.7517 96.4184ZM65.0819 93.4742C65.3052 93.6454 65.3628 93.8713 65.7517 93.7001C65.7517 93.5288 65.6941 93.5871 65.7517 93.4159C65.3592 93.4159 65.1359 93.4159 65.0819 93.4742ZM65.3052 59.0281C65.1359 58.9698 65.0819 59.0281 65.0243 59.0281C65.0243 59.1958 65.2476 59.1411 65.3052 59.1958C65.3628 59.0281 65.2476 59.0828 65.3052 59.0281ZM64.2393 95.0593C64.6318 95.2852 65.3016 95.2269 65.8057 95.2269C65.8633 95.0593 65.6941 95.1139 65.6941 94.9427C65.19 95.001 64.5202 94.8844 64.2393 95.0593ZM65.4708 60.5586C65.0783 60.5003 64.5742 60.5586 64.1817 60.5586C64.1817 60.7299 64.0701 60.6716 64.2393 60.8428C64.7435 60.7845 65.2476 60.9558 65.4708 60.5586ZM63.9045 62.7668C64.4086 62.7122 64.6318 62.8251 65.0243 62.6539C64.6318 62.5992 64.5202 62.5992 63.9045 62.5992V62.7668ZM63.9045 76.6465C63.9045 76.5882 63.8504 76.5882 63.7928 76.5882C63.7928 76.7595 63.8504 76.7595 63.9045 76.7012V76.6429V76.6465ZM63.9621 78.4612C63.9045 78.4612 63.9045 78.5195 63.7388 78.4612C63.7964 78.6325 63.9081 78.5195 63.9621 78.6871V78.4612ZM65.6977 59.7096C64.8587 59.5383 64.2969 59.1411 63.4039 59.3124C63.7964 59.3707 63.9657 59.4253 64.3546 59.4253C64.5238 59.8225 65.2512 59.5383 65.4168 59.8225C65.5861 59.7642 65.6401 59.8808 65.6977 59.7096ZM65.7517 58.2921C65.5284 58.1245 65.1936 58.1791 65.0243 58.0078C64.5202 58.0625 63.7352 58.0078 63.2887 58.0078C63.3427 58.2338 63.7352 58.0078 63.6812 58.405C64.4086 58.2338 65.1359 58.4633 65.7517 58.2921ZM63.0078 93.1353C63.0078 93.1899 63.1195 93.1899 63.3427 93.1353C63.1771 93.1353 63.1771 93.1899 63.0078 93.1353ZM63.7352 79.8204C63.512 79.8204 63.1195 79.7621 62.9502 79.8204C63.2311 79.8204 63.566 79.9916 63.7352 79.8204ZM63.0078 77.5539C63.0078 77.6668 62.9502 77.7798 62.8962 77.8381C62.9538 77.8964 63.0078 77.8964 63.1195 77.8964C63.1195 77.7251 63.1195 77.6705 63.1771 77.6122C63.0078 77.6705 63.1771 77.5539 63.0078 77.5539ZM62.5613 77.215C62.5613 77.3862 63.0078 77.3862 62.9538 77.215H62.5613ZM61.7764 76.1947C61.9456 76.4206 62.1688 76.3659 62.5613 76.4206C62.5613 76.3623 62.6154 76.4206 62.6154 76.2493C62.3381 76.0781 62.0536 76.191 61.7764 76.191M61.7223 76.8178C61.888 76.7595 61.9996 76.8178 62.0572 76.7595C61.888 76.7595 61.7223 76.6465 61.7223 76.8178ZM61.6647 78.6288C62.2805 78.6871 62.7846 78.8001 63.4003 78.7418C62.7846 78.5159 62.2229 78.4575 61.6647 78.6288ZM61.3298 62.1437C61.834 62.089 62.619 62.315 62.8962 62.0307C62.2229 61.9761 61.9456 62.089 61.3298 62.1437ZM63.0655 59.5383C62.4497 59.48 61.834 59.1958 61.1642 59.367C61.6683 59.5383 62.4497 59.7059 63.0655 59.5383ZM61.2182 62.1437C61.049 62.1437 61.1642 62.202 61.3298 62.1437H61.2182ZM61.049 94.775C61.9456 94.6038 63.2887 94.7167 64.1853 94.5455C63.2887 94.4908 62.673 94.5455 61.3875 94.4908C61.3299 94.6584 61.1066 94.6038 61.049 94.775ZM60.8257 79.3102C60.9374 79.4232 60.995 79.4232 61.049 79.3102C61.049 79.2556 60.8257 79.2556 60.8257 79.3102ZM61.049 63.3899C60.8797 63.4482 60.8257 63.277 60.7681 63.4482C60.8257 63.4482 61.049 63.5612 61.049 63.3899ZM60.21 95.8536C60.6025 96.0249 60.995 95.8536 61.6107 95.9119C61.6107 95.8536 61.5567 95.7407 61.4991 95.686C61.049 95.7407 60.6025 95.686 60.21 95.8536ZM60.3792 94.7204C60.8257 94.6621 60.21 94.6621 59.9867 94.7204C60.21 94.7787 60.21 94.7204 60.3792 94.7204ZM59.9867 75.3456C60.156 75.4039 60.3792 75.4039 60.3252 75.2327C60.156 75.2327 59.5942 75.291 59.9867 75.3456ZM59.7059 80.1046C59.7059 80.2759 59.5942 80.2176 59.5942 80.3888C60.21 80.2176 60.6025 80.4471 61.1066 80.2759C60.7141 80.1046 60.156 80.1629 59.7059 80.1046ZM59.5366 92.115C59.7059 92.115 60.0407 92.2826 60.21 92.115C60.1524 91.9437 59.7059 92.115 59.5366 92.115ZM59.4826 93.7547C59.4826 93.813 59.4826 93.8677 59.5366 93.8677C59.9291 93.8677 60.3756 94.0936 60.5989 93.926C60.1524 93.8677 59.9255 93.7547 59.479 93.7547M60.8257 60.1067C60.21 60.1067 59.8175 60.1068 59.425 60.0484C59.9291 60.2197 60.3756 60.2744 60.8257 60.1067ZM60.6565 78.2899C60.264 78.1187 59.7059 78.2899 59.3134 78.1187C59.3134 78.2899 59.1441 78.1187 59.1441 78.2899C59.5906 78.2899 59.9291 78.4029 60.3216 78.4029C60.4873 78.4029 60.5989 78.5159 60.6565 78.2899ZM58.8669 59.5966C59.0361 59.5966 59.2594 59.6513 59.4286 59.5966C59.371 59.6513 59.0361 59.4253 58.8669 59.5966ZM58.532 58.2374C58.7012 58.2374 58.9245 58.3504 59.0937 58.1791C58.9245 58.2374 58.7012 58.1791 58.532 58.2374ZM58.4204 91.3206C58.4204 91.4882 58.8129 91.3753 58.8669 91.3206H58.4204ZM58.3628 75.8558C58.9785 75.8558 59.5402 76.14 60.156 75.9688C59.7635 75.7975 59.4826 75.9688 59.317 75.7975C59.0937 76.0271 58.532 75.6845 58.3628 75.8558ZM58.1395 91.3206C58.1395 91.4882 58.3628 91.3753 58.3628 91.3206H58.1395ZM57.8586 76.4206C57.9126 76.5882 57.747 76.4753 57.9126 76.6465C58.3592 76.4753 58.8633 76.6465 59.3134 76.4753C58.9209 76.5336 58.3591 76.4206 57.8586 76.4206ZM57.6354 74.5513C57.8046 74.5513 57.9703 74.6059 58.1395 74.5513C57.8586 74.493 57.6894 74.493 57.6354 74.5513ZM57.4661 77.6122C57.8586 77.6122 58.1935 77.8964 58.4744 77.6122C58.0819 77.6705 57.6894 77.4409 57.4661 77.6122ZM58.586 58.6346C57.9703 58.6346 57.5202 58.5216 57.2429 58.6893C57.6354 59.0864 58.1395 58.8022 58.586 58.6346ZM57.1853 91.8307C57.3545 91.8307 57.6354 92.002 57.801 91.8307C57.747 91.8307 57.1853 91.6595 57.1853 91.8307ZM57.0196 60.1614C57.0737 60.3327 56.962 60.2744 57.0196 60.3327C57.6354 60.3327 58.0819 60.3327 58.6976 60.2744C58.8633 60.3327 58.7516 60.2161 58.586 60.2744C58.0279 60.1614 57.5202 60.1031 57.0737 60.1614H57.0196ZM57.4661 93.2482C57.1853 93.1899 56.8504 93.3065 56.6271 93.2482C56.6271 93.3065 56.6848 93.4195 56.7388 93.4742L57.0737 93.5871L57.4661 93.2446V93.2482ZM55.8422 95.2305C56.2347 95.2852 56.8504 95.1722 57.2429 95.2305C56.7388 95.0629 56.2923 95.0629 55.8422 95.2305ZM55.5649 79.9333C55.5649 79.9333 55.5649 79.9916 55.6225 80.1046C56.069 80.0499 56.5191 80.1629 56.9116 79.9916C56.5191 79.9333 56.1842 79.8787 55.5685 79.9333M59.5942 62.7668C58.4204 62.5992 57.2429 62.6539 56.069 62.8251C55.8458 62.8251 55.6225 62.7668 55.4533 62.9381C57.0773 62.9381 58.1971 62.8251 59.5942 62.7668ZM55.338 92.9057C55.5073 92.964 55.6729 92.964 55.9538 92.9057C55.7845 92.9057 55.5073 92.7344 55.338 92.9057ZM56.2923 61.0687C56.2923 60.8975 56.1806 61.0104 56.1806 60.8428C55.5073 60.8428 55.0608 60.7845 54.5567 60.9558L56.2923 61.0687ZM54.6683 78.9713C54.3334 78.9713 54.0525 78.9167 53.7717 78.8037C53.7141 78.8584 53.7717 78.9167 53.8293 79.0879C54.0525 79.0296 54.499 79.0296 54.6683 78.975M55.1148 76.7595C54.499 76.7012 53.9949 76.5336 53.4908 76.5336C53.8833 76.8178 54.499 76.7595 55.1148 76.7595ZM53.3792 74.7225C54.1066 74.7808 54.8915 74.7225 55.7305 74.6096C55.0608 74.6096 53.9949 74.5549 53.3792 74.7225ZM53.2676 95.1139C53.0983 95.1139 52.9867 95.1139 53.0443 95.1686C53.2135 95.1686 53.2676 95.1686 53.2676 95.1139ZM53.0443 90.8651L52.9903 90.9234V90.9781C53.606 90.9781 53.9985 91.0327 54.445 90.9781C54.0525 90.8068 53.4368 91.0327 53.0443 90.8651ZM52.7634 82.0286H52.6518C52.8211 82.2545 52.5942 82.4804 52.7634 82.6517C52.7634 82.3711 52.8211 82.1999 52.7634 82.0286ZM55.4533 59.0281C54.3334 59.0281 53.5484 58.8569 52.6554 59.1411C53.9445 59.0864 54.391 59.2541 55.4533 59.0281ZM52.6518 89.0541C52.6518 88.8282 52.7634 88.6569 52.5942 88.4856C52.5402 88.5986 52.5942 88.7699 52.6518 89.0541ZM52.5402 93.7001C52.3709 93.7584 52.2593 93.5871 52.2053 93.7584C52.3745 93.7584 52.5402 93.8713 52.5402 93.7001ZM54.3334 62.4862C53.6636 62.315 53.0443 62.4316 52.4322 62.5992C52.2089 62.5992 51.928 62.4862 51.8704 62.6539C52.7094 62.5992 53.4944 62.7122 54.3334 62.4826M51.8704 61.9178C52.0397 61.9178 52.1513 62.0307 52.2053 61.8595C52.0361 62.0307 51.9244 61.7465 51.8704 61.9178ZM51.5896 61.127C51.7552 61.353 52.0937 61.24 52.3745 61.2983C52.3205 61.127 52.4322 61.2983 52.3745 61.127C52.1513 61.0724 51.8704 61.0724 51.5896 61.127ZM51.5319 72.9079C51.4779 73.7569 51.5896 74.267 51.7552 74.8901C51.9244 74.0411 51.6976 73.5893 51.5319 72.9079ZM51.5896 72.0005C51.5896 71.8329 51.5319 71.7163 51.4779 71.6616C51.5319 71.8329 51.4239 71.8329 51.5896 72.0005ZM51.4779 58.0115C51.5319 58.0661 51.4239 58.1245 51.5896 58.1245V58.0662C51.5896 58.0115 51.5319 58.0115 51.5319 57.9532C51.5319 57.9921 51.5139 58.0115 51.4779 58.0115ZM51.5896 68.3202C51.4203 68.3202 51.4203 68.4914 51.5896 68.4914V68.3202ZM51.3663 79.1973H51.1971C51.2547 79.7074 51.1971 80.0463 51.3663 80.5564C51.6472 80.1593 51.3087 79.6491 51.3663 79.1973ZM51.0278 93.9843C51.0278 94.0973 51.0854 94.1519 51.2511 94.1519C51.3627 94.1519 51.4743 94.1519 51.5283 94.0973L51.0242 93.9843H51.0278ZM50.6929 91.4882C50.9738 91.4882 50.8622 91.2076 50.8046 91.0327C50.8622 91.2623 50.6929 91.317 50.6929 91.4882ZM51.0278 96.4767C51.4203 96.4221 51.1395 96.4221 50.8622 96.4221H50.7506C50.6966 96.4221 50.5849 96.4767 50.6389 96.4767H51.0314H51.0278ZM50.3581 73.418C50.3581 73.3816 50.3389 73.3633 50.3005 73.3633C50.3005 73.8735 50.2464 74.0994 50.3005 74.7225C50.3581 74.4383 50.3005 73.8735 50.3581 73.418ZM50.0196 61.5206C50.0196 61.5789 50.0196 61.6336 50.0772 61.6919C50.0772 61.6336 50.1312 61.6336 50.1888 61.6336C50.2428 61.4623 50.0772 61.4623 50.0196 61.5206ZM50.0196 69.6247C50.0772 69.3405 50.0196 69.0562 50.0196 68.8886C49.9656 69.0599 49.9656 69.3988 49.9656 69.8506C50.0196 70.0182 50.0196 69.6793 50.0196 69.6247ZM49.9656 68.3202C49.9656 68.4914 49.9656 68.6044 50.0196 68.6627C50.0772 68.6044 50.1312 68.3202 49.9656 68.3202ZM49.6847 91.3753C49.6847 91.5465 49.6847 91.6012 49.7387 91.6012C49.7387 91.4882 49.7387 91.4336 49.6847 91.3753ZM49.2958 59.0281C50.1348 59.1958 51.2007 59.1411 52.0397 59.0865C52.0397 58.9735 51.9857 58.8605 51.8704 58.8022C51.4239 58.8605 50.9198 58.8605 50.3041 58.8605C49.9116 58.9188 49.5191 58.8605 49.2958 59.0318M49.2382 94.1519C49.2382 94.2685 49.2958 94.3232 49.3498 94.3232C49.3138 94.2843 49.2958 94.2467 49.2958 94.2102L49.2382 94.1519ZM48.9033 60.0484C48.9033 59.9355 48.8493 59.8808 48.7917 59.8808V60.0484H48.9033ZM48.9033 59.1994C48.8493 59.1411 48.7917 59.1411 48.6801 59.1411C48.6801 59.3124 48.9033 59.2541 48.9033 59.1994ZM48.9573 58.9735C48.8997 58.9735 48.6765 58.8605 48.6225 59.0318C48.6801 59.0318 48.9033 59.1448 48.9573 58.9735ZM48.6225 93.7001C48.5648 93.8713 48.5648 93.9843 48.6225 94.1519C48.6225 93.9843 48.6801 93.7584 48.6225 93.7001ZM48.6225 88.7699C48.5648 88.9411 48.5648 89.0541 48.6225 89.167C48.6801 88.9958 48.6801 88.7152 48.6225 88.7699ZM48.5648 93.3029C48.5648 93.5288 48.5648 93.6418 48.6225 93.7001C48.6225 93.4742 48.6225 93.3612 48.5648 93.3029ZM48.6225 66.5638C48.5648 66.3925 48.6225 66.1666 48.5648 65.9953V65.7694C48.5648 65.4852 48.5072 65.7694 48.5072 65.937C48.6765 66.7861 48.284 67.7517 48.6765 68.2582C48.7305 67.8647 48.6189 67.4092 48.6765 67.012L48.6189 67.0703C48.6765 66.9573 48.6765 66.7861 48.6765 66.5601H48.6189L48.6225 66.5638ZM48.6801 85.2608C48.6225 84.9765 48.7341 84.7506 48.6801 84.3534C48.5108 84.4081 48.6225 84.2951 48.4568 84.3534C48.5144 84.6376 48.5144 84.9765 48.6801 85.2608ZM48.3992 58.518C48.6225 58.5763 48.7917 58.5763 48.9609 58.4597C48.7917 58.518 48.5685 58.4597 48.3992 58.518ZM48.23 95.5111H48.1183C48.0607 95.6824 48.1724 95.5694 48.23 95.6277V95.5111ZM47.8951 69.9053C47.9527 70.5284 47.7835 70.7543 47.9527 71.1515C47.8951 70.6413 48.0643 70.1895 47.8951 69.9053ZM48.0067 59.0865C48.0643 58.9152 48.2876 59.0865 48.3416 59.0281L47.8915 58.9698C47.8375 59.0281 47.8915 59.1958 47.8915 59.2541C48.1724 59.2541 48.284 59.1958 48.23 59.1411C48.1724 59.0864 48.0067 59.1411 48.0067 59.0865ZM47.7835 87.6949C47.9527 88.1467 47.7259 88.3763 47.8951 88.7699C48.0643 88.4856 47.9527 87.9208 47.7835 87.6949ZM47.8375 69.1692C47.8375 68.9979 47.8375 68.885 47.7799 68.885C47.7799 69.0562 47.7799 69.1109 47.8375 69.1692ZM47.5026 75.5133C47.3334 76.3623 47.391 77.6668 47.445 78.8547C47.6142 77.9474 47.5026 76.9854 47.5026 76.1364C47.5602 75.8521 47.5602 75.6262 47.5026 75.5133ZM47.2793 95.6824C47.2793 95.737 47.1101 95.7953 47.2793 95.85C47.2793 95.7953 47.445 95.6824 47.2793 95.6824ZM47.2217 89.7355C47.2217 89.2836 47.3334 88.7699 47.1677 88.2633C47.1677 88.7735 47.0561 89.2836 47.2217 89.7938V89.7391V89.7355ZM47.0561 59.4253C47.0561 59.3124 47.0021 59.2541 46.8328 59.1994V59.4253H47.0561ZM46.8292 58.0662C46.9985 58.1245 47.2793 58.1791 47.3334 58.0115C47.1677 58.0115 46.8869 57.8985 46.8292 58.0662ZM46.7752 62.315L47.1677 62.202C47.391 62.1437 46.7752 62.202 46.7752 62.1437V62.315ZM46.8869 96.9286C46.8869 96.7573 46.7752 96.8156 46.7176 96.7573V96.9286H46.8869ZM67.7682 59.9938V61.0141C67.7682 61.1817 67.6565 61.5789 67.6565 61.8631C67.6565 62.0344 67.7142 62.089 67.7142 62.1473C67.7142 62.5445 67.5449 62.8288 67.5449 63.1093C67.3757 63.7325 67.5449 64.5815 67.1524 64.8657C66.9292 65.037 66.6483 64.8074 66.2558 64.8074C64.4086 64.6361 63.4003 64.8657 61.6647 64.6945C59.4826 64.5232 56.962 64.8074 54.7799 64.6361C54.1642 64.5815 53.7717 64.6361 53.3252 64.6361L53.1559 68.8303C52.9903 70.8126 52.821 72.456 53.4368 74.0958H56.2923C56.7964 74.0375 57.3545 73.9828 57.9703 74.0375H58.9785C59.7059 74.0375 60.5449 74.0958 61.2182 74.0958C61.6107 74.0375 62.0032 74.0375 62.4497 74.0958C62.7306 74.0958 63.8504 74.0958 64.1313 74.267C64.4122 74.6642 64.4122 75.5679 64.4122 76.191C64.4698 77.153 64.5238 78.3446 64.4698 79.4195C64.4122 79.8714 64.4698 80.6658 64.1889 80.837C64.0197 80.8953 63.3499 80.837 63.1231 80.837C62.2265 80.837 61.6107 80.7241 60.5485 80.7787C60.102 80.7787 59.2054 80.837 58.7012 80.837C58.532 80.837 58.3087 80.7241 58.0315 80.7241C57.639 80.6658 57.2465 80.8953 56.854 80.7241C55.5685 80.8953 54.7835 80.7241 53.4404 80.7787C53.2171 83.9526 53.0479 86.8422 53.2712 90.2967C54.5567 90.2967 55.8458 90.4679 56.908 90.2967C58.9245 90.5809 61.1642 90.4679 63.3463 90.4679C63.8504 90.4679 64.3006 90.5262 64.9127 90.4679C65.0819 90.4679 65.1936 90.4133 65.3628 90.4133C65.532 90.355 65.8093 90.4133 66.0326 90.4133C66.4251 90.4133 66.6483 90.4133 66.7059 90.4679C66.9292 90.2967 66.9868 90.1873 67.2676 90.355C67.6601 91.8854 67.7718 93.6964 67.3793 95.2269C67.4333 96.0759 67.21 96.5314 67.156 97.3804C66.9328 97.4351 66.7635 97.3804 66.6519 97.2092C64.5814 97.2092 62.6766 97.0962 60.941 97.0962C60.0444 97.0962 59.1477 96.9833 58.2547 97.0416C56.7424 97.2092 55.4569 97.3258 53.9445 97.3804C51.6508 97.5517 49.3534 97.2675 46.7212 97.4351C46.552 97.2638 46.4403 97.2638 46.2747 97.0926C46.2747 94.826 46.1631 92.5049 46.1631 90.0707C46.1055 87.1811 46.0515 84.5757 46.2171 81.4018C46.2747 80.0973 46.2171 79.0224 46.1631 77.7215C46.1631 76.9854 46.1631 76.191 46.1055 75.5133C46.1055 75.1161 46.1055 74.6059 46.1631 74.1541C46.1631 74.2124 46.2171 74.0958 46.2747 73.8698C46.2747 73.8115 46.2171 73.531 46.2171 73.3597C46.3863 70.583 46.1055 67.8647 46.2747 65.2046C46.2747 64.126 46.2171 63.051 46.2171 61.9761C46.2171 61.353 46.3863 60.6716 46.1631 60.1614C46.4403 59.7642 46.2171 58.4633 46.2747 57.9532C46.3287 57.7819 46.6096 57.7819 46.6096 57.5013C48.176 57.443 50.6389 57.3301 52.6014 57.3301C54.1138 57.556 55.4569 57.3884 57.1925 57.3884C58.4816 57.3884 59.8247 57.5013 61.1138 57.5013C62.1761 57.443 63.1267 57.5013 64.1925 57.5596C65.2548 57.5596 66.3206 57.3884 67.3829 57.618C67.3829 58.0151 67.4945 58.2957 67.5521 58.5799C67.6097 58.7476 67.5521 58.7476 67.5521 58.9188C67.6097 59.0901 67.7214 59.2031 67.7214 59.3707C67.7754 59.429 67.7754 59.6549 67.7754 59.9938"></path>
<path fill="white" d="M93.8564 61.4659C93.8024 61.4659 93.8564 61.5242 93.6908 61.4659C93.7484 61.6372 93.8564 61.6919 93.8024 61.8631C93.9717 61.8048 93.8564 61.6372 93.8564 61.4659ZM93.6332 64.1296C93.5756 64.075 93.5216 64.075 93.4099 64.075C93.4675 64.2426 93.3523 64.4139 93.5216 64.4139C93.5756 64.3556 93.5756 64.1879 93.6332 64.1296ZM93.6872 58.1245C93.6296 58.1245 93.7448 58.0115 93.572 58.0115C93.572 58.1791 93.2947 58.0115 93.2947 58.1791C93.3487 58.1791 93.4639 58.2374 93.518 58.2921C93.518 58.1245 93.6296 58.1791 93.6872 58.1245ZM92.8482 91.2623C93.1291 91.2623 93.2407 91.2623 93.2983 91.2076C93.1291 91.2076 92.7942 91.2076 92.8482 91.2623ZM92.3441 62.202C92.3441 62.0307 92.4557 61.8595 92.2901 61.8595C92.2901 61.9178 92.3441 62.1437 92.1784 62.202H92.3477H92.3441ZM92.4557 96.4184C92.3981 96.4731 92.5097 96.2472 92.3441 96.3018C92.3441 96.4731 92.1748 96.3601 92.1208 96.4184C92.1784 96.4731 92.4017 96.5861 92.4593 96.4184M91.7823 93.4742C92.0092 93.6454 92.0632 93.8713 92.4557 93.7001C92.4557 93.5288 92.3981 93.5871 92.4557 93.4159C92.0632 93.4159 91.84 93.4159 91.7823 93.4742ZM92.0092 59.0281C91.84 58.9698 91.7824 59.0281 91.7283 59.0281C91.7283 59.1958 91.9516 59.1411 92.0092 59.1958C92.0632 59.0281 91.9516 59.0828 92.0092 59.0281ZM90.9434 95.0593C91.3358 95.2852 92.0092 95.2269 92.5097 95.2269C92.5673 95.0593 92.3981 95.1139 92.3981 94.9427C91.894 95.001 91.2242 94.8844 90.9434 95.0593ZM92.1748 60.5586C91.7823 60.5003 91.2782 60.5586 90.8893 60.5586C90.8893 60.7299 90.7741 60.6716 90.9434 60.8428C91.4475 60.7845 91.9516 60.9558 92.1748 60.5586ZM90.6085 62.7668C91.1126 62.7122 91.3358 62.8251 91.7283 62.6539C91.3358 62.5992 91.2242 62.5992 90.6085 62.5992V62.7668ZM90.6085 76.6465C90.6085 76.5882 90.5509 76.5882 90.4932 76.5882C90.4932 76.7595 90.5509 76.7595 90.6085 76.7012V76.6429V76.6465ZM90.6661 78.4612C90.6085 78.4612 90.6085 78.5195 90.4392 78.4612C90.4968 78.6325 90.6085 78.5195 90.6661 78.6871V78.4612ZM92.3981 59.7096C91.5591 59.5383 91.001 59.1411 90.1044 59.3124C90.4968 59.3707 90.6661 59.4253 91.055 59.4253C91.2242 59.8225 91.9516 59.5383 92.1172 59.8225C92.2865 59.7642 92.3405 59.8808 92.3981 59.7096ZM92.4557 58.2921C92.2325 58.1245 91.894 58.1791 91.7283 58.0078C91.2242 58.0625 90.4392 58.0078 89.9927 58.0078C90.0467 58.2338 90.4392 58.0078 90.3852 58.405C91.1126 58.2338 91.84 58.4633 92.4557 58.2921ZM89.7119 93.1353C89.7119 93.1899 89.8235 93.1899 90.0467 93.1353C89.8775 93.1353 89.8775 93.1899 89.7119 93.1353ZM90.4392 79.8204C90.216 79.8204 89.8235 79.7621 89.6579 79.8204C89.9387 79.8204 90.2736 79.9916 90.4392 79.8204ZM89.7119 77.5539C89.7119 77.6668 89.6579 77.7798 89.6002 77.8381C89.6579 77.8964 89.7119 77.8964 89.8235 77.8964C89.8235 77.7251 89.8235 77.6705 89.8775 77.6122C89.7083 77.6705 89.8775 77.5539 89.7083 77.5539M89.2654 77.215C89.2654 77.3862 89.7119 77.3862 89.6579 77.215H89.2654ZM88.484 76.1947C88.6496 76.4206 88.8765 76.3659 89.269 76.4206C89.269 76.3623 89.323 76.4206 89.323 76.2493C89.0457 76.0781 88.7612 76.191 88.484 76.191M88.4264 76.8178C88.5956 76.7595 88.7072 76.8178 88.7612 76.7595C88.5956 76.7595 88.4264 76.6465 88.4264 76.8178ZM88.3687 78.6288C88.9845 78.6871 89.4886 78.8001 90.1044 78.7418C89.4886 78.5159 88.9305 78.4575 88.3687 78.6288ZM88.0339 62.1437C88.538 62.089 89.3194 62.315 89.6002 62.0307C88.9269 61.9761 88.6496 62.089 88.0339 62.1437ZM89.7695 59.5383C89.1537 59.48 88.538 59.1958 87.8646 59.367C88.3687 59.5383 89.1537 59.7059 89.7695 59.5383ZM87.9222 62.1437C87.753 62.1437 87.8682 62.202 88.0339 62.1437H87.9222ZM87.753 94.775C88.6496 94.6038 89.9927 94.7167 90.8893 94.5455C89.9927 94.4908 89.377 94.5455 88.0879 94.4908C88.0339 94.6584 87.8106 94.6038 87.753 94.775ZM87.5298 79.3102C87.6414 79.4232 87.6954 79.4232 87.753 79.3102C87.753 79.2556 87.5298 79.2556 87.5298 79.3102ZM87.753 63.3899C87.5838 63.4482 87.5297 63.277 87.4721 63.4482C87.5297 63.4482 87.753 63.5612 87.753 63.3899ZM86.914 95.8536C87.3065 96.0249 87.699 95.8536 88.3111 95.9119C88.3111 95.8536 88.2571 95.7407 88.1995 95.686C87.7494 95.7407 87.3029 95.686 86.9104 95.8536M87.0832 94.7204C87.5333 94.6621 86.914 94.6621 86.6908 94.7204C86.914 94.7787 86.914 94.7204 87.0832 94.7204ZM86.6908 75.3456C86.86 75.4039 87.0832 75.4039 87.0256 75.2327C86.8564 75.2327 86.2983 75.291 86.6908 75.3456ZM86.4099 80.1046C86.4099 80.2759 86.2983 80.2176 86.2983 80.3888C86.914 80.2176 87.3065 80.4471 87.8106 80.2759C87.4181 80.1046 86.86 80.1629 86.4099 80.1046ZM86.2406 92.115C86.4099 92.115 86.7448 92.2826 86.914 92.115C86.86 91.9437 86.4099 92.115 86.2406 92.115ZM86.1866 93.7547C86.1866 93.813 86.1866 93.8677 86.2442 93.8677C86.6367 93.8677 87.0832 94.0936 87.3065 93.926C86.86 93.8677 86.6331 93.7547 86.1866 93.7547ZM87.5298 60.1067C86.914 60.1067 86.5215 60.1068 86.129 60.0484C86.6331 60.2197 87.0796 60.2744 87.5298 60.1067ZM87.3605 78.2899C86.968 78.1187 86.4099 78.2899 86.0174 78.1187C86.0174 78.2899 85.8482 78.1187 85.8482 78.2899C86.2983 78.2899 86.6331 78.4029 87.0256 78.4029C87.1913 78.4029 87.3065 78.5159 87.3605 78.2899ZM85.5709 59.5966C85.7401 59.5966 85.9634 59.6513 86.1326 59.5966C86.075 59.6513 85.7401 59.4253 85.5709 59.5966ZM85.236 58.2374C85.4052 58.2374 85.6285 58.3504 85.7977 58.1791C85.6285 58.2374 85.4052 58.1791 85.236 58.2374ZM85.1208 91.3206C85.1208 91.4882 85.5133 91.3753 85.5709 91.3206H85.1208ZM85.0668 75.8558C85.6825 75.8558 86.2442 76.14 86.86 75.9688C86.4675 75.7975 86.1866 75.9688 86.021 75.7975C85.7977 76.0271 85.236 75.6845 85.0704 75.8558M84.8435 91.3206C84.8435 91.4882 85.0668 91.3753 85.0668 91.3206H84.8435ZM84.5627 76.4206C84.6203 76.5882 84.451 76.4753 84.6203 76.6465C85.0668 76.4753 85.5709 76.6465 86.0174 76.4753C85.6249 76.5336 85.0668 76.4206 84.5627 76.4206ZM84.3394 74.5513C84.5086 74.5513 84.6743 74.6059 84.8435 74.5513C84.5627 74.493 84.397 74.493 84.3394 74.5513ZM84.1702 77.6122C84.5627 77.6122 84.8975 77.8964 85.1784 77.6122C84.7859 77.6705 84.3934 77.4409 84.1702 77.6122ZM85.29 58.6346C84.6743 58.6346 84.2278 58.5216 83.9469 58.6893C84.3394 59.0864 84.8435 58.8022 85.29 58.6346ZM83.8929 91.8307C84.0585 91.8307 84.3394 92.002 84.5086 91.8307C84.451 91.8307 83.8929 91.6595 83.8929 91.8307ZM83.7237 60.1614C83.7813 60.3327 83.6696 60.2744 83.7237 60.3327C84.3394 60.3327 84.7859 60.3327 85.4052 60.2744C85.5745 60.3327 85.4629 60.2161 85.2936 60.2744C84.7355 60.1614 84.2314 60.1031 83.7813 60.1614H83.7237ZM84.1702 93.2482C83.8893 93.1899 83.5544 93.3065 83.3312 93.2482C83.3312 93.3065 83.3888 93.4195 83.4428 93.4742L83.7777 93.5871L84.1702 93.2446V93.2482ZM82.5462 95.2305C82.9387 95.2852 83.5544 95.1722 83.9469 95.2305C83.4428 95.0629 82.9963 95.0629 82.5462 95.2305ZM82.2689 79.9333C82.2689 79.9333 82.2689 79.9916 82.3229 80.1046C82.7694 80.0499 83.2195 80.1629 83.6084 79.9916C83.2159 79.9333 82.8811 79.8787 82.2653 79.9333M86.2983 62.7668C85.1208 62.5992 83.9469 62.6539 82.7694 62.8251C82.5462 62.8251 82.3229 62.7668 82.1537 62.9381C83.7777 62.9381 84.8939 62.8251 86.2947 62.7668M82.0421 92.9057C82.2113 92.964 82.3769 92.964 82.6578 92.9057C82.4886 92.9057 82.2113 92.7344 82.0421 92.9057ZM82.9963 61.0687C82.9963 60.8975 82.8847 61.0104 82.8847 60.8428C82.2113 60.8428 81.7648 60.7845 81.2607 60.9558L82.9963 61.0687ZM81.3723 78.9713C81.0374 78.9713 80.7566 78.9167 80.4757 78.8037C80.4181 78.8584 80.4757 78.9167 80.5297 79.0879C80.7566 79.0296 81.1995 79.0296 81.3687 78.975M81.8188 76.7595C81.2031 76.7012 80.6989 76.5336 80.1948 76.5336C80.5873 76.8178 81.2031 76.7595 81.8188 76.7595ZM80.0832 74.7225C80.8106 74.7808 81.5956 74.7225 82.4346 74.6096C81.7612 74.6096 80.6989 74.5549 80.0832 74.7225ZM79.9716 95.1139C79.8023 95.1139 79.6907 95.1139 79.7483 95.1686C79.914 95.1686 79.9716 95.1686 79.9716 95.1139ZM79.7483 90.8651L79.6907 90.9234V90.9781C80.3065 90.9781 80.6989 91.0327 81.1455 90.9781C80.7566 90.8068 80.1372 91.0327 79.7447 90.8651M79.4675 82.0286H79.3558C79.5251 82.2545 79.3018 82.4804 79.4675 82.6517C79.4675 82.3711 79.5251 82.1999 79.4675 82.0286ZM82.1573 59.0281C81.0374 59.0281 80.2524 58.8569 79.3594 59.1411C80.6485 59.0864 81.095 59.2541 82.1573 59.0281ZM79.3558 89.0541C79.3558 88.8282 79.4675 88.6569 79.3018 88.4856C79.2442 88.5986 79.3018 88.7699 79.3558 89.0541ZM79.2442 93.7001C79.075 93.7584 78.9633 93.5871 78.9093 93.7584C79.0786 93.7584 79.2442 93.8713 79.2442 93.7001ZM81.0374 62.4862C80.3641 62.315 79.7483 62.4316 79.1326 62.5992C78.9093 62.5992 78.6285 62.4862 78.5744 62.6539C79.4134 62.5992 80.1984 62.7122 81.0374 62.4826M78.5744 61.9178C78.7401 61.9178 78.8517 62.0307 78.9093 61.8595C78.7401 62.0307 78.6285 61.7465 78.5744 61.9178ZM78.2936 61.127C78.4628 61.353 78.7977 61.24 79.0786 61.2983C79.0246 61.127 79.1362 61.2983 79.0786 61.127C78.8517 61.0724 78.5744 61.0724 78.2936 61.127ZM78.236 72.9079C78.182 73.7569 78.2936 74.267 78.4628 74.8901C78.6285 74.0411 78.4052 73.5893 78.236 72.9079ZM78.2936 72.0005C78.2936 71.8329 78.236 71.7163 78.182 71.6616C78.236 71.8329 78.1243 71.8329 78.2936 72.0005ZM78.182 58.0115C78.236 58.0661 78.1243 58.1245 78.2936 58.1245V58.0662C78.2936 58.0115 78.236 58.0115 78.236 57.9532C78.236 57.9921 78.218 58.0115 78.182 58.0115ZM78.2936 68.3202C78.1243 68.3202 78.1243 68.4914 78.2936 68.4914V68.3202ZM78.0703 79.1973H77.9047C77.9587 79.7074 77.9047 80.0463 78.0703 80.5564C78.3512 80.1593 78.0163 79.6491 78.0703 79.1973ZM77.7355 93.9843C77.7355 94.0973 77.7895 94.1519 77.9587 94.1519C78.0703 94.1519 78.182 94.1519 78.2396 94.0973L77.7355 93.9843ZM77.397 91.4882C77.6778 91.4882 77.5662 91.2076 77.5086 91.0327C77.5662 91.2623 77.397 91.317 77.397 91.4882ZM77.7355 96.4767C78.1279 96.4221 77.8471 96.4221 77.5662 96.4221H77.451C77.397 96.4221 77.2853 96.4767 77.3394 96.4767H77.7318H77.7355ZM77.0621 73.418C77.0621 73.3816 77.0441 73.3633 77.0081 73.3633C77.0081 73.8735 76.9505 74.0994 77.0081 74.7225C77.0621 74.4383 77.0081 73.8735 77.0621 73.418ZM76.7272 61.5206C76.7272 61.5789 76.7272 61.6336 76.7812 61.6919C76.7812 61.6336 76.8388 61.6336 76.8965 61.6336C76.9505 61.4623 76.7812 61.4623 76.7272 61.5206ZM76.7272 69.6247C76.7812 69.3405 76.7272 69.0562 76.7272 68.8886C76.6732 69.0599 76.6732 69.3988 76.6732 69.8506C76.7272 70.0182 76.7272 69.6793 76.7272 69.6247ZM76.6696 68.3202C76.6696 68.4914 76.6696 68.6044 76.7236 68.6627C76.7776 68.6044 76.8352 68.3202 76.6696 68.3202ZM76.3887 91.3753C76.3887 91.5465 76.3887 91.6012 76.4463 91.6012C76.4463 91.4882 76.4463 91.4336 76.3887 91.3753ZM75.9998 59.0281C76.8388 59.1958 77.9047 59.1411 78.7401 59.0865C78.7401 58.9735 78.6861 58.8605 78.5744 58.8022C78.1243 58.8605 77.6238 58.8605 77.0081 58.8605C76.6156 58.9188 76.2231 58.8605 75.9998 59.0318M75.9422 94.1519C75.9422 94.2685 75.9998 94.3232 76.0539 94.3232C76.0154 94.2843 75.9962 94.2467 75.9962 94.2102L75.9386 94.1519H75.9422ZM75.6074 60.0484C75.6074 59.9355 75.5533 59.8808 75.4957 59.8808V60.0484H75.6074ZM75.6074 59.1994C75.5533 59.1411 75.4957 59.1411 75.3841 59.1411C75.3841 59.3124 75.6074 59.2541 75.6074 59.1994ZM75.6614 58.9735C75.6037 58.9735 75.3805 58.8605 75.3265 59.0318C75.3805 59.0318 75.6037 59.1448 75.6614 58.9735ZM75.3265 93.7001C75.2689 93.8713 75.2689 93.9843 75.3265 94.1519C75.3265 93.9843 75.3805 93.7584 75.3265 93.7001ZM75.3265 88.7699C75.2689 88.9411 75.2689 89.0541 75.3265 89.167C75.3805 88.9958 75.3805 88.7152 75.3265 88.7699ZM75.2725 93.3029C75.2725 93.5288 75.2725 93.6418 75.3301 93.7001C75.3301 93.4742 75.3301 93.3612 75.2725 93.3029ZM75.3265 66.5638C75.2689 66.3925 75.3265 66.1666 75.2689 65.9953V65.7694C75.2689 65.4852 75.2113 65.7694 75.2113 65.937C75.3805 66.7861 74.988 67.7517 75.3805 68.2582C75.4345 67.8647 75.3265 67.4092 75.3805 67.012L75.3265 67.0703C75.3805 66.9573 75.3805 66.7861 75.3805 66.5601H75.3265V66.5638ZM75.3841 85.2608C75.3301 84.9765 75.4381 84.7506 75.3841 84.3534C75.2149 84.4081 75.3301 84.2951 75.1572 84.3534C75.2149 84.6376 75.2149 84.9765 75.3841 85.2608ZM75.1032 58.518C75.3301 58.5763 75.4957 58.5763 75.665 58.4597C75.4957 58.518 75.2725 58.4597 75.1032 58.518ZM74.934 95.5111H74.8224C74.7648 95.6824 74.88 95.5694 74.934 95.6277V95.5111ZM74.5991 69.9053C74.6531 70.5284 74.4875 70.7543 74.6531 71.1515C74.5991 70.6413 74.7648 70.1895 74.5991 69.9053ZM74.7107 59.0865C74.7648 58.9152 74.9916 59.0865 75.0456 59.0281L74.5991 58.9698C74.5415 59.0281 74.5991 59.1958 74.5991 59.2541C74.88 59.2541 74.9916 59.1958 74.934 59.1411C74.8764 59.0864 74.7107 59.1411 74.7107 59.0865ZM74.4875 87.6949C74.6567 88.1467 74.4299 88.3763 74.5991 88.7699C74.7648 88.4856 74.6531 87.9208 74.4875 87.6949ZM74.5415 69.1692C74.5415 68.9979 74.5415 68.885 74.4839 68.885C74.4839 69.0562 74.4839 69.1109 74.5415 69.1692ZM74.2066 75.5133C74.0374 76.3623 74.095 77.6668 74.149 78.8547C74.3182 77.9474 74.2066 76.9854 74.2066 76.1364C74.2606 75.8521 74.2606 75.6262 74.2066 75.5133ZM73.9834 95.6824C73.9834 95.737 73.8141 95.7953 73.9834 95.85C73.9834 95.7953 74.149 95.6824 73.9834 95.6824ZM73.9258 89.7355C73.9258 89.2836 74.0374 88.7699 73.8717 88.2633C73.8717 88.7735 73.7565 89.2836 73.9258 89.7938V89.7391V89.7355ZM73.7565 59.4253C73.7565 59.3124 73.6989 59.2541 73.5333 59.1994V59.4253H73.7565ZM73.5333 58.0662C73.6989 58.1245 73.9834 58.1791 74.0374 58.0115C73.8717 58.0115 73.5909 57.8985 73.5333 58.0662ZM73.4793 62.315L73.8717 62.202C74.095 62.1437 73.4793 62.202 73.4793 62.1437V62.315ZM73.5909 96.9286C73.5909 96.7573 73.4792 96.8156 73.4216 96.7573V96.9286H73.5909ZM94.4722 59.9938V61.0141C94.4722 61.1817 94.3605 61.5789 94.3605 61.8631C94.3605 62.0344 94.4146 62.089 94.4146 62.1473C94.4146 62.5445 94.2453 62.8288 94.2453 63.1093C94.0761 63.7325 94.2453 64.5815 93.8528 64.8657C93.6296 65.037 93.3487 64.8074 92.9562 64.8074C91.109 64.6361 90.1008 64.8657 88.3651 64.6945C86.183 64.5232 83.6624 64.8074 81.4803 64.6361C80.8646 64.5815 80.4721 64.6361 80.0256 64.6361L79.8564 68.8303C79.6871 70.8126 79.5215 72.456 80.1372 74.0958H82.9927C83.4968 74.0375 84.0549 73.9828 84.6707 74.0375H85.6789C86.4063 74.0375 87.2453 74.0958 87.9186 74.0958C88.3111 74.0375 88.7036 74.0375 89.1501 74.0958C89.4274 74.0958 90.5509 74.0958 90.8281 74.267C91.109 74.6642 91.109 75.5679 91.109 76.191C91.163 77.153 91.2206 78.3446 91.163 79.4195C91.109 79.8714 91.163 80.6658 90.8857 80.837C90.7165 80.8953 90.0467 80.837 89.8235 80.837C88.9269 80.837 88.3111 80.7241 87.2489 80.7787C86.8024 80.7787 85.9058 80.837 85.4016 80.837C85.2324 80.837 85.0092 80.7241 84.7283 80.7241C84.3358 80.6658 83.9433 80.8953 83.5508 80.7241C82.2653 80.8953 81.4803 80.7241 80.1372 80.7787C79.9104 83.9526 79.7447 86.8422 79.968 90.2967C81.2535 90.2967 82.5426 90.4679 83.6048 90.2967C85.6213 90.5809 87.861 90.4679 90.0431 90.4679C90.5473 90.4679 90.9938 90.5262 91.6131 90.4679C91.7787 90.4679 91.894 90.4133 92.0596 90.4133C92.2289 90.355 92.5061 90.4133 92.733 90.4133C93.1255 90.4133 93.3487 90.4133 93.4063 90.4679C93.6296 90.2967 93.6872 90.1873 93.9681 90.355C94.3606 91.8854 94.4722 93.6964 94.0797 95.2269C94.1373 96.0759 93.9104 96.5314 93.8564 97.3804C93.6332 97.4351 93.4639 97.3804 93.3523 97.2092C91.2818 97.2092 89.377 97.0962 87.6414 97.0962C86.7448 97.0962 85.8482 96.9833 84.9551 97.0416C83.4428 97.2092 82.1573 97.3258 80.6449 97.3804C78.3512 97.5517 76.0539 97.2675 73.4216 97.4351C73.256 97.2638 73.1444 97.2638 72.9751 97.0926C72.9751 94.826 72.8635 92.5049 72.8635 90.0707C72.8095 87.1811 72.7519 84.5757 72.9211 81.4018C72.9787 80.0973 72.9211 79.0224 72.8635 77.7215C72.8635 76.9854 72.8635 76.191 72.8095 75.5133C72.8095 75.1161 72.8095 74.6059 72.8635 74.1541C72.8635 74.2124 72.9211 74.0958 72.9751 73.8698C72.9751 73.8115 72.9175 73.531 72.9175 73.3597C73.0868 70.583 72.8059 67.8647 72.9751 65.2046C72.9751 64.126 72.9175 63.051 72.9175 61.9761C72.9175 61.353 73.0868 60.6716 72.8599 60.1614C73.1408 59.7642 72.9175 58.4633 72.9715 57.9532C73.0255 57.7819 73.3064 57.7819 73.3064 57.5013C74.8728 57.443 77.3358 57.3301 79.2982 57.3301C80.8106 57.556 82.1537 57.3884 83.8893 57.3884C85.1784 57.3884 86.5179 57.5013 87.807 57.5013C88.8693 57.443 89.8235 57.5013 90.8857 57.5596C91.948 57.5596 93.0138 57.3884 94.0761 57.618C94.0761 58.0151 94.1877 58.2957 94.2453 58.5799C94.2993 58.7476 94.2453 58.7476 94.2453 58.9188C94.2993 59.0901 94.4146 59.2031 94.4146 59.3707C94.4686 59.429 94.4686 59.6549 94.4686 59.9938"></path>
<path fill="white" d="M120.111 84.2946H120.057V84.6335H120.111V84.2946ZM120 83.5039C120.165 83.5586 120.165 83.278 120 83.3326V83.5039ZM120.335 87.924C119.942 87.8657 120.277 87.2972 120.111 87.1296C120.111 87.5268 120 88.0369 119.942 88.3212C120.169 88.2629 119.942 88.0952 120.111 87.9276C120.277 87.9276 120.335 88.0952 120.335 87.9276M119.834 75.4581L119.723 74.0406C119.665 74.8897 119.611 75.2869 119.78 75.9683C119.946 75.91 119.838 75.6257 119.838 75.4581M119.553 80.6689C119.611 80.9532 119.553 81.1791 119.611 81.4633C119.665 81.0661 119.665 80.8402 119.553 80.6689ZM119.218 69.9048C119.164 70.302 119.164 70.6409 119.33 70.8668C119.272 70.4696 119.442 70.0724 119.218 69.9048ZM119.161 75.2869C119.161 75.0026 119.103 74.8314 119.049 74.6637C119.049 74.948 119.107 75.0026 119.107 75.1739C119.107 75.4581 119.107 75.5711 119.164 75.5164V75.2905L119.161 75.2869ZM118.88 63.732C118.938 63.9579 118.992 64.0745 119.107 64.0745C119.164 63.9032 119.049 63.9032 118.88 63.732ZM119.384 63.2765C119.161 62.8793 119.049 62.4275 118.768 62.0303C118.822 62.2562 118.938 62.3691 118.938 62.5951C119.161 62.7627 119.161 63.2765 119.384 63.2765ZM118.657 83.1614C118.657 83.2197 118.545 83.3873 118.714 83.4456C118.714 83.2743 118.714 83.2197 118.657 83.1614ZM118.376 69.0557H118.264C118.264 69.6789 118.376 69.7335 118.376 70.4149C118.545 70.0177 118.376 69.5076 118.376 69.0557ZM117.76 92.0562C117.987 91.8849 118.095 91.7137 118.041 91.6007L117.872 91.8849L117.76 92.0562ZM117.76 74.4378H117.987C117.818 74.0406 117.929 73.4758 117.76 73.1916V74.4378ZM117.76 62.5987C117.929 62.7663 117.76 62.8829 117.814 63.1089C117.852 63.1089 117.891 63.1283 117.929 63.1672C117.987 62.9959 117.929 62.77 117.76 62.5987ZM117.483 71.6612C117.483 71.8324 117.483 72.4555 117.54 72.1713C117.483 71.9417 117.652 71.8288 117.483 71.6612ZM117.425 71.3223C117.479 71.038 117.479 70.8121 117.314 70.6409L117.425 71.3223ZM117.648 61.5201C117.648 61.2359 117.537 61.1812 117.256 61.2359C117.425 61.2942 117.479 61.4618 117.648 61.5201ZM117.202 66.9022C117.202 67.0735 117.314 66.9605 117.314 67.1318C117.202 67.2447 117.144 67.354 117.144 67.4123C117.202 67.467 117.368 67.4123 117.425 67.467C117.425 67.2411 117.368 67.1281 117.368 66.8985H117.202V66.9022ZM117.368 93.7543C117.314 93.9255 117.033 93.9255 117.09 94.0932C117.26 93.9255 117.429 93.9255 117.368 93.7543ZM117.036 62.0886C117.26 62.2598 117.26 62.5404 117.54 62.5987C117.54 62.3145 117.429 61.9173 117.148 61.7497C117.206 61.9173 117.094 61.9173 117.04 62.0886M117.26 66.5086C117.26 66.2244 117.202 65.9985 117.09 65.9402C116.867 66.1115 117.036 66.4503 117.26 66.5086ZM117.09 65.6013L116.921 65.43C116.975 65.2588 116.867 65.2041 116.809 65.0329C116.809 65.3134 116.921 65.656 117.09 65.5977M116.529 61.2395C116.529 61.4071 116.809 61.4655 116.867 61.4071C116.698 61.4071 116.698 61.2942 116.529 61.2395ZM116.698 69.227C116.64 69.0594 116.475 69.0594 116.417 68.8881C116.363 69.1724 116.417 69.3983 116.529 69.5695C116.529 69.3983 116.64 69.3983 116.698 69.2307M116.363 83.3873C116.399 83.3873 116.417 83.3691 116.417 83.3326C116.417 83.2743 116.363 83.2197 116.305 83.2197C116.251 83.6169 116.417 83.8428 116.251 84.0141C116.305 84.4112 116.305 84.7501 116.251 85.0344C116.417 85.2056 116.194 85.4898 116.363 85.6575C116.417 84.8084 116.363 84.2436 116.363 83.3909M116.251 66.1698C116.305 66.454 116.363 66.7929 116.529 67.0188C116.475 66.5669 116.363 66.2827 116.251 66.1698ZM116.14 80.7819C116.194 81.2337 116.028 81.8022 116.028 82.1994C116.421 81.9735 116.305 81.2374 116.14 80.7819ZM115.859 63.619C115.916 63.7903 116.028 63.8449 116.082 63.9032C115.913 63.732 116.082 63.619 115.859 63.619ZM115.913 72.6231C115.967 72.6231 115.913 72.4519 115.855 72.3972C115.855 72.4519 115.744 72.6778 115.913 72.6231ZM115.801 76.9886C116.028 77.8959 115.801 78.8579 116.082 79.7069C116.251 78.8579 116.028 77.7246 115.859 76.646C115.801 76.8137 115.859 76.9303 115.801 76.9886ZM115.801 72.0583C115.801 71.9454 115.801 71.8907 115.744 71.8907C115.744 72.0583 115.744 72.1166 115.801 72.0583ZM115.69 61.5784C115.747 61.6914 115.859 61.8043 115.97 61.859C115.97 61.8043 115.916 61.8043 115.916 61.6331C115.747 61.6331 115.859 61.5784 115.69 61.5784ZM115.578 83.4456C115.578 83.2743 115.524 82.5966 115.524 83.1031C115.578 83.1614 115.578 83.2743 115.578 83.4456ZM115.69 71.6065C115.69 71.4352 115.747 71.3806 115.916 71.4352C115.97 70.6992 115.636 70.3603 115.466 69.7335C115.636 70.4696 115.466 70.9251 115.69 71.6028M115.355 94.0385C115.578 93.8672 115.967 93.7543 115.913 93.3571L115.355 94.0385ZM115.412 87.3555C115.412 87.5268 115.243 87.7527 115.412 87.811C115.466 87.6434 115.636 87.5851 115.636 87.4138C115.524 87.4138 115.466 87.4138 115.412 87.3555ZM115.243 62.6534V62.8793C115.412 62.9376 115.578 63.1635 115.747 63.1052C115.578 62.934 115.524 62.6497 115.243 62.6497M115.074 91.659C115.355 91.4331 115.69 91.3165 115.744 90.9229C115.463 91.0906 115.128 91.2618 115.074 91.659ZM115.02 66.2244C115.077 66.6799 115.131 67.1864 115.301 67.416C115.131 67.1901 115.412 66.3957 115.02 66.2244ZM115.074 91.659C114.962 91.659 114.905 91.7137 114.905 91.8266C115.074 91.8266 115.016 91.7137 115.074 91.659ZM114.681 89.5638C114.905 89.3925 115.074 88.9953 115.074 88.7694C114.905 88.9989 114.681 89.3378 114.681 89.5638ZM114.739 69.7918C114.681 69.6242 114.797 69.4529 114.627 69.4529L114.739 69.7918ZM114.57 67.9225C114.627 68.4326 114.516 69.0557 114.681 69.34C114.681 68.8298 114.739 68.3197 114.57 67.9225ZM114.57 59.4249C114.57 59.5961 114.908 59.5961 114.851 59.5378C114.681 59.5378 114.735 59.4249 114.57 59.4249ZM114.404 67.2994C114.404 67.4706 114.462 67.6419 114.516 67.6966C114.458 67.5253 114.57 67.354 114.404 67.2994ZM114.346 87.7527C114.627 87.4685 114.516 86.8454 114.57 86.5612C114.404 86.7324 114.627 86.3935 114.458 86.4482L114.346 87.7527ZM114.57 64.581C114.57 64.5264 114.516 64.4134 114.346 64.2421C114.4 64.5263 114.516 64.6393 114.57 64.581ZM114.627 74.2666C114.346 74.0406 114.516 73.5305 114.346 73.1333C114.289 73.5305 114.4 73.9277 114.346 74.3795C114.57 74.3212 114.681 74.2666 114.627 74.2666ZM114.404 80.8402C114.462 80.2171 114.462 79.594 114.404 78.9126C114.404 79.3097 114.238 80.1588 114.404 80.8402ZM114.289 59.8803C114.739 60.0516 114.962 60.5035 115.463 60.3322C115.074 60.1609 114.678 59.935 114.289 59.8803ZM114.181 65.9948C114.123 65.8272 114.181 65.543 114.012 65.4847C114.069 65.656 114.012 65.8236 114.181 65.9948ZM113.842 92.6793C113.731 92.7923 113.673 92.8469 113.673 92.7923C113.842 92.8506 113.896 92.7376 113.842 92.6793ZM113.561 63.7866C113.561 63.9579 113.842 64.3551 114.012 64.3551C113.846 64.1838 113.788 63.9579 113.561 63.7866ZM113.173 63.2765C113.342 63.3311 113.23 63.5024 113.396 63.6737C113.396 63.5024 113.507 63.6154 113.677 63.5607C113.619 63.3894 113.396 63.1052 113.173 63.2765ZM112.949 62.2015C113.119 62.2015 113.173 62.5404 113.342 62.4821C113.173 62.4274 113.119 62.0303 112.949 62.2015ZM113.396 64.1838C113.342 63.9032 113.061 64.1838 112.892 64.1838C113.061 64.3551 113.23 64.2421 113.396 64.2421C113.342 64.2421 113.342 64.1838 113.396 64.1838ZM112.276 92.621C112.503 92.5663 112.614 92.508 112.668 92.4534C112.503 92.3951 112.722 92.4534 112.722 92.2821C112.557 92.2821 112.442 92.3951 112.272 92.621M112.557 90.9812C112.722 90.81 113.173 90.697 113.003 90.5257C112.892 90.6387 112.668 90.7517 112.276 90.9229C112.445 90.9229 112.503 90.9229 112.557 90.9776M113.115 94.0385C112.946 93.8672 112.272 93.8672 112.218 94.0932C112.611 94.0385 112.888 94.2061 113.115 94.0385ZM111.941 62.5987C112.11 62.5987 112.222 62.6534 112.388 62.6534C112.445 62.4274 112.11 62.4275 111.941 62.5987ZM112.611 62.0339C112.33 62.0339 111.941 61.5784 111.772 61.9792C111.937 61.9792 112.049 62.0339 112.218 62.0339C112.218 62.0886 112.218 62.1469 112.272 62.2052C112.442 62.1469 112.553 62.2052 112.611 62.0339ZM112.107 61.3525C111.995 61.2942 111.883 61.2395 111.714 61.2942C111.883 61.2942 112.164 61.4072 112.107 61.3525ZM112.218 93.2478C112.272 92.9635 111.826 93.0765 111.657 93.1348C111.88 93.1348 112.049 93.2478 112.218 93.2478ZM113.003 58.4629C112.388 58.4046 111.714 58.0657 111.102 58.2369C111.718 58.2952 112.276 58.4629 113.003 58.6341V58.4665V58.4629ZM110.933 94.0385C110.875 94.0385 110.594 94.0932 110.821 94.0932C110.987 94.0932 111.044 94.0931 111.044 94.0385H110.933ZM110.594 60.5581C110.594 60.6128 111.156 60.6128 111.322 60.5581C111.156 60.3869 110.313 60.5581 110.594 60.5581ZM110.205 62.3145C110.371 62.4858 110.656 62.3145 110.821 62.2598C110.429 62.2598 110.263 62.2598 110.205 62.3145ZM110.652 95.9078C110.371 95.8495 110.202 95.8495 110.148 95.9078C110.313 95.9625 110.429 95.9078 110.652 95.9078ZM110.036 95.9078C109.867 95.9625 109.532 95.7949 109.474 95.9625C109.755 95.9078 109.867 96.0754 110.036 95.9078ZM112.388 94.6616C111.325 94.8292 110.205 94.8292 109.309 95.1134C110.371 94.9422 111.491 94.8875 112.388 94.6616ZM109.028 59.086L109.086 59.1406C109.143 59.086 109.478 59.1406 109.309 59.086H109.028ZM108.862 58.1203C109.028 58.1203 109.366 58.3463 109.532 58.1203C109.309 58.1203 109.028 58.0657 108.862 58.1203ZM108.751 61.0136C108.916 60.9553 109.086 61.1229 109.143 60.9553C109.086 60.897 108.916 60.9553 108.751 61.0136ZM109.586 93.6413C109.363 93.8126 108.859 93.6413 108.69 93.8126C108.913 93.8126 109.586 93.8126 109.586 93.6413ZM108.636 59.086C108.805 59.086 108.805 59.1989 108.97 59.1406L109.028 59.086C108.862 59.086 108.805 59.086 108.747 59.0277C108.747 59.086 108.636 59.0277 108.636 59.086ZM108.805 94.6616C108.747 94.6033 108.355 94.5486 108.301 94.7199C108.47 94.7782 108.751 94.8329 108.805 94.6616ZM108.412 60.9006C108.243 60.9006 108.131 60.9006 108.074 60.9589C108.412 60.9589 108.632 60.9589 108.747 61.0172C108.69 60.9589 108.578 60.9043 108.412 60.9043M107.742 61.4071C107.912 61.5784 108.077 61.4655 108.247 61.4071C108.193 61.3525 108.02 61.4072 108.077 61.3525C108.135 61.3525 108.47 61.4655 108.301 61.2942C108.135 61.2942 107.796 61.2359 107.796 61.2942C107.908 61.2942 107.962 61.3525 107.962 61.4071C107.797 61.4071 107.739 61.2395 107.739 61.4071M107.854 91.3201C107.797 91.3201 107.854 91.2618 107.685 91.2618C107.685 91.3201 107.739 91.3748 107.908 91.4331C107.908 91.3942 107.89 91.3566 107.854 91.3201ZM107.796 94.8329C107.796 94.7199 107.797 94.6652 107.739 94.6652C107.739 94.8329 107.57 94.5523 107.57 94.7235C107.627 94.7235 107.57 94.8365 107.627 94.8912C107.685 94.8912 107.739 94.8912 107.796 94.8329ZM107.742 93.3607V93.1348C107.573 93.1348 107.462 93.1895 107.404 93.2478C107.573 93.1895 107.573 93.3607 107.742 93.3607ZM113.958 84.0687V82.1447C113.958 81.1791 113.9 80.2171 113.9 79.1421C113.958 78.6866 113.846 78.2348 113.846 77.7829C113.788 76.5914 113.9 75.3488 113.846 74.1572C113.846 72.1166 113.9 70.3056 113.9 68.6622C113.958 68.0391 114.069 67.4706 113.9 66.8475C113.734 65.8855 113.173 64.8652 112.503 64.468C111.887 64.0709 110.656 63.9032 109.928 63.9032C108.866 63.9579 107.969 64.1292 107.073 64.0745C107.073 65.605 106.903 66.9641 106.961 68.3233C107.015 70.5352 106.903 72.3462 106.961 73.9313C106.961 74.2155 106.903 74.4998 106.903 74.7257C106.734 77.8996 107.015 80.6726 107.015 83.6205C107.015 84.925 106.961 86.4518 107.015 87.5304C107.073 88.3795 107.127 89.797 106.961 90.759C108.808 90.9302 110.71 91.1561 112.56 90.3071C112.784 90.1358 113.176 90.0229 113.345 89.797L113.457 89.3998C113.626 89.0026 113.85 88.4378 113.907 88.0406C113.965 87.8147 113.907 87.5304 113.907 87.3045C113.965 86.9073 114.019 86.6814 114.019 86.3972C114.076 85.5481 113.965 84.8121 113.965 84.076M106.507 84.2946C106.507 84.4623 106.453 84.9724 106.507 85.0307C106.507 84.8048 106.565 84.2946 106.507 84.2946ZM106.507 66.7346C106.507 66.4503 106.507 66.3374 106.453 66.3957C106.453 66.6799 106.453 66.7929 106.507 66.7346ZM106.507 85.1437C106.507 85.4279 106.342 85.5955 106.507 85.7668C106.507 85.5955 106.565 85.1437 106.507 85.1437ZM106.507 87.4685C106.565 87.2972 106.565 87.1296 106.453 87.013C106.507 87.1843 106.342 87.2972 106.507 87.4685ZM106.507 70.1343C106.507 69.9631 106.619 69.7372 106.453 69.5659C106.507 69.7918 106.342 69.9084 106.507 70.1343ZM106.788 93.4154C106.788 93.3607 106.788 93.3024 106.731 93.3024H106.677C106.677 93.3024 106.507 93.3607 106.227 93.4154H106.788ZM105.895 89.2795C105.953 89.6767 105.838 90.0156 106.007 90.2415C106.061 90.0156 106.061 89.5054 105.895 89.2795ZM106.007 65.6013C105.838 65.7726 106.061 66.3374 105.895 66.1698C105.953 66.6799 105.784 67.3577 106.064 67.8678C106.064 66.9058 106.176 66.454 106.01 65.6013M106.565 61.4071C106.396 61.4071 106.396 61.3525 106.338 61.3525C106.281 61.3525 106.284 61.3525 106.284 61.2942C106.227 61.4618 106.115 61.2359 105.946 61.2942C105.946 61.3525 105.888 61.3525 105.888 61.4071C106.111 61.3525 106.392 61.5784 106.561 61.4071M105.78 84.8048C105.78 85.0307 105.78 85.1437 105.838 85.202C105.895 85.0307 105.838 84.4076 105.78 84.8048ZM105.838 80.0458C105.799 80.007 105.78 79.9693 105.78 79.9329V80.1041C105.78 80.1588 105.78 80.2171 105.838 80.2171V80.0458ZM105.334 68.2614C105.391 68.0937 105.391 67.8642 105.334 67.6966C105.222 67.8678 105.222 68.0937 105.334 68.2614ZM105.557 95.2264C105.388 95.0551 105.218 95.0551 105.164 95.1134C105.218 95.3977 105.388 95.3977 105.557 95.2264ZM105.053 83.7298C105.053 84.0141 105.218 84.2946 105.053 84.4659C105.218 84.6955 105.218 85.089 105.276 85.3732C105.276 85.3368 105.295 85.3186 105.334 85.3186C105.334 85.2603 105.334 85.2056 105.276 85.2603C105.334 85.0927 105.334 84.976 105.276 84.9214C105.218 84.7501 105.334 84.9214 105.334 84.8631C105.168 84.4659 105.391 84.127 105.222 83.7298H105.056H105.053ZM105.391 72.4555C105.391 72.2843 105.503 72.0583 105.445 71.8907C105.445 71.8324 105.391 71.7778 105.334 71.7195C105.168 70.4186 105.557 69.8501 105.276 68.7169C105.218 69.5659 105.11 70.6445 105.276 71.4935C105.218 71.6611 105.11 71.4935 105.053 71.6612C105.218 72.6231 105.164 73.8147 105.334 74.5508C105.334 74.1536 105.503 73.8694 105.334 73.6981C105.503 73.3009 105.391 72.8491 105.391 72.4519M105.168 64.2385C104.999 64.9746 105.11 65.2041 105.056 66.0532C105.337 65.4847 105.337 64.8616 105.168 64.2385ZM106.958 59.7091C106.507 59.6508 105.503 59.5961 104.887 59.822C105.614 59.822 106.342 59.8803 106.958 59.7091ZM104.829 74.0406C104.829 74.1536 104.829 74.2119 104.887 74.2119V74.0406H104.829ZM104.829 73.6471C104.829 73.4758 104.829 73.4175 104.775 73.4175C104.775 73.5888 104.775 73.6471 104.829 73.6471ZM104.606 59.086C104.883 59.086 105.053 59.0277 105.276 59.0277C105.276 59.1953 105.334 59.1406 105.334 59.1953C106.173 59.2536 106.9 59.137 107.739 59.1953C107.516 58.9111 107.069 59.0277 106.677 59.0277C106.003 59.0277 105.276 58.6888 104.606 59.086ZM104.829 96.9864C104.664 96.9864 104.718 96.8152 104.552 96.9864H104.829ZM104.437 65.43C104.379 65.7143 104.379 65.8855 104.437 65.9402C104.379 65.7726 104.606 65.4883 104.437 65.43C104.606 65.3754 104.491 65.2041 104.549 65.0329H104.379C104.325 65.2041 104.379 65.1458 104.379 65.43H104.437ZM104.16 71.3223C104.16 71.4935 104.048 71.7195 104.214 71.7741C104.16 71.6065 104.329 71.3769 104.16 71.3223ZM104.16 91.2618C104.102 91.546 103.936 91.8303 104.102 92.0562C104.16 91.8849 104.16 91.4877 104.16 91.2618ZM103.99 82.5966C104.048 82.8225 103.936 83.165 104.102 83.2197C104.102 82.9355 104.044 82.7642 103.99 82.5966ZM105.276 57.9527C104.772 57.9527 104.379 57.8944 103.933 57.9527C104.102 58.3499 105.053 58.1203 105.276 57.9527ZM103.99 59.086C103.936 59.0277 103.71 58.973 103.71 59.1406C103.879 59.1406 103.99 59.1406 103.99 59.086ZM103.821 86.9C103.656 86.8417 103.767 86.7288 103.767 86.5575C103.71 86.5575 103.71 86.5029 103.656 86.5029C103.656 86.9583 103.656 87.2972 103.71 87.6908C103.879 87.4065 103.656 87.0677 103.821 86.8964M103.429 66.3957C103.429 66.6799 103.429 66.7929 103.486 66.7929C103.486 66.6216 103.598 66.454 103.429 66.3957ZM103.429 65.543C103.429 65.7689 103.375 66.1078 103.429 66.3374C103.486 66.1115 103.486 66.3957 103.54 66.3957C103.54 66.2244 103.706 65.6013 103.54 65.4337L103.429 65.5466V65.543ZM103.375 74.8897C103.429 75.1192 103.375 74.4378 103.429 74.3795C103.429 74.3407 103.411 74.3212 103.375 74.3212V74.886V74.8897ZM103.317 62.6534C103.429 62.5987 103.486 62.5987 103.486 62.5987C103.486 62.5404 103.486 62.4858 103.429 62.4274H103.317V62.6534ZM103.821 95.1717C103.767 95.1717 103.71 95.1718 103.71 95.1171H103.317C103.148 95.1718 103.54 95.1171 103.598 95.1717H103.821ZM103.429 60.9553C103.375 61.0136 103.263 60.897 103.094 61.0683C103.148 61.1229 103.259 61.1229 103.429 61.1229V60.9553ZM103.544 59.7637C103.321 59.7637 102.982 59.7054 103.04 59.935H103.544V59.7637ZM102.759 71.7741C102.928 72.3972 102.813 73.1333 102.982 73.7564C102.928 73.075 102.982 72.226 102.813 71.7158L102.759 71.7741ZM102.813 71.4352C102.813 71.264 102.871 71.264 102.928 71.3223C102.705 71.0927 102.928 70.6992 102.759 70.4149C102.759 70.8121 102.647 71.038 102.813 71.4352ZM102.424 93.1348C102.258 93.1348 102.312 93.3607 102.482 93.4154C102.424 93.2441 102.37 93.1348 102.424 93.1348ZM102.424 79.4227C102.258 78.9126 102.482 78.3478 102.312 77.8923C102.37 78.4024 102.258 79.0255 102.424 79.4227ZM102.309 74.2666C102.366 74.0406 102.366 73.873 102.309 73.6981C102.366 73.9277 102.14 74.2083 102.309 74.2666ZM102.309 67.1318C102.309 65.9949 102.366 65.0912 102.197 64.0126C102.028 65.2041 102.14 66.2208 102.309 67.1318ZM102.089 71.2093C102.089 71.4352 102.089 71.9454 102.143 71.8907C102.201 71.0417 102.366 70.189 102.089 69.4529C102.143 69.7372 102.032 70.302 102.201 70.5315C102.032 70.6992 102.089 70.9834 102.089 71.2093ZM102.143 89.6767C102.201 90.1286 101.862 90.9229 102.312 91.1489C102.312 90.6934 102.312 90.2998 102.143 89.6767ZM101.974 95.0005C101.974 95.2847 101.862 95.6236 102.089 95.7949C102.143 95.6236 102.032 95.2847 101.974 95.0005ZM101.639 96.5309C101.639 96.2467 101.585 96.0208 101.47 95.8495C101.47 96.1337 101.412 96.3014 101.47 96.5309H101.639ZM101.358 58.86C101.693 58.86 101.974 58.8017 102.197 58.6924C101.916 58.6924 101.635 58.6341 101.358 58.6924V58.86ZM101.412 71.7741C101.581 70.4732 101.527 69.1104 101.301 67.9771C101.243 69.1104 101.243 70.8085 101.412 71.7741ZM101.247 81.2337V80.9495C101.304 80.8949 101.247 80.7236 101.304 80.5523C101.135 80.607 101.193 81.0625 101.247 81.2301M100.742 59.3119C100.912 59.3702 100.8 59.086 100.742 59.086V59.3119ZM100.631 78.7449C100.631 78.9126 100.631 79.0292 100.688 79.0838C100.742 79.0255 100.8 78.7449 100.631 78.7449ZM100.688 78.2894C100.523 78.2894 100.742 77.834 100.577 78.0052C100.577 78.1765 100.523 78.4607 100.688 78.2894ZM100.465 96.3597H100.354C100.354 96.418 100.354 96.4726 100.411 96.5309C100.465 96.4726 100.523 96.418 100.465 96.3597ZM100.296 82.4836C100.296 82.7678 100.238 83.2197 100.296 83.3909C100.523 83.3363 100.296 82.6549 100.296 82.4836ZM100.184 92.2275C100.35 92.2275 100.296 92.1145 100.465 92.1145C100.296 91.2072 100.411 90.3581 100.238 89.5091C100.238 90.4164 100.238 91.2655 100.184 92.2311M100.184 72C100.184 72.4555 100.184 72.7944 100.238 72.962C100.296 72.9074 100.296 72.7908 100.296 72.5065C100.296 72.6195 100.354 72.5648 100.411 72.3353C100.242 72.3936 100.354 72.2223 100.296 72.0511C100.238 72.1094 100.238 71.9928 100.184 71.9928M100.465 76.7043C100.465 76.5331 100.411 76.4201 100.411 76.2525C100.354 76.3072 100.296 76.2525 100.188 76.1942C100.188 76.4784 100.188 76.646 100.13 76.7043C100.3 76.646 100.411 76.7626 100.469 76.7043M100.073 64.468C100.238 64.2968 100.238 63.8449 100.073 63.6773V64.468ZM120.785 87.4685C120.785 88.3175 120.731 88.9989 120.558 89.5638C120.165 90.8646 119.773 91.9432 119.161 93.0765C118.433 94.6069 117.256 95.4013 116.082 96.3633C115.355 96.5346 114.851 96.8188 114.177 96.9864C113.896 96.9864 113.615 96.9281 113.227 96.9864C111.491 97.1577 109.813 97.3253 107.854 97.2707C105.334 97.6678 103.205 97.3253 100.577 97.3836C100.296 97.2123 100.408 97.1577 100.015 97.1577C99.3993 93.0218 99.9611 89.2249 99.7918 84.7501C99.7342 83.3909 99.7918 82.0318 99.7918 80.6689C99.7918 80.0458 99.9035 79.2551 99.7342 78.8579C99.7342 76.7626 99.7918 75.2905 99.7918 73.3046C99.7918 72.3972 99.6802 71.6065 99.6802 70.5315C99.6802 69.9084 99.7918 69.4529 99.7342 68.7752C99.7342 67.8678 99.7342 66.7346 99.6802 65.6596C99.6226 65.2041 99.5686 64.7523 99.5686 64.2968C99.5686 63.8996 99.511 63.6154 99.5686 63.2182C99.5686 63.2765 99.6262 63.1052 99.6802 62.821C99.6802 62.6497 99.6226 62.4238 99.6226 62.2562C99.6226 61.4072 99.7882 60.4415 99.6226 59.5925C99.7342 58.9694 99.7342 58.4009 99.6226 57.7778C99.7882 57.7231 99.9575 57.6648 100.015 57.4936C103.375 57.3223 106.119 57.3806 109.474 57.5519C111.21 57.6102 112.553 57.7778 114.066 57.9491L115.074 58.4592L116.136 58.9111C116.302 59.0823 116.248 59.137 116.417 59.1953C116.698 59.3666 116.975 59.4212 117.256 59.5925L117.76 60.0443L118.322 60.4962C118.487 60.5545 118.487 60.7804 118.657 60.9517C118.88 61.1776 119.272 61.4035 119.215 61.8554C119.607 62.0813 119.607 62.5368 119.773 62.934C119.831 63.1052 119.939 63.1599 119.939 63.3311C119.996 63.5024 119.939 63.5607 119.996 63.7283C120.054 63.8996 120.162 63.8996 120.162 64.0709C120.219 64.2968 120.162 64.581 120.331 64.8069C120.5 65.6596 120.612 66.4503 120.666 67.1318V70.5315C120.666 71.6648 120.724 72.7398 120.778 73.8147C120.778 75.6294 120.778 77.4404 120.835 79.4227C120.835 80.2717 120.778 81.0661 120.724 81.9152C120.666 83.7845 120.889 85.4279 120.666 87.1843C120.612 87.4102 120.835 87.2972 120.778 87.4648"></path>
<path fill="white" d="M140.834 97.905C139.142 97.8978 135.429 95.0081 135.138 93.0113C134.846 91.0144 139.606 91.4079 142.815 94.6547C146.027 97.9014 140.834 97.905 140.834 97.905Z"></path>
<path fill="white" d="M127.374 90.9597C126.719 89.3819 127.889 84.7942 129.592 83.7411C131.292 82.6843 132.801 87.272 131.108 91.5354C129.412 95.7952 127.374 90.9633 127.374 90.9633"></path>
<path fill="white" d="M136.87 83.4566C136.949 81.744 139.963 78.1183 141.947 77.9069C143.931 77.6992 143.337 82.4946 139.992 85.5992C136.65 88.7039 136.87 83.453 136.87 83.453"></path>
</g>
<defs>
<clipPath id="clip0_137_2797">
<rect transform="translate(0.0117188 0.553711)" fill="white" height="156" width="160"></rect>
</clipPath>
</defs>
</svg>
