<svg xmlns="http://www.w3.org/2000/svg" xmlns:xlink="http://www.w3.org/1999/xlink" width="100" zoomAndPan="magnify" viewBox="0 0 75 44.999999" height="60" preserveAspectRatio="xMidYMid meet" version="1.0"><defs><clipPath id="9394a26988"><path d="M 3 26 L 12 26 L 12 42.765625 L 3 42.765625 Z M 3 26 " clip-rule="nonzero"/></clipPath><clipPath id="edeb4c4b42"><path d="M 0 2.265625 L 13 2.265625 L 13 33 L 0 33 Z M 0 2.265625 " clip-rule="nonzero"/></clipPath></defs><path fill="#000000" d="M 19.410156 26.8125 C 19.03125 27.03125 18.574219 27.140625 18.03125 27.140625 C 17.597656 27.140625 17.203125 27.0625 16.855469 26.914062 C 16.507812 26.761719 16.214844 26.554688 15.976562 26.285156 C 15.738281 26.019531 15.554688 25.707031 15.429688 25.351562 C 15.300781 24.992188 15.238281 24.605469 15.238281 24.191406 C 15.238281 23.777344 15.300781 23.371094 15.429688 23.007812 C 15.554688 22.644531 15.738281 22.324219 15.976562 22.054688 C 16.214844 21.78125 16.507812 21.570312 16.855469 21.417969 C 17.203125 21.261719 17.597656 21.183594 18.03125 21.183594 C 18.46875 21.183594 18.863281 21.261719 19.210938 21.417969 C 19.554688 21.570312 19.847656 21.78125 20.085938 22.054688 C 20.324219 22.324219 20.507812 22.640625 20.636719 23.007812 C 20.761719 23.371094 20.828125 23.765625 20.828125 24.191406 C 20.828125 24.617188 20.761719 24.988281 20.636719 25.347656 C 20.507812 25.703125 20.324219 26.015625 20.085938 26.285156 L 20.792969 26.933594 L 20.214844 27.539062 Z M 19.226562 25.5 C 19.332031 25.355469 19.417969 25.175781 19.480469 24.964844 C 19.546875 24.75 19.578125 24.492188 19.578125 24.191406 C 19.578125 23.941406 19.546875 23.699219 19.492188 23.464844 C 19.4375 23.230469 19.347656 23.023438 19.226562 22.839844 C 19.105469 22.65625 18.945312 22.511719 18.746094 22.402344 C 18.550781 22.292969 18.3125 22.238281 18.03125 22.238281 C 17.75 22.238281 17.511719 22.292969 17.3125 22.402344 C 17.117188 22.511719 16.957031 22.65625 16.835938 22.839844 C 16.714844 23.023438 16.625 23.230469 16.570312 23.464844 C 16.511719 23.699219 16.484375 23.941406 16.484375 24.191406 C 16.484375 24.441406 16.511719 24.664062 16.570312 24.886719 C 16.625 25.113281 16.714844 25.316406 16.835938 25.5 C 16.957031 25.679688 17.117188 25.824219 17.3125 25.933594 C 17.511719 26.042969 17.75 26.097656 18.03125 26.097656 C 18.164062 26.097656 18.265625 26.089844 18.332031 26.082031 C 18.402344 26.070312 18.46875 26.046875 18.53125 26.015625 L 18 25.53125 L 18.578125 24.910156 Z M 19.226562 25.5 " fill-opacity="1" fill-rule="nonzero"/><path fill="#000000" d="M 25.589844 26.578125 C 25.160156 26.953125 24.5625 27.140625 23.804688 27.140625 C 23.046875 27.140625 22.4375 26.953125 22.015625 26.582031 C 21.59375 26.210938 21.382812 25.636719 21.382812 24.859375 L 21.382812 21.320312 L 22.632812 21.320312 L 22.632812 24.859375 C 22.632812 25.015625 22.648438 25.164062 22.675781 25.3125 C 22.699219 25.464844 22.757812 25.59375 22.839844 25.707031 C 22.925781 25.824219 23.042969 25.917969 23.195312 25.988281 C 23.347656 26.058594 23.550781 26.09375 23.804688 26.09375 C 24.25 26.09375 24.558594 25.996094 24.730469 25.796875 C 24.898438 25.597656 24.984375 25.285156 24.984375 24.859375 L 24.984375 21.320312 L 26.234375 21.320312 L 26.234375 24.859375 C 26.234375 25.628906 26.019531 26.203125 25.589844 26.578125 Z M 25.589844 26.578125 " fill-opacity="1" fill-rule="nonzero"/><path fill="#000000" d="M 31.210938 21.320312 L 31.210938 22.375 L 28.207031 22.375 L 28.207031 23.59375 L 30.964844 23.59375 L 30.964844 24.566406 L 28.207031 24.566406 L 28.207031 25.960938 L 31.273438 25.960938 L 31.273438 27.011719 L 26.957031 27.011719 L 26.957031 21.324219 L 31.210938 21.324219 Z M 31.210938 21.320312 " fill-opacity="1" fill-rule="nonzero"/><path fill="#000000" d="M 36.179688 21.320312 L 36.179688 22.375 L 33.175781 22.375 L 33.175781 23.59375 L 35.933594 23.59375 L 35.933594 24.566406 L 33.175781 24.566406 L 33.175781 25.960938 L 36.242188 25.960938 L 36.242188 27.011719 L 31.925781 27.011719 L 31.925781 21.324219 L 36.179688 21.324219 Z M 36.179688 21.320312 " fill-opacity="1" fill-rule="nonzero"/><path fill="#000000" d="M 38.136719 21.320312 L 40.511719 25.140625 L 40.527344 25.140625 L 40.527344 21.320312 L 41.695312 21.320312 L 41.695312 27.011719 L 40.445312 27.011719 L 38.082031 23.203125 L 38.066406 23.203125 L 38.066406 27.011719 L 36.894531 27.011719 L 36.894531 21.320312 Z M 38.136719 21.320312 " fill-opacity="1" fill-rule="nonzero"/><path fill="#000000" d="M 43.558594 25.609375 C 43.628906 25.742188 43.722656 25.851562 43.835938 25.933594 C 43.949219 26.015625 44.082031 26.074219 44.238281 26.117188 C 44.390625 26.15625 44.550781 26.175781 44.714844 26.175781 C 44.828125 26.175781 44.945312 26.167969 45.074219 26.148438 C 45.199219 26.128906 45.320312 26.09375 45.433594 26.039062 C 45.542969 25.988281 45.636719 25.914062 45.710938 25.820312 C 45.785156 25.726562 45.820312 25.609375 45.820312 25.46875 C 45.820312 25.3125 45.773438 25.1875 45.675781 25.09375 C 45.578125 24.996094 45.449219 24.917969 45.289062 24.851562 C 45.128906 24.789062 44.949219 24.734375 44.746094 24.683594 C 44.546875 24.636719 44.339844 24.585938 44.132812 24.527344 C 43.921875 24.472656 43.714844 24.40625 43.511719 24.332031 C 43.3125 24.253906 43.132812 24.152344 42.972656 24.03125 C 42.8125 23.910156 42.683594 23.757812 42.585938 23.574219 C 42.488281 23.390625 42.4375 23.167969 42.4375 22.90625 C 42.4375 22.613281 42.5 22.363281 42.625 22.144531 C 42.75 21.929688 42.914062 21.75 43.117188 21.609375 C 43.316406 21.464844 43.546875 21.359375 43.800781 21.289062 C 44.054688 21.21875 44.3125 21.1875 44.566406 21.1875 C 44.863281 21.1875 45.148438 21.21875 45.421875 21.285156 C 45.695312 21.351562 45.9375 21.460938 46.148438 21.609375 C 46.363281 21.757812 46.53125 21.945312 46.65625 22.179688 C 46.78125 22.410156 46.84375 22.691406 46.84375 23.019531 L 45.632812 23.019531 C 45.621094 22.847656 45.585938 22.707031 45.523438 22.597656 C 45.464844 22.484375 45.382812 22.398438 45.28125 22.332031 C 45.179688 22.269531 45.066406 22.226562 44.933594 22.199219 C 44.804688 22.171875 44.664062 22.160156 44.507812 22.160156 C 44.40625 22.160156 44.308594 22.167969 44.207031 22.191406 C 44.105469 22.210938 44.011719 22.25 43.929688 22.300781 C 43.847656 22.355469 43.78125 22.421875 43.730469 22.5 C 43.675781 22.582031 43.648438 22.679688 43.648438 22.804688 C 43.648438 22.914062 43.667969 23.003906 43.710938 23.074219 C 43.753906 23.144531 43.839844 23.207031 43.964844 23.265625 C 44.089844 23.324219 44.261719 23.382812 44.480469 23.441406 C 44.703125 23.5 44.988281 23.574219 45.34375 23.664062 C 45.449219 23.6875 45.597656 23.722656 45.785156 23.78125 C 45.976562 23.835938 46.164062 23.925781 46.347656 24.046875 C 46.535156 24.167969 46.695312 24.332031 46.832031 24.539062 C 46.964844 24.742188 47.035156 25.003906 47.035156 25.324219 C 47.035156 25.582031 46.984375 25.824219 46.882812 26.046875 C 46.78125 26.269531 46.632812 26.464844 46.433594 26.625 C 46.234375 26.789062 45.988281 26.914062 45.691406 27.003906 C 45.398438 27.09375 45.054688 27.140625 44.667969 27.140625 C 44.355469 27.140625 44.050781 27.101562 43.757812 27.023438 C 43.460938 26.949219 43.203125 26.828125 42.976562 26.660156 C 42.75 26.496094 42.570312 26.285156 42.4375 26.03125 C 42.304688 25.777344 42.242188 25.472656 42.246094 25.125 L 43.457031 25.125 C 43.457031 25.316406 43.492188 25.476562 43.5625 25.609375 Z M 43.558594 25.609375 " fill-opacity="1" fill-rule="nonzero"/><path fill="#000000" d="M 48.816406 21.320312 L 48.816406 25.960938 L 51.585938 25.960938 L 51.585938 27.011719 L 47.566406 27.011719 L 47.566406 21.320312 Z M 48.816406 21.320312 " fill-opacity="1" fill-rule="nonzero"/><path fill="#000000" d="M 55.042969 21.320312 L 57.167969 27.011719 L 55.871094 27.011719 L 55.441406 25.746094 L 53.316406 25.746094 L 52.867188 27.011719 L 51.609375 27.011719 L 53.761719 21.320312 Z M 55.113281 24.8125 L 54.398438 22.726562 L 54.382812 22.726562 L 53.640625 24.8125 Z M 55.113281 24.8125 " fill-opacity="1" fill-rule="nonzero"/><path fill="#000000" d="M 58.730469 21.320312 L 61.101562 25.140625 L 61.117188 25.140625 L 61.117188 21.320312 L 62.289062 21.320312 L 62.289062 27.011719 L 61.039062 27.011719 L 58.671875 23.203125 L 58.65625 23.203125 L 58.65625 27.011719 L 57.488281 27.011719 L 57.488281 21.320312 Z M 58.730469 21.320312 " fill-opacity="1" fill-rule="nonzero"/><path fill="#000000" d="M 65.425781 21.320312 C 65.792969 21.320312 66.132812 21.382812 66.449219 21.496094 C 66.765625 21.613281 67.039062 21.789062 67.269531 22.023438 C 67.5 22.257812 67.679688 22.550781 67.8125 22.898438 C 67.941406 23.25 68.007812 23.664062 68.007812 24.136719 C 68.007812 24.550781 67.953125 24.933594 67.847656 25.28125 C 67.742188 25.632812 67.578125 25.9375 67.363281 26.191406 C 67.148438 26.445312 66.882812 26.648438 66.5625 26.792969 C 66.238281 26.9375 65.859375 27.011719 65.425781 27.011719 L 62.972656 27.011719 L 62.972656 21.320312 Z M 65.339844 25.960938 C 65.519531 25.960938 65.695312 25.929688 65.863281 25.871094 C 66.035156 25.8125 66.183594 25.71875 66.316406 25.582031 C 66.449219 25.445312 66.558594 25.269531 66.636719 25.050781 C 66.714844 24.832031 66.757812 24.566406 66.757812 24.253906 C 66.757812 23.96875 66.726562 23.707031 66.671875 23.476562 C 66.617188 23.246094 66.523438 23.046875 66.398438 22.882812 C 66.269531 22.71875 66.101562 22.59375 65.890625 22.503906 C 65.683594 22.417969 65.421875 22.375 65.117188 22.375 L 64.222656 22.375 L 64.222656 25.960938 Z M 65.339844 25.960938 " fill-opacity="1" fill-rule="nonzero"/><path fill="#000000" d="M 19.128906 29.878906 C 19.054688 29.757812 18.964844 29.652344 18.851562 29.5625 C 18.742188 29.472656 18.613281 29.402344 18.472656 29.351562 C 18.332031 29.300781 18.1875 29.277344 18.03125 29.277344 C 17.75 29.277344 17.511719 29.332031 17.316406 29.441406 C 17.117188 29.550781 16.960938 29.695312 16.835938 29.878906 C 16.714844 30.0625 16.625 30.269531 16.570312 30.503906 C 16.515625 30.738281 16.488281 30.980469 16.488281 31.230469 C 16.488281 31.480469 16.515625 31.699219 16.570312 31.925781 C 16.625 32.152344 16.714844 32.355469 16.835938 32.535156 C 16.960938 32.71875 17.117188 32.863281 17.316406 32.96875 C 17.511719 33.078125 17.75 33.132812 18.03125 33.132812 C 18.414062 33.132812 18.714844 33.015625 18.929688 32.785156 C 19.144531 32.550781 19.273438 32.242188 19.324219 31.859375 L 20.53125 31.859375 C 20.5 32.214844 20.417969 32.535156 20.285156 32.824219 C 20.152344 33.109375 19.976562 33.355469 19.761719 33.554688 C 19.542969 33.757812 19.289062 33.914062 18.996094 34.019531 C 18.703125 34.125 18.382812 34.175781 18.03125 34.175781 C 17.597656 34.175781 17.207031 34.101562 16.859375 33.949219 C 16.511719 33.800781 16.21875 33.589844 15.976562 33.324219 C 15.738281 33.058594 15.554688 32.746094 15.429688 32.390625 C 15.300781 32.03125 15.238281 31.644531 15.238281 31.230469 C 15.238281 30.8125 15.300781 30.410156 15.429688 30.046875 C 15.554688 29.679688 15.738281 29.363281 15.976562 29.09375 C 16.21875 28.820312 16.511719 28.609375 16.859375 28.453125 C 17.207031 28.300781 17.597656 28.222656 18.03125 28.222656 C 18.34375 28.222656 18.640625 28.269531 18.921875 28.359375 C 19.199219 28.449219 19.449219 28.582031 19.667969 28.753906 C 19.890625 28.925781 20.070312 29.140625 20.214844 29.394531 C 20.355469 29.648438 20.449219 29.941406 20.484375 30.273438 L 19.273438 30.273438 C 19.253906 30.128906 19.203125 29.996094 19.132812 29.875 Z M 19.128906 29.878906 " fill-opacity="1" fill-rule="nonzero"/><path fill="#000000" d="M 21.167969 30.046875 C 21.296875 29.683594 21.480469 29.363281 21.71875 29.09375 C 21.957031 28.824219 22.25 28.609375 22.597656 28.457031 C 22.945312 28.300781 23.335938 28.226562 23.773438 28.226562 C 24.207031 28.226562 24.605469 28.300781 24.953125 28.457031 C 25.296875 28.609375 25.589844 28.824219 25.828125 29.09375 C 26.066406 29.363281 26.25 29.683594 26.375 30.046875 C 26.503906 30.410156 26.566406 30.804688 26.566406 31.230469 C 26.566406 31.65625 26.503906 32.03125 26.375 32.390625 C 26.25 32.75 26.066406 33.0625 25.828125 33.328125 C 25.589844 33.59375 25.296875 33.800781 24.953125 33.953125 C 24.605469 34.101562 24.214844 34.179688 23.773438 34.179688 C 23.332031 34.179688 22.945312 34.101562 22.597656 33.953125 C 22.25 33.800781 21.957031 33.59375 21.71875 33.328125 C 21.480469 33.0625 21.296875 32.75 21.167969 32.390625 C 21.042969 32.03125 20.976562 31.644531 20.976562 31.230469 C 20.976562 30.816406 21.042969 30.410156 21.167969 30.046875 Z M 22.3125 31.925781 C 22.367188 32.152344 22.457031 32.355469 22.578125 32.535156 C 22.699219 32.71875 22.859375 32.863281 23.054688 32.972656 C 23.253906 33.082031 23.492188 33.136719 23.773438 33.136719 C 24.054688 33.136719 24.292969 33.082031 24.492188 32.972656 C 24.6875 32.863281 24.847656 32.71875 24.96875 32.535156 C 25.089844 32.355469 25.179688 32.152344 25.234375 31.925781 C 25.292969 31.703125 25.320312 31.46875 25.320312 31.230469 C 25.320312 30.992188 25.292969 30.738281 25.234375 30.503906 C 25.179688 30.269531 25.089844 30.0625 24.96875 29.878906 C 24.847656 29.695312 24.6875 29.550781 24.492188 29.441406 C 24.292969 29.332031 24.054688 29.277344 23.773438 29.277344 C 23.492188 29.277344 23.253906 29.332031 23.054688 29.441406 C 22.859375 29.550781 22.699219 29.695312 22.578125 29.878906 C 22.457031 30.0625 22.367188 30.269531 22.3125 30.503906 C 22.257812 30.738281 22.226562 30.980469 22.226562 31.230469 C 22.226562 31.480469 22.257812 31.703125 22.3125 31.925781 Z M 22.3125 31.925781 " fill-opacity="1" fill-rule="nonzero"/><path fill="#000000" d="M 28.359375 28.359375 L 30.730469 32.179688 L 30.75 32.179688 L 30.75 28.359375 L 31.917969 28.359375 L 31.917969 34.050781 L 30.667969 34.050781 L 28.304688 30.242188 L 28.289062 30.242188 L 28.289062 34.050781 L 27.117188 34.050781 L 27.117188 28.359375 Z M 28.359375 28.359375 " fill-opacity="1" fill-rule="nonzero"/><path fill="#000000" d="M 33.796875 32.648438 C 33.867188 32.78125 33.957031 32.886719 34.074219 32.972656 C 34.1875 33.054688 34.320312 33.113281 34.476562 33.15625 C 34.628906 33.195312 34.789062 33.214844 34.953125 33.214844 C 35.066406 33.214844 35.183594 33.207031 35.3125 33.1875 C 35.4375 33.167969 35.558594 33.132812 35.667969 33.078125 C 35.78125 33.027344 35.875 32.953125 35.949219 32.859375 C 36.023438 32.765625 36.058594 32.648438 36.058594 32.503906 C 36.058594 32.351562 36.011719 32.226562 35.914062 32.128906 C 35.8125 32.035156 35.6875 31.957031 35.527344 31.890625 C 35.367188 31.828125 35.1875 31.773438 34.984375 31.722656 C 34.785156 31.675781 34.578125 31.621094 34.371094 31.5625 C 34.160156 31.511719 33.953125 31.445312 33.75 31.367188 C 33.550781 31.292969 33.371094 31.191406 33.210938 31.070312 C 33.050781 30.945312 32.921875 30.792969 32.824219 30.613281 C 32.726562 30.429688 32.675781 30.207031 32.675781 29.945312 C 32.675781 29.652344 32.738281 29.398438 32.863281 29.183594 C 32.988281 28.96875 33.152344 28.789062 33.355469 28.648438 C 33.554688 28.503906 33.785156 28.398438 34.039062 28.328125 C 34.292969 28.257812 34.546875 28.222656 34.804688 28.222656 C 35.101562 28.222656 35.386719 28.257812 35.660156 28.324219 C 35.933594 28.390625 36.175781 28.496094 36.386719 28.648438 C 36.601562 28.796875 36.769531 28.984375 36.894531 29.214844 C 37.019531 29.449219 37.082031 29.726562 37.082031 30.058594 L 35.871094 30.058594 C 35.859375 29.886719 35.824219 29.746094 35.761719 29.636719 C 35.703125 29.523438 35.621094 29.4375 35.519531 29.371094 C 35.417969 29.308594 35.304688 29.261719 35.171875 29.234375 C 35.042969 29.210938 34.902344 29.195312 34.746094 29.195312 C 34.644531 29.195312 34.546875 29.207031 34.445312 29.230469 C 34.34375 29.25 34.253906 29.289062 34.171875 29.339844 C 34.085938 29.394531 34.019531 29.460938 33.96875 29.539062 C 33.914062 29.621094 33.886719 29.71875 33.886719 29.84375 C 33.886719 29.953125 33.910156 30.042969 33.953125 30.113281 C 33.992188 30.183594 34.078125 30.246094 34.203125 30.304688 C 34.328125 30.363281 34.5 30.421875 34.71875 30.480469 C 34.941406 30.539062 35.226562 30.613281 35.582031 30.703125 C 35.691406 30.722656 35.835938 30.761719 36.027344 30.820312 C 36.214844 30.875 36.402344 30.964844 36.585938 31.085938 C 36.773438 31.207031 36.933594 31.371094 37.070312 31.574219 C 37.203125 31.78125 37.269531 32.042969 37.269531 32.359375 C 37.269531 32.621094 37.222656 32.863281 37.121094 33.085938 C 37.019531 33.308594 36.871094 33.5 36.671875 33.664062 C 36.472656 33.824219 36.222656 33.953125 35.929688 34.042969 C 35.632812 34.132812 35.292969 34.179688 34.90625 34.179688 C 34.59375 34.179688 34.289062 34.140625 33.996094 34.0625 C 33.699219 33.984375 33.441406 33.863281 33.214844 33.699219 C 32.988281 33.535156 32.808594 33.324219 32.675781 33.070312 C 32.542969 32.816406 32.480469 32.511719 32.484375 32.160156 L 33.695312 32.160156 C 33.695312 32.351562 33.730469 32.515625 33.800781 32.648438 Z M 33.796875 32.648438 " fill-opacity="1" fill-rule="nonzero"/><path fill="#000000" d="M 42.070312 28.359375 L 42.070312 29.414062 L 39.070312 29.414062 L 39.070312 30.632812 L 41.824219 30.632812 L 41.824219 31.605469 L 39.070312 31.605469 L 39.070312 33 L 42.136719 33 L 42.136719 34.050781 L 37.820312 34.050781 L 37.820312 28.359375 Z M 42.070312 28.359375 " fill-opacity="1" fill-rule="nonzero"/><path fill="#000000" d="M 45.871094 28.359375 C 46.125 28.359375 46.355469 28.402344 46.558594 28.484375 C 46.761719 28.566406 46.9375 28.679688 47.085938 28.824219 C 47.230469 28.964844 47.34375 29.132812 47.417969 29.320312 C 47.496094 29.507812 47.535156 29.710938 47.535156 29.929688 C 47.535156 30.265625 47.464844 30.554688 47.324219 30.800781 C 47.183594 31.042969 46.953125 31.230469 46.632812 31.359375 L 46.632812 31.375 C 46.789062 31.414062 46.917969 31.480469 47.015625 31.570312 C 47.117188 31.65625 47.199219 31.761719 47.265625 31.878906 C 47.328125 32 47.375 32.128906 47.402344 32.273438 C 47.433594 32.417969 47.453125 32.5625 47.464844 32.703125 C 47.46875 32.792969 47.472656 32.902344 47.480469 33.023438 C 47.484375 33.144531 47.492188 33.269531 47.507812 33.398438 C 47.519531 33.527344 47.542969 33.648438 47.570312 33.761719 C 47.601562 33.875 47.644531 33.972656 47.703125 34.050781 L 46.453125 34.050781 C 46.382812 33.871094 46.339844 33.65625 46.324219 33.40625 C 46.308594 33.15625 46.285156 32.917969 46.253906 32.6875 C 46.210938 32.390625 46.121094 32.175781 45.980469 32.035156 C 45.84375 31.898438 45.617188 31.828125 45.304688 31.828125 L 44.054688 31.828125 L 44.054688 34.050781 L 42.804688 34.050781 L 42.804688 28.363281 L 45.871094 28.363281 Z M 45.425781 30.933594 C 45.710938 30.933594 45.925781 30.871094 46.070312 30.742188 C 46.210938 30.617188 46.285156 30.410156 46.285156 30.121094 C 46.285156 29.835938 46.210938 29.644531 46.070312 29.519531 C 45.925781 29.394531 45.710938 29.332031 45.425781 29.332031 L 44.054688 29.332031 L 44.054688 30.933594 Z M 45.425781 30.933594 " fill-opacity="1" fill-rule="nonzero"/><path fill="#000000" d="M 49.660156 34.050781 L 47.820312 28.359375 L 49.101562 28.359375 L 50.367188 32.363281 L 50.382812 32.363281 L 51.667969 28.359375 L 52.957031 28.359375 L 51.070312 34.050781 Z M 49.660156 34.050781 " fill-opacity="1" fill-rule="nonzero"/><path fill="#000000" d="M 55.5625 28.359375 L 57.6875 34.050781 L 56.386719 34.050781 L 55.957031 32.785156 L 53.832031 32.785156 L 53.386719 34.050781 L 52.128906 34.050781 L 54.277344 28.359375 Z M 55.632812 31.851562 L 54.914062 29.761719 L 54.898438 29.761719 L 54.160156 31.851562 Z M 55.632812 31.851562 " fill-opacity="1" fill-rule="nonzero"/><path fill="#000000" d="M 56.890625 29.414062 L 56.890625 28.359375 L 61.546875 28.359375 L 61.546875 29.414062 L 59.84375 29.414062 L 59.84375 34.050781 L 58.59375 34.050781 L 58.59375 29.414062 Z M 56.890625 29.414062 " fill-opacity="1" fill-rule="nonzero"/><path fill="#000000" d="M 62.058594 28.359375 L 63.308594 28.359375 L 63.308594 34.050781 L 62.058594 34.050781 Z M 62.058594 28.359375 " fill-opacity="1" fill-rule="nonzero"/><path fill="#000000" d="M 64.066406 30.046875 C 64.191406 29.683594 64.375 29.363281 64.613281 29.09375 C 64.851562 28.824219 65.144531 28.609375 65.492188 28.457031 C 65.839844 28.300781 66.234375 28.226562 66.667969 28.226562 C 67.105469 28.226562 67.5 28.300781 67.847656 28.457031 C 68.191406 28.609375 68.484375 28.824219 68.722656 29.09375 C 68.960938 29.363281 69.144531 29.683594 69.273438 30.046875 C 69.398438 30.410156 69.464844 30.804688 69.464844 31.230469 C 69.464844 31.65625 69.398438 32.03125 69.273438 32.390625 C 69.144531 32.75 68.960938 33.0625 68.722656 33.328125 C 68.484375 33.59375 68.191406 33.800781 67.847656 33.953125 C 67.5 34.101562 67.109375 34.179688 66.667969 34.179688 C 66.226562 34.179688 65.839844 34.101562 65.492188 33.953125 C 65.144531 33.800781 64.851562 33.59375 64.613281 33.328125 C 64.375 33.0625 64.191406 32.75 64.066406 32.390625 C 63.9375 32.03125 63.875 31.644531 63.875 31.230469 C 63.875 30.816406 63.9375 30.410156 64.066406 30.046875 Z M 65.207031 31.925781 C 65.261719 32.152344 65.351562 32.355469 65.472656 32.535156 C 65.597656 32.71875 65.753906 32.863281 65.953125 32.972656 C 66.148438 33.082031 66.386719 33.136719 66.667969 33.136719 C 66.949219 33.136719 67.1875 33.082031 67.386719 32.972656 C 67.582031 32.863281 67.742188 32.71875 67.863281 32.535156 C 67.984375 32.355469 68.074219 32.152344 68.128906 31.925781 C 68.1875 31.703125 68.214844 31.46875 68.214844 31.230469 C 68.214844 30.992188 68.1875 30.738281 68.128906 30.503906 C 68.074219 30.269531 67.984375 30.0625 67.863281 29.878906 C 67.742188 29.695312 67.582031 29.550781 67.386719 29.441406 C 67.1875 29.332031 66.949219 29.277344 66.667969 29.277344 C 66.386719 29.277344 66.148438 29.332031 65.953125 29.441406 C 65.753906 29.550781 65.597656 29.695312 65.472656 29.878906 C 65.351562 30.0625 65.261719 30.269531 65.207031 30.503906 C 65.152344 30.738281 65.125 30.980469 65.125 31.230469 C 65.125 31.480469 65.152344 31.703125 65.207031 31.925781 Z M 65.207031 31.925781 " fill-opacity="1" fill-rule="nonzero"/><path fill="#000000" d="M 71.207031 28.359375 L 73.578125 32.179688 L 73.597656 32.179688 L 73.597656 28.359375 L 74.765625 28.359375 L 74.765625 34.050781 L 73.515625 34.050781 L 71.152344 30.242188 L 71.136719 30.242188 L 71.136719 34.050781 L 69.964844 34.050781 L 69.964844 28.359375 Z M 71.207031 28.359375 " fill-opacity="1" fill-rule="nonzero"/><path fill="#000000" d="M 19.128906 36.917969 C 19.054688 36.796875 18.964844 36.691406 18.851562 36.601562 C 18.742188 36.511719 18.613281 36.441406 18.472656 36.390625 C 18.332031 36.339844 18.1875 36.316406 18.03125 36.316406 C 17.75 36.316406 17.511719 36.371094 17.316406 36.480469 C 17.117188 36.589844 16.960938 36.734375 16.835938 36.917969 C 16.714844 37.101562 16.625 37.308594 16.570312 37.542969 C 16.515625 37.777344 16.488281 38.019531 16.488281 38.269531 C 16.488281 38.519531 16.515625 38.738281 16.570312 38.964844 C 16.625 39.191406 16.714844 39.394531 16.835938 39.574219 C 16.960938 39.753906 17.117188 39.902344 17.316406 40.007812 C 17.511719 40.117188 17.75 40.171875 18.03125 40.171875 C 18.414062 40.171875 18.714844 40.054688 18.929688 39.820312 C 19.144531 39.589844 19.273438 39.28125 19.324219 38.898438 L 20.53125 38.898438 C 20.5 39.253906 20.417969 39.574219 20.285156 39.863281 C 20.152344 40.148438 19.976562 40.394531 19.761719 40.59375 C 19.542969 40.796875 19.289062 40.949219 18.996094 41.058594 C 18.703125 41.164062 18.382812 41.214844 18.03125 41.214844 C 17.597656 41.214844 17.207031 41.140625 16.859375 40.988281 C 16.511719 40.839844 16.21875 40.628906 15.976562 40.363281 C 15.738281 40.097656 15.554688 39.785156 15.429688 39.425781 C 15.300781 39.070312 15.238281 38.683594 15.238281 38.269531 C 15.238281 37.851562 15.300781 37.449219 15.429688 37.085938 C 15.554688 36.71875 15.738281 36.402344 15.976562 36.132812 C 16.21875 35.859375 16.511719 35.648438 16.859375 35.492188 C 17.207031 35.339844 17.597656 35.261719 18.03125 35.261719 C 18.34375 35.261719 18.640625 35.308594 18.921875 35.398438 C 19.199219 35.488281 19.449219 35.621094 19.667969 35.792969 C 19.890625 35.964844 20.070312 36.179688 20.214844 36.433594 C 20.355469 36.6875 20.449219 36.980469 20.484375 37.308594 L 19.273438 37.308594 C 19.253906 37.167969 19.203125 37.035156 19.132812 36.914062 Z M 19.128906 36.917969 " fill-opacity="1" fill-rule="nonzero"/><path fill="#000000" d="M 21.152344 37.085938 C 21.28125 36.722656 21.464844 36.402344 21.703125 36.132812 C 21.941406 35.859375 22.234375 35.648438 22.582031 35.496094 C 22.929688 35.339844 23.320312 35.261719 23.757812 35.261719 C 24.191406 35.261719 24.589844 35.339844 24.9375 35.496094 C 25.28125 35.648438 25.574219 35.859375 25.8125 36.132812 C 26.050781 36.402344 26.234375 36.722656 26.359375 37.085938 C 26.488281 37.449219 26.550781 37.84375 26.550781 38.269531 C 26.550781 38.695312 26.488281 39.070312 26.359375 39.429688 C 26.234375 39.789062 26.050781 40.101562 25.8125 40.363281 C 25.574219 40.632812 25.28125 40.839844 24.9375 40.992188 C 24.589844 41.140625 24.199219 41.21875 23.757812 41.21875 C 23.316406 41.21875 22.929688 41.140625 22.582031 40.992188 C 22.234375 40.839844 21.941406 40.632812 21.703125 40.363281 C 21.464844 40.101562 21.28125 39.789062 21.152344 39.429688 C 21.027344 39.070312 20.960938 38.683594 20.960938 38.269531 C 20.960938 37.855469 21.027344 37.449219 21.152344 37.085938 Z M 22.296875 38.964844 C 22.351562 39.191406 22.441406 39.394531 22.5625 39.574219 C 22.683594 39.753906 22.84375 39.902344 23.039062 40.007812 C 23.238281 40.117188 23.476562 40.171875 23.757812 40.171875 C 24.039062 40.171875 24.277344 40.117188 24.476562 40.007812 C 24.671875 39.902344 24.832031 39.753906 24.953125 39.574219 C 25.074219 39.394531 25.164062 39.191406 25.21875 38.964844 C 25.277344 38.738281 25.304688 38.507812 25.304688 38.269531 C 25.304688 38.027344 25.277344 37.777344 25.21875 37.542969 C 25.164062 37.308594 25.074219 37.101562 24.953125 36.917969 C 24.832031 36.734375 24.671875 36.589844 24.476562 36.480469 C 24.277344 36.371094 24.039062 36.316406 23.757812 36.316406 C 23.476562 36.316406 23.238281 36.371094 23.039062 36.480469 C 22.84375 36.589844 22.683594 36.734375 22.5625 36.917969 C 22.441406 37.101562 22.351562 37.308594 22.296875 37.542969 C 22.238281 37.777344 22.210938 38.019531 22.210938 38.269531 C 22.210938 38.519531 22.238281 38.738281 22.296875 38.964844 Z M 22.296875 38.964844 " fill-opacity="1" fill-rule="nonzero"/><path fill="#000000" d="M 31.328125 40.65625 C 30.898438 41.03125 30.304688 41.21875 29.546875 41.21875 C 28.785156 41.21875 28.179688 41.03125 27.757812 40.660156 C 27.335938 40.289062 27.125 39.714844 27.125 38.9375 L 27.125 35.398438 L 28.375 35.398438 L 28.375 38.9375 C 28.375 39.089844 28.386719 39.242188 28.414062 39.390625 C 28.441406 39.542969 28.496094 39.671875 28.582031 39.785156 C 28.667969 39.902344 28.785156 39.992188 28.9375 40.066406 C 29.085938 40.136719 29.289062 40.171875 29.546875 40.171875 C 29.992188 40.171875 30.300781 40.074219 30.46875 39.875 C 30.640625 39.675781 30.722656 39.363281 30.722656 38.9375 L 30.722656 35.398438 L 31.972656 35.398438 L 31.972656 38.9375 C 31.972656 39.707031 31.757812 40.28125 31.328125 40.65625 Z M 31.328125 40.65625 " fill-opacity="1" fill-rule="nonzero"/><path fill="#000000" d="M 33.957031 35.398438 L 36.332031 39.21875 L 36.347656 39.21875 L 36.347656 35.398438 L 37.515625 35.398438 L 37.515625 41.089844 L 36.265625 41.089844 L 33.902344 37.28125 L 33.886719 37.28125 L 33.886719 41.089844 L 32.714844 41.089844 L 32.714844 35.398438 Z M 33.957031 35.398438 " fill-opacity="1" fill-rule="nonzero"/><path fill="#000000" d="M 42.054688 36.917969 C 41.980469 36.796875 41.886719 36.691406 41.777344 36.601562 C 41.664062 36.511719 41.539062 36.441406 41.398438 36.390625 C 41.257812 36.339844 41.113281 36.316406 40.957031 36.316406 C 40.675781 36.316406 40.4375 36.371094 40.242188 36.480469 C 40.042969 36.589844 39.882812 36.734375 39.761719 36.917969 C 39.640625 37.101562 39.550781 37.308594 39.496094 37.542969 C 39.441406 37.777344 39.410156 38.019531 39.410156 38.269531 C 39.410156 38.519531 39.441406 38.738281 39.496094 38.964844 C 39.550781 39.191406 39.640625 39.394531 39.761719 39.574219 C 39.882812 39.753906 40.042969 39.902344 40.242188 40.007812 C 40.4375 40.117188 40.675781 40.171875 40.957031 40.171875 C 41.339844 40.171875 41.636719 40.054688 41.851562 39.820312 C 42.070312 39.589844 42.199219 39.28125 42.246094 38.898438 L 43.457031 38.898438 C 43.425781 39.253906 43.34375 39.574219 43.210938 39.863281 C 43.078125 40.148438 42.902344 40.394531 42.683594 40.59375 C 42.46875 40.796875 42.210938 40.949219 41.921875 41.058594 C 41.628906 41.164062 41.308594 41.214844 40.957031 41.214844 C 40.523438 41.214844 40.128906 41.140625 39.78125 40.988281 C 39.433594 40.839844 39.140625 40.628906 38.902344 40.363281 C 38.664062 40.097656 38.480469 39.785156 38.355469 39.425781 C 38.226562 39.070312 38.164062 38.683594 38.164062 38.269531 C 38.164062 37.851562 38.226562 37.449219 38.355469 37.085938 C 38.480469 36.71875 38.664062 36.402344 38.902344 36.132812 C 39.140625 35.859375 39.433594 35.648438 39.78125 35.492188 C 40.128906 35.339844 40.523438 35.261719 40.957031 35.261719 C 41.269531 35.261719 41.566406 35.308594 41.84375 35.398438 C 42.125 35.488281 42.375 35.621094 42.59375 35.792969 C 42.8125 35.964844 42.996094 36.179688 43.140625 36.433594 C 43.28125 36.6875 43.371094 36.980469 43.410156 37.308594 L 42.199219 37.308594 C 42.179688 37.167969 42.128906 37.035156 42.054688 36.914062 Z M 42.054688 36.917969 " fill-opacity="1" fill-rule="nonzero"/><path fill="#000000" d="M 44.132812 35.398438 L 45.382812 35.398438 L 45.382812 41.089844 L 44.132812 41.089844 Z M 44.132812 35.398438 " fill-opacity="1" fill-rule="nonzero"/><path fill="#000000" d="M 47.511719 35.398438 L 47.511719 40.039062 L 50.28125 40.039062 L 50.28125 41.089844 L 46.261719 41.089844 L 46.261719 35.398438 Z M 47.511719 35.398438 " fill-opacity="1" fill-rule="nonzero"/><path fill="#e31b22" d="M 2.773438 33.65625 C 4.097656 32.328125 4.578125 27.167969 5.75 24.746094 C 5.757812 24.609375 5.78125 24.480469 5.820312 24.351562 C 5.949219 23.929688 6.324219 21.785156 5.367188 21.738281 C 4.332031 21.691406 1.4375 23.15625 0.890625 23.945312 C 0.851562 24 0.800781 24.027344 0.75 24.046875 C 0.675781 24.148438 0.609375 24.253906 0.527344 24.390625 C 0.378906 24.644531 0.308594 24.792969 0.210938 25.070312 C 0.210938 26.515625 0.335938 27.351562 0.753906 28.738281 C 0.988281 29.519531 1.25 29.914062 1.523438 30.683594 C 1.671875 31.105469 1.730469 31.351562 1.886719 31.769531 C 2.164062 32.53125 2.34375 32.953125 2.699219 33.679688 C 2.726562 33.671875 2.75 33.664062 2.773438 33.65625 Z M 2.773438 33.65625 " fill-opacity="1" fill-rule="nonzero"/><g clip-path="url(#9394a26988)"><path fill="#e31b22" d="M 10.976562 38.839844 C 11.109375 38.367188 11.367188 38.171875 11.519531 37.703125 C 11.796875 36.859375 11.710938 36.324219 11.703125 35.4375 C 11.695312 34.460938 11.65625 33.65625 11.441406 32.941406 C 10.578125 31.546875 7.660156 28.144531 7.359375 27.835938 C 6.914062 27.390625 6.484375 26.863281 6.179688 26.3125 C 5.296875 27.316406 4.515625 30.898438 4.207031 32.679688 C 4.148438 33.019531 4.070312 33.296875 3.980469 33.523438 C 3.910156 33.925781 3.621094 34.527344 3.378906 34.714844 C 4.425781 36.265625 5.089844 37.101562 6.363281 38.472656 C 7.820312 40.039062 8.515625 41.203125 10.433594 42.140625 C 10.898438 42.367188 11.347656 43.046875 11.65625 42.636719 C 11.746094 42.515625 11.761719 42.421875 11.792969 42.273438 C 11.921875 41.640625 11.15625 41.449219 10.976562 40.828125 C 10.765625 40.082031 10.769531 39.585938 10.976562 38.839844 Z M 10.976562 38.839844 " fill-opacity="1" fill-rule="nonzero"/></g><g clip-path="url(#edeb4c4b42)"><path fill="#e31b22" d="M 12.605469 26.835938 C 12.585938 26.445312 12.332031 26.179688 12.167969 25.890625 C 12.117188 25.800781 12.042969 25.726562 11.957031 25.671875 C 9.953125 24.421875 9.3125 22.121094 7.527344 21.417969 C 7.203125 21.292969 7.484375 20.859375 8.375 21.136719 C 9.746094 21.5625 10.695312 24.804688 12.304688 24.847656 C 12.378906 24.757812 12.457031 24.664062 12.515625 24.53125 C 12.957031 23.566406 12.464844 22.871094 12.515625 21.808594 C 12.550781 21.136719 12.648438 20.761719 12.652344 20.089844 C 12.65625 19.378906 12.542969 18.984375 12.515625 18.277344 C 12.492188 17.574219 12.597656 17.167969 12.515625 16.46875 C 12.425781 15.671875 12.285156 15.230469 12.019531 14.476562 C 11.457031 12.867188 10.34375 12.332031 9.800781 10.71875 C 9.394531 9.496094 9.019531 8.722656 9.257812 7.457031 C 9.464844 6.378906 9.964844 5.882812 10.570312 4.964844 C 10.988281 4.335938 11.234375 3.980469 11.746094 3.425781 C 11.953125 3.207031 12.078125 3.09375 12.289062 2.882812 C 12.378906 2.796875 12.488281 2.777344 12.515625 2.65625 C 12.570312 2.429688 12.160156 2.566406 11.929688 2.523438 C 11.699219 2.476562 11.570312 2.4375 11.339844 2.429688 C 11.144531 2.425781 11.035156 2.4375 10.84375 2.476562 C 10.742188 2.742188 10.683594 2.894531 10.570312 3.15625 C 10.292969 3.808594 10.074219 4.148438 9.757812 4.785156 C 9.402344 5.492188 9.226562 5.902344 8.851562 6.597656 C 8.421875 7.390625 8.21875 7.867188 7.675781 8.589844 C 6.171875 10.59375 3.890625 10.265625 2.429688 12.300781 C 1.808594 13.160156 1.558594 13.71875 1.160156 14.703125 C 0.609375 16.066406 0.367188 16.898438 0.257812 18.371094 C 0.191406 19.230469 0.28125 19.722656 0.300781 20.585938 C 0.332031 21.753906 0.351562 22.410156 0.390625 23.574219 C 0.449219 23.554688 0.496094 23.539062 0.542969 23.53125 C 1.230469 22.695312 2.757812 21.9375 3.695312 21.410156 C 4.664062 20.859375 7.085938 20.773438 6.976562 22.191406 C 6.945312 22.566406 6.765625 23.746094 6.769531 24.125 C 6.796875 26.761719 8.738281 28.425781 9.753906 29.738281 C 10.820312 31.113281 11.640625 32.175781 12.152344 32.027344 C 12.175781 32.019531 12.191406 32.019531 12.210938 32.015625 C 12.386719 31.539062 12.289062 30.847656 12.335938 30.1875 C 12.382812 29.464844 12.214844 29.050781 12.289062 28.328125 C 12.351562 27.738281 12.636719 27.429688 12.605469 26.835938 Z M 7.421875 19.558594 C 7.878906 19.28125 7.992188 18.859375 7.8125 18.171875 C 7.269531 16.109375 4.054688 18.148438 6.746094 20.171875 C 6.996094 20.359375 6.867188 20.71875 6.570312 20.609375 C 5.710938 20.292969 4.339844 18.03125 5.75 16.867188 C 7.496094 15.421875 9.5 19.066406 7.570312 19.871094 C 7.28125 19.992188 7.152344 19.71875 7.421875 19.558594 Z M 7.71875 23.898438 C 7.667969 24.445312 7.667969 24.757812 7.71875 25.300781 C 6.957031 24.410156 7.628906 21.316406 7.996094 22.472656 C 8.164062 23.015625 7.773438 23.335938 7.71875 23.898438 Z M 7.71875 23.898438 " fill-opacity="1" fill-rule="nonzero"/></g></svg>