<?xml version="1.0" encoding="UTF-8"?>
<svg preserveAspectRatio="xMidYMid slice" xmlns="http://www.w3.org/2000/svg" width="192px" height="91px" viewBox="0 0 192.689 91.912">
  <defs>
    <style>.a{fill:#fff;}.b{fill:#ffd000;}.c{fill:none;}.d{fill:#7bc043;}.e{fill:#7f499b;}.f{fill:#30b4e3;}.g{fill:#d01f39;}.h{fill:#ee7a22;}.i{fill:#124b8b;}</style>
  </defs>
  <g transform="translate(-727 -655.5)">
    <path class="a" d="M80.38,60.6V59.439c0-.392.151-.622.5-.622.161,0,.271,0,.622.311a10.581,10.581,0,0,0,5.521,1.636c3.162,0,5.19-1.8,5.19-4.6,0-2.108-.552-2.921-3.393-4.949L84.144,47.9c-2.3-1.676-3.343-3.383-3.343-5.571a5.561,5.561,0,0,1,1.8-4.327C84,36.682,85.52,36.17,88.17,36.17c3.192,0,5.612.783,5.612,1.8v1c0,.391-.161.542-.472.542-.12,0-.191,0-.462-.191a10.34,10.34,0,0,0-4.758-1.405c-3.012,0-5.019,1.636-5.019,4.015,0,1.516.783,2.69,2.5,3.935l4.949,3.544a8.824,8.824,0,0,1,2.8,2.49,6.475,6.475,0,0,1,1.2,3.895c0,4.126-3.192,6.9-8.031,6.9A13.612,13.612,0,0,1,81,61.427C80.49,61.226,80.38,61.035,80.38,60.6Z" transform="translate(725.342 655.347)"></path>
    <path class="a" d="M111.558,52.112h-9.537l-3.383,9.858c-.12.271-.2.351-.512.351h-.893c-.512,0-.7-.161-.7-.5a2.38,2.38,0,0,1,.08-.432l8.252-23.8.241-.7c.191-.663.542-.853,1.355-.853h.863c.7,0,.853,0,1,.191a1.616,1.616,0,0,1,.351.582c.07.161.151.432.311.783l8.372,23.841a1.6,1.6,0,0,1,.08.392c0,.341-.241.5-.7.5h-1.245a.4.4,0,0,1-.472-.351Zm-.7-1.947-4.206-12.106-4.015,12.106Z" transform="translate(725.404 655.346)"></path>
    <path class="a" d="M122.839,47.864h13.05V36.882a.532.532,0,0,1,.512-.542h1.325a.492.492,0,0,1,.5.542V61.818a.482.482,0,0,1-.5.5H136.4a.522.522,0,0,1-.512-.5V49.771h-13.05V61.818a.532.532,0,0,1-.552.5H121a.512.512,0,0,1-.5-.5V36.882a.522.522,0,0,1,.5-.542h1.325a.532.532,0,0,1,.552.542Z" transform="translate(725.497 655.347)"></path>
    <path class="a" d="M145.527,39.653V61.818a.512.512,0,0,1-.5.5h-.893a.512.512,0,0,1-.512-.5V36.882a.522.522,0,0,1,.512-.542h1.787c.663,0,.893.191,1.164.893l8.342,22.938,8.031-22.9c.271-.743.472-.934,1.134-.934h1.747a.532.532,0,0,1,.512.542V61.818a.522.522,0,0,1-.512.5h-1.255a.512.512,0,0,1-.5-.5v-21.8l-7.75,21.693c-.2.5-.512.663-1.245.663h-.9a.873.873,0,0,1-1-.663Z" transform="translate(725.586 655.348)"></path>
    <path class="a" d="M178.6,49.812l9.587,11.454c.11.161.191.231.191.271a.341.341,0,0,1,.08.281c0,.341-.271.5-.823.5h-1.476a.492.492,0,0,1-.391-.191L175.492,49.812c-.12-.11-.2-.191-.2-.231a.713.713,0,0,0-.311-.08h-.311V61.818a.522.522,0,0,1-.542.5H172.8a.522.522,0,0,1-.512-.5V36.882a.532.532,0,0,1,.512-.542h5.8c2.881,0,4.557.542,5.923,1.827a6.635,6.635,0,0,1,1.947,4.859c0,4.166-2.961,6.776-7.71,6.776Zm-3.935-1.947H178.6c3.463,0,5.531-1.787,5.531-4.829s-2.008-4.708-5.531-4.708h-3.935Z" transform="translate(725.696 655.348)"></path>
    <path class="a" d="M191.54,61.818V36.882a.522.522,0,0,1,.5-.542h1.325a.532.532,0,0,1,.552.542V61.818a.532.532,0,0,1-.552.5H192a.512.512,0,0,1-.462-.5Z" transform="translate(725.77 655.347)"></path>
    <path class="b" d="M64.3,59.917a.532.532,0,0,0-.12-.251c-.2-.171-.432-.331-.632-.5s-.141-.171-.231-.261a5.633,5.633,0,0,0-.914-.341l-.512-.231a6.023,6.023,0,0,1-1.415-.753c-.392-.261-.823-.492-1.235-.733-.141-.09-.331,0-.4,0s0-.311-.141-.472c.07-.08-.151-.261-.08-.331a4.5,4.5,0,0,0-.4-.442.883.883,0,0,1-.261-.331,6.8,6.8,0,0,1-1.114.151c.663.572,0,1.094-.151,1.5A9.436,9.436,0,0,1,55.452,59.2a10.52,10.52,0,0,0-1.195,1.727c-.181.341-.211-.422-.231-.783a16.06,16.06,0,0,1,.2-2.58,11.113,11.113,0,0,0,.151-2.008c0-.482.371-1,.381-1.335s-.151-.642,0-.883v-.06a4.206,4.206,0,0,0-2.008-.422l-.492.291-.161.582a1.365,1.365,0,0,0,.351-.07c.381-.13.873-.632,1.094-.562s.241.432.3.642a8.067,8.067,0,0,0,.11.944c.11.321.11,1.325-.191,1.134s-1.195-.813-1.707-1.225-.733-.442-.713-.6l-1.074.191-1.8.622c-3.835.562-4.758.351-5.371.823s-1.235.893-1.235.893l-3.8.141h-.131c-.371.07-1,.231-1.285.3v.512l1.4-.161v-.211c.211.07.211.331.371.462.412.341,1.947-.482,2.429-.683a10.149,10.149,0,0,1,3.674.462c.693.281,2.69,2.69,3.724,3.3s4.307,1,4.919,1.486,2.068,1.325,2.269,1.807.8,1,.321,1.255a15.193,15.193,0,0,0-.873,1.275.713.713,0,0,0-.291.09,11.464,11.464,0,0,0-2.65,2.168l.231.07a6.877,6.877,0,0,1,1-.853L55.4,66.623c1.425-.462,3.463-1.064,4.176-1.225a6.676,6.676,0,0,0,3.172-1.315c.361-.412-.07-4.477.482-4.015a1,1,0,0,0,1.154.09.824.824,0,0,1-.09-.241Z" transform="translate(725.174 655.411)"></path>
    <path class="c" d="M45.63,46.131,45.56,46A.131.131,0,0,0,45.63,46.131Z" transform="translate(725.208 655.385)"></path>
    <path class="d" d="M46,48.54h0l.773.6h.08Z" transform="translate(725.21 655.394)"></path>
    <path class="e" d="M63.222,60.08c-.552-.482-.12,3.584-.482,4.015a6.676,6.676,0,0,1-3.172,1.315,30.939,30.939,0,0,0-3.654.924c-.873.492-2.239,1.325-2.751,1.626a6.875,6.875,0,0,0-1,.853,3.011,3.011,0,0,1,.632.2,8.684,8.684,0,0,0,1,.462,13.712,13.712,0,0,0,2.078.7,9.819,9.819,0,0,1,1.947.371,2.158,2.158,0,0,0,.893.381c.361.1.813.08.914.231h0a1.586,1.586,0,0,0-.07.472c0,.131,0,.251,0,.371a7.027,7.027,0,0,0-.3,1.867c.131.442,1.556-.833,1.556-.833l.893-.773c.06.05.211,0,.311,0a3.636,3.636,0,0,0,.351-.131.863.863,0,0,0,.843.06h.161c.271-.07-.1-.141-.1-.191a.492.492,0,0,0-.4-.11c-.06,0-.151-.09-.171-.151a2.489,2.489,0,0,1-.171-.371c0-.231-.1-.07-.221-.261a2.359,2.359,0,0,1-.221-.522c-.371-.281-.4-.13-.552-.6,0,.06-.392-.642-.422-.592-.191-.381-.432-.632-.241-.8s.683.1.893,0a1.435,1.435,0,0,1,.873-.06.341.341,0,0,0,.2,0,.381.381,0,0,1,.381.08c.06,0,.2.221.191.291,0,.251-.161.683,0,.883-.2.432,0,.311,0,.592a3.223,3.223,0,0,0-.1.753,1.716,1.716,0,0,1-.12.913c.05.06.09.131.151.191h-.07a1.7,1.7,0,0,1,.472.311s.191,0,.161.07c.361.462-.181,1.195-.241,1.345s.1.422-.08.622a.2.2,0,0,0,0,.171.944.944,0,0,1-.08.8,1.225,1.225,0,0,1,.171.151.542.542,0,0,1,.11.181,2.469,2.469,0,0,1-.211.693c-.07.151-.231.251-.171.472a.894.894,0,0,1,0,.462c-.07.171-1.345,1.355-.311,1.807.221.171.853-1,1.154-1.686a.572.572,0,0,0,.381-.341,2.67,2.67,0,0,0,.261-1.114,3.112,3.112,0,0,1,.2-1,1.586,1.586,0,0,0,.2-.653A4.016,4.016,0,0,1,65.6,73.05c.08-.221.231-.251.432-.171a2.809,2.809,0,0,1,.432.191c.181.12.442.2.412.5a.708.708,0,0,0,.09.151,6.57,6.57,0,0,0,.522.4,6.465,6.465,0,0,1,1.245,1.154,4.808,4.808,0,0,0,1.134,1,1.616,1.616,0,0,1,.422.361,3.312,3.312,0,0,0,.813.773c.271.171.532.371.793.562.06,0,.09.11.141.161a5.219,5.219,0,0,0,.683.723c.552.422,1.134.793,1.707,1.195a.331.331,0,0,1,.151.181.733.733,0,0,0,.281.4c.341.241.693.462,1,.7a.383.383,0,0,1,.251.171c.191.311.542.462.733.793a2.008,2.008,0,0,0,.532.472c.381.291.783.562,1.164.853a1.124,1.124,0,0,1,.412.5.472.472,0,0,0,.151.191c.422.281.863.552,1.285.843s.833.452,1.054.9a.161.161,0,0,0,.07.07,11.655,11.655,0,0,0,1.606,1.074,8.581,8.581,0,0,1,1,.7c.291.221.542.492.823.713a12.491,12.491,0,0,0,1.526,1c.151.1.371.141.482.281a2.671,2.671,0,0,0,.6.412c.241.161.522.261.773.4s.261.582.522.512c-.07.261,0,.572.6.733h.713c.321-.422-.3-1-.552-.863l-.221-.141c-.482-.3-1-.592-1.456-.914s-.863-.642-1.295-1a.4.4,0,0,1-.161-.181,1.134,1.134,0,0,0-.472-.452c-.261-.2-.532-.381-.8-.562l-.462-.3a6.206,6.206,0,0,1-.612-.371c-.261-.221-.532-.412-.8-.6s-.291-.11-.241-.321c0,0-.07-.06-.11-.09s-.321-.261-.492-.381a1.857,1.857,0,0,0-.341-.231,7.027,7.027,0,0,1-1.446-.913,1,1,0,0,0-.171-.12,4.416,4.416,0,0,1-.743-.512c-.151-.161-.291-.341-.452-.5a8.644,8.644,0,0,0-1.506-1.124.331.331,0,0,1-.171-.2.8.8,0,0,0-.452-.6c-.291-.191-.592-.361-.873-.562s-.632-.311-.723-.693a.088.088,0,0,0-.06-.08,6.4,6.4,0,0,0-2.008-1.506v-.2l-.883-.773a5.19,5.19,0,0,1-1.114-1.134.392.392,0,0,0-.08-.1l-.924-.753a2.269,2.269,0,0,1-.291-.231,7.761,7.761,0,0,0-1.315-1.185l-1.2-.893a.412.412,0,0,1-.151-.141A.542.542,0,0,0,67.318,73c-.181-.141-.351-.3-.542-.432a1.134,1.134,0,0,1-.512-1.074,1.405,1.405,0,0,1,.1-.452c.09-.221.141-.452.211-.683a2.422,2.422,0,0,1,.07-.371c.171-.452.371-.9.532-1.365a2.008,2.008,0,0,0,.171-.883,1.586,1.586,0,0,1,.241-1.074c.09-.13.181-.261.261-.391a1.606,1.606,0,0,1,.8-.763,1.925,1.925,0,0,0,.171-.131,6.7,6.7,0,0,1,.773-.542c.191-.09,1-.5,1.064-.723-.261.07-.08,0-.3-.131a12.406,12.406,0,0,0-1.275.251,1.465,1.465,0,0,1-.3-.07,2.49,2.49,0,0,0-.863,0,7.883,7.883,0,0,1-1,0,15.61,15.61,0,0,1-1.817,0,.582.582,0,0,1-.231,0,3.435,3.435,0,0,1-.723-.161l-.321-.321a.432.432,0,0,1-.131-.462c.07-.12,0-.331,0-.452a3.392,3.392,0,0,1,0-.642,1.406,1.406,0,0,0,0-.5,1.867,1.867,0,0,1-.09-.482s.151-.12.181-.11.341.07.512.1.161.05.181.1c.12.261.542.211.763.351a1.225,1.225,0,0,0,.642.241,4.547,4.547,0,0,1,1.656.552,9.607,9.607,0,0,0,1,.371c.371.11,2.69,1.616,2.751,1.636a1.9,1.9,0,0,0,.572.13,4.246,4.246,0,0,1,1.456.311c.261.09.512.191.773.271a.612.612,0,0,0,.3,0,1,1,0,0,0,.291-.07.267.267,0,0,0,.2-.171.222.222,0,0,0-.1-.241.743.743,0,0,0-.211-.13c-.351-.181-.7-.371-1.064-.532a4.488,4.488,0,0,0-.863-.261,3.433,3.433,0,0,1-.893-.171c-.171-.08-.351-.11-.522-.181a5.28,5.28,0,0,1-1.385-.793,2.329,2.329,0,0,0-.783-.442,2.008,2.008,0,0,0-1-.151H67.91c-.211-.08-.432-.161-.642-.261-.5-.231-1-.492-1.506-.7a4.557,4.557,0,0,1-1-.6,1.084,1.084,0,0,1-.311-.331A1,1,0,0,1,63.222,60.08Zm1.195,8.573c.472.291,1.415.131.813.6-.09.1-.141.221-.2.231-.221,0-.331.321-.562.241l-.251-.693C64.116,68.784,64.126,68.763,64.417,68.653ZM60.03,68.3a2.209,2.209,0,0,0-.191,1c0,.472-.331.7-.361,1s-.482.11-.7,0a6.666,6.666,0,0,1-1.476-.381,18.094,18.094,0,0,0-2.008-.693,7.026,7.026,0,0,1-1.285-.3c-.141-.13-1.174-.632-.231-.642l2.439-1.265a2.57,2.57,0,0,1,.914-.341,1.676,1.676,0,0,0,.663-.161s.6.1.693,0a5.9,5.9,0,0,1,1.185-.141c.181-.03-.131.341.11.683A1.757,1.757,0,0,1,60.03,68.3Zm3.795-3.012a.251.251,0,0,1,0,.181,10.931,10.931,0,0,0-.381,1.686,1.888,1.888,0,0,1-.241.442.271.271,0,0,1-.191.07,14.9,14.9,0,0,1-1.978-.371c-1-.361-1.134-.853-.391-1a.452.452,0,0,1,.231-.221c.231-.12.472-.2.7-.311a3.54,3.54,0,0,0,.311-.191,4.432,4.432,0,0,0,.934-.311.271.271,0,0,1,.151-.11,4.5,4.5,0,0,1,.642-.09c.06.01.13.11.161.181Z" transform="translate(725.234 655.439)"></path>
    <path class="f" d="M50.394,70.132a.9.9,0,0,1-.532-.221l-.191-.12-.271-.141.291-.09a.753.753,0,0,1,.914.351l.12.161h-.191Z" transform="translate(725.223 655.475)"></path>
    <path class="f" d="M46.53,67c-.241-.06-.442-.161-.562,0s-1.335-.151-1.737.12,0,.291,0,.422c.131.08.391,1.265.552,1.5a1.777,1.777,0,0,0,.482.713c.4.321.331.12.452.09s.06-.261.171-.331.5-1.887.632-2.138a2.128,2.128,0,0,0,.141-.311C46.69,67,46.519,67.071,46.53,67Z" transform="translate(725.202 655.465)"></path>
    <path class="f" d="M35.907,67.487a6.023,6.023,0,0,0,1.616-.1.612.612,0,0,1,.3,0l.07-.06.642-.131.723-.291s0-.331-.6-.532a21.161,21.161,0,0,1-2.56-1.747l-1.345-1.094-.7-.442s-.191.221,0,.713a.562.562,0,0,0,0,.522,1.466,1.466,0,0,1,.141.381.663.663,0,0,0,.251.4,4.016,4.016,0,0,1,.4.432l.231.693.462.612S35.667,67.356,35.907,67.487Z" transform="translate(725.163 655.451)"></path>
    <path class="f" d="M55.514,65.915c.311-.181.211-.512.331-.572.482-.2,0-1.365,0-1.365s-.462-.592-.432-.723-.622-.713-.673-.893-.552-.542-.733-.753a1.6,1.6,0,0,0-.934-.321c-.2,0-.763-.221-1-.2a21.4,21.4,0,0,1-3.112-.783c-.281-.151-1.315-1-1.5-1.1s-.8-.542-.632-.512-.552-.261-.391-.3-.271-.392-.241-.2-.642-.512-.934-.733A2.259,2.259,0,0,0,44.03,57c-.311,0-2.831-.231-3.182-.161-.06,0-1.777.171-2.008.251s-.833-.1-1.134,0l-1,.361v2.188c0,1.174-1,2.5.09,3.754a9.958,9.958,0,0,1,1.054,1.636H37.8a1,1,0,0,0,.231.271,7.278,7.278,0,0,0,.492.673.532.532,0,0,0,.251.291l.131.06a1.546,1.546,0,0,0,.482.241h.06a.251.251,0,0,0,.221,0,1.446,1.446,0,0,0,.632-.151c1.747-.793,2.118-1.305,3.5-1a13.692,13.692,0,0,1,4.437,2.71c.341.341,1.275.331,2.259.261.341.07,1,.211,1.556.351.141-.141.281-.311.432-.452l.151-.151a1.184,1.184,0,0,1,.321-.191,6.443,6.443,0,0,0,.813-.522c.211-.13.422-.542.622-.592a2.47,2.47,0,0,0,.582-.191C55.263,66.507,55.122,66.035,55.514,65.915ZM38.007,60.464c0,.492.11,1.185-.251.9a1.265,1.265,0,0,1-.422-.763C37.736,60.313,38.007,60.012,38.007,60.464Zm4.5,3.785a1.9,1.9,0,0,0-1.064.8c-.452.653-1.476.341-1.877.612s-1-1-1.2-1.415a13.882,13.882,0,0,0-1-2.088c-.251-.311.151-.432.452-.351a20.6,20.6,0,0,1,1.887.934,10.179,10.179,0,0,0,2.219.793c.482.04.783.612.582.713Zm8.693.331c-.131.321-.562.7-1.084,1.516s-.954,1.6-1.285,1.727-.793-.331-.783-.512a6.325,6.325,0,0,0-.773-1.164l-.492-.673a.6.6,0,0,1-.5-.261c-.171-.261,0-.552-.171-.833s-.542-.291-.642-.351-.823-.833-.763-1.195.371-.11,1.084,0a27.828,27.828,0,0,1,3.323,1c.191.07,2.208.412,2.078.743Zm2.249,1a3.9,3.9,0,0,1-.763.512c-.171.08-.392-.08-.562-.261s-.371-.6-.462-.693-.221-.241.131-.231.5-.12.663-.09.241.05.512.11a3.614,3.614,0,0,0,1,0c.281,0,1-.221,1.114-.1s.833-.07.622.07a8.871,8.871,0,0,1-1.185.331,6.9,6.9,0,0,0-1.084.381Z" transform="translate(725.172 655.426)"></path>
    <path class="f" d="M49.3,69.561h-.131L48.83,69.3l.221-.11h.08l.141.09.251.151Z" transform="translate(725.221 655.474)"></path>
    <path class="f" d="M40.319,68.422s-1.064-.2-1.144-.251a6.2,6.2,0,0,0-.8-.06l-.783.11a5.166,5.166,0,0,1-.9,0,3.161,3.161,0,0,0-1,0,.331.331,0,0,0-.12-.251c-.171.1-.131.261-.161.381v.08h0a.682.682,0,0,0,0,.321l.151.371a1.165,1.165,0,0,1,.141.271,1.124,1.124,0,0,0,.351.713c.07.06.07.191.12.291s.181.321.281.482a2.586,2.586,0,0,0,.171.221,2.479,2.479,0,0,0,.693.853,2.1,2.1,0,0,1,.532.612c.261.432.492.893.743,1.335.12.2.291.381.251.652a5.09,5.09,0,0,1,.2,1.506.873.873,0,0,1,0,.482,2.731,2.731,0,0,0-.131.582.612.612,0,0,0,0,.3.642.642,0,0,1,0,.492c-.09.311-.2.612-.281.924a.391.391,0,0,0,0,.261.9.9,0,0,1,0,.723,1.476,1.476,0,0,0-.221.813c.231-.141.271.281.5.141,0-.08-.171-.181,0-.241v-.08a1.038,1.038,0,0,1,.11-.843c.11-.271.351-.562.181-.913.151-.341.09-.733.311-1,.11-.171,0-.412.171-.582v-.06a1.837,1.837,0,0,1,.09-1,1.185,1.185,0,0,0,0-.281c0-.13,0-.271,0-.4l.271-1.215a.171.171,0,0,0,0-.1,9.7,9.7,0,0,0-.1-1,3.011,3.011,0,0,1,0-1.154,1,1,0,0,0,0-.3.653.653,0,0,1,.131-.5c.09-.12-.11-.191,0-.321a.251.251,0,0,0,0-.331c-.05-.04,0-.241.07-.371a.341.341,0,0,0,.06-.06.151.151,0,0,0,0-.211v-.161h.06a.211.211,0,0,1,0-.06,2.559,2.559,0,0,1,.07-.321Z" transform="translate(725.169 655.469)"></path>
    <path class="f" d="M48.444,69.124a.291.291,0,0,1-.141,0,7.465,7.465,0,0,1-.663-.381c-.191-.12-.171-.211-.131-.452V68.07l.171.12.171.151.3.261.151.09a1.345,1.345,0,0,1,.321.241l.221.221h-.371Z" transform="translate(725.216 655.47)"></path>
    <path class="g" d="M75.285,28.629a1.114,1.114,0,0,1,.251-.321c.2-.181.422-.351.642-.522a.833.833,0,0,0,.11-.151c.2-.281.381-.572.6-.843a7.03,7.03,0,0,1,.713-.733c.191-.161.4-.281.592-.452.432-.391.883-.472.833-1,0-.11.371-.442,0-.763s-.652-.07-.753-.13a.351.351,0,0,0-.341.05c-.422.181-.482.753-.552.843-.211.291-.1.582-.321.883a6.5,6.5,0,0,1-.944,1.154,3.936,3.936,0,0,0-.552.673,11.888,11.888,0,0,1-.813.944c-.281.311-.7.482-.883.9l.522.6A4.477,4.477,0,0,0,75.285,28.629Z" transform="translate(725.317 655.299)"></path>
    <path class="g" d="M66.121,30.872a3.011,3.011,0,0,0,.612-.11,1.054,1.054,0,0,1,.632-.09.281.281,0,0,0,.321-.191c0-.09,0-.161-.11-.171a1,1,0,0,1-.241,0c-.412-.131-.4-.131-.612.231-.251-.08-.492-.251-.773,0v.2a.141.141,0,0,0,.171.131Z" transform="translate(725.287 655.324)"></path>
    <path class="g" d="M69.553,30.334a.723.723,0,0,1,.542,0,.412.412,0,0,0,.492-.11.281.281,0,0,1,.392,0,.893.893,0,0,0,.783,0,.572.572,0,0,1,.392,0,.713.713,0,0,0,.452-.05,2.449,2.449,0,0,1,1.1-.09c.171-.381,0-.622-.331-.833l-.442.181-.07-.181-.12.13a.652.652,0,0,1-.652.221.542.542,0,0,0-.612.231,3.222,3.222,0,0,0-.873,0,3.012,3.012,0,0,1-.723.05.4.4,0,0,0-.231.08.472.472,0,0,1-.432.11.532.532,0,0,0-.512.12c.07.1.131.191.2.311a2.209,2.209,0,0,0,.643-.171Z" transform="translate(725.297 655.32)"></path>
    <path class="g" d="M68.272,30.562a.3.3,0,0,0,.231-.11c0-.12,0-.2-.161-.221a5.169,5.169,0,0,0-.532-.07.191.191,0,0,0,0,.07C67.91,30.391,68,30.582,68.272,30.562Z" transform="translate(725.294 655.324)"></path>
    <path class="g" d="M42.867,35.66c0-.07-.12-.151-.11-.211a4.357,4.357,0,0,0-.211-1.134,6.516,6.516,0,0,0-.161-.863c-.05-.211-.12-.432-.161-.642s-.211-.582-.261-.873a2.008,2.008,0,0,0-.161-.753.913.913,0,0,1,0-.331c0-.171,0-.3-.171-.341s-.251,0-.331.2a2.53,2.53,0,0,0-.151.341,1.435,1.435,0,0,0,.3,1.164c0,.08.13.161.141.241A3.273,3.273,0,0,0,42,33.893a.381.381,0,0,1,0,.231,1.626,1.626,0,0,0,.281,1.215.552.552,0,0,1,.141.452c0,.321.12.462.452.462A.612.612,0,0,0,42.867,35.66Z" transform="translate(725.191 655.325)"></path>
    <path class="d" d="M71.863,35.007a.863.863,0,0,1,.5-.341.391.391,0,0,0,.2-.06c.161-.161.723-.11.8-.341s.381-.713-.06-.954c0-.05-.161.07-.191,0-.171.161-.2.1-.331.241s-.351.552-.723.6c0,0-.07.06-.11.1a3.713,3.713,0,0,0-.482.492c-.211.3-.472.622-.271,1.074C71.431,35.488,71.672,35.247,71.863,35.007Z" transform="translate(725.306 655.336)"></path>
    <path class="d" d="M50.88,39.843a.125.125,0,0,1,.1.07,58.222,58.222,0,0,0,5.14,3.192c.281.181.7.622.893.532s-.05-.422,0-.482a.261.261,0,0,0,.131-.161,3.163,3.163,0,0,0,0-.532c0-.211-.08-.422-.08-.642a.522.522,0,0,0-.11-.3c-.151-.2-.08-.753-.2-1s-.07-1.084-.321-1.305-.934,0-1.185.1c-.391-.251-.9,0-1.345-.08a.4.4,0,0,0-.321,0,.753.753,0,0,1-.482.1h-.241a6.687,6.687,0,0,0-1-.191.614.614,0,0,0-.452.11,1.175,1.175,0,0,1-.482,0c-.271-.11-.06.221-.08.271A.744.744,0,0,0,50.88,39.843Z" transform="translate(725.228 655.358)"></path>
    <path class="d" d="M69.882,37.206a4.5,4.5,0,0,0,.813-1.606,1.355,1.355,0,0,0-.713.663c-.171.311-.351.612-.532.924C69.641,37.347,69.781,37.367,69.882,37.206Z" transform="translate(725.3 655.345)"></path>
    <path class="d" d="M47.05,45.4a1.255,1.255,0,0,0,.2-.2h0Z" transform="translate(725.214 655.382)"></path>
    <path class="d" d="M50.34,39.37l-.07.09Z" transform="translate(725.226 655.359)"></path>
    <path class="d" d="M45.8,46.063a5.7,5.7,0,0,0,1.255-.663L45.81,46Z" transform="translate(725.209 655.382)"></path>
    <path class="g" d="M65.678,30.707a.412.412,0,0,0-.191,0,5.541,5.541,0,0,1-1,.1c-.241,0-.4,0-.5.191a1.556,1.556,0,0,0-.612,0c-.211.09-.422.07-.622.151a1.2,1.2,0,0,0-.271.08.351.351,0,0,1-.371.07.361.361,0,0,0-.181,0,3.252,3.252,0,0,0-1.064.361,1,1,0,0,1-.331.1,3.7,3.7,0,0,0-1.415.371.7.7,0,0,1-.331.08,1.7,1.7,0,0,0-.9.291.883.883,0,0,1-.271.1,3.192,3.192,0,0,0-1.335.482.572.572,0,0,1-.221.04,2.248,2.248,0,0,0-.452.09,1.636,1.636,0,0,1-.482.131,1,1,0,0,1-1-.261c-.12-.141-.251,0-.392-.11a1.222,1.222,0,0,0-.351-.151,2.138,2.138,0,0,0-1.6,0c-.161,0-.331-.11-.472,0s-.231-.191-.422-.241a.372.372,0,0,0-.211,0,1.636,1.636,0,0,1-.693.07.763.763,0,0,0-.572.06.361.361,0,0,1-.181,0,.783.783,0,0,1-.622-.632q-.06-.482-.09-1v-.311a6.564,6.564,0,0,0,0-1,2.37,2.37,0,0,1,0-.653,1.616,1.616,0,0,0,.11-.522,2.851,2.851,0,0,1,.191-1.124c.11-.392.251-.773.361-1.164.06-.191,0-.4.11-.582.191-.552.391-1.1.612-1.646.281-.693.572-1.4.883-2.078.231-.512.512-1,.763-1.506l.632-1.185c.141-.261.291-.5.442-.753a6.424,6.424,0,0,0,.552-.944c.241-.642.522-1.265.8-1.887a11.6,11.6,0,0,0,.783-1.9v-.241a4.588,4.588,0,0,1,.161-.823,5.812,5.812,0,0,0,.632-2.168.271.271,0,0,1,0-.12c.1-.271.211-.542.321-.813l.823-1.837a.633.633,0,0,0,.07-.3,2.59,2.59,0,0,1,.251-1.164,7.751,7.751,0,0,1,.391-1c0-.09.08-.2,0-.281a.141.141,0,0,1,0-.131,2.419,2.419,0,0,1,.241-.793c.251-.582.522-1.154.773-1.737a.743.743,0,0,0,0-.361c0-.211.13-.191.311-.321a4.951,4.951,0,0,0,.341-.542C59.454.2,58.42,0,58.059.732c-.131.361-.09,1-.211,1.405a.291.291,0,0,0,0,.131,1.154,1.154,0,0,1-.161.813,7.8,7.8,0,0,0-.632,1.466.914.914,0,0,0,0,.632.462.462,0,0,1,0,.281c-.131.371-.271.733-.412,1.1a3.693,3.693,0,0,1-.151.351,4.347,4.347,0,0,0-.512,1.626,1.054,1.054,0,0,1-.06.241c-.211.5-.432,1-.632,1.506a4.126,4.126,0,0,0-.381,1.285,1.2,1.2,0,0,1-.181.663,3.013,3.013,0,0,0-.241.542c-.151.371-.3.733-.432,1.114s-.251.723-.361,1.094a4.457,4.457,0,0,1-.5,1.144,5.653,5.653,0,0,0-.422.763,8.132,8.132,0,0,1-.392.783,10.038,10.038,0,0,0-.843,1.636,4.547,4.547,0,0,1-.321.713c-.321.622-.653,1.245-1,1.857l-.341.642c-.211.392-.442.783-.653,1.175l-.542,1.084c-.08.151-.141.321-.231.482a2.1,2.1,0,0,0-.311,1.094.884.884,0,0,1-.06.271,10.038,10.038,0,0,0-.371,1.295,5.732,5.732,0,0,1-.311,1.365s-.231.642-.452,1.546a3.443,3.443,0,0,1-.6,1.285c-.251.462-.261,1.134-.592,1.747s-.642,1-.893,1.456a9.807,9.807,0,0,0-.7,1.506.723.723,0,0,1-.723.572,1.365,1.365,0,0,1-.281-.653.843.843,0,0,0-.06-.141c-.07-.13-.211,0-.331,0a.723.723,0,0,0,.11.522c0,.08.12.171.1.251a3.865,3.865,0,0,0,.07,1,8.062,8.062,0,0,0,.13,1,.7.7,0,0,1,0,.251c0,.331.281.3,0,.522s.131.3.1.472a2.075,2.075,0,0,0,0,.442l.3.622.271.512.422.863a8.7,8.7,0,0,0,.351,1.536l.06.251.361,1.506.12,1.526.181.181a5.441,5.441,0,0,1,.321-1.717.13.13,0,0,1-.07-.11.341.341,0,0,1,0-.191.181.181,0,0,1,.161-.09c.08,0,.1.151,0,.3l1.245-.642.2-.211a.612.612,0,0,1,0-.321.362.362,0,0,1,0-.11l.582-1.305s.361-.853.572-1.255.612-1,.893-1.556a9.889,9.889,0,0,1,.944-1.2l.07-.09.141-.191a1.2,1.2,0,0,0,.442-.211c3.182-2.52,3.473-3.242,3.774-3.584a5.332,5.332,0,0,0,.542-.693c.141-.211.522-.683.632-.853a1.837,1.837,0,0,1,.321-.3c.281-.141.462-.12.673-.412h.12l.793-.161a2.036,2.036,0,0,0,.562-.181l.542-.161c.141-.05.271-.181.4-.181a3.393,3.393,0,0,0,1.094-.291l.311-.141a.371.371,0,0,1,.2-.07,5.431,5.431,0,0,0,1.275-.261c.11,0,.211-.1.321-.12.321-.08.652-.151,1-.211a.934.934,0,0,1,.371,0,.311.311,0,0,0,.321-.07.432.432,0,0,1,.462-.07.361.361,0,0,0,.381-.09l.151-.161h.221a1.517,1.517,0,0,0,.3,0,.231.231,0,0,0,.221-.251C65.9,30.717,65.768,30.727,65.678,30.707Zm-17.467,7.87c-.161.412,0,.462-.2.873a6.174,6.174,0,0,1-.341,1.385,4.7,4.7,0,0,0-.08.542c0,.321-.09.331-.13.653a2.369,2.369,0,0,1-.11.612,7.026,7.026,0,0,0-.442,1,6.555,6.555,0,0,1-.492,1c-.07.161-.4.512-.482.482a9.228,9.228,0,0,1-.422-1,4.1,4.1,0,0,0-.281-.442.582.582,0,0,1-.181-.422c0-.422-.231-.562-.271-1a.934.934,0,0,0-.1-.2.673.673,0,0,1-.12-.462c0-.11-.131-.291-.151-.4a6.024,6.024,0,0,1-.271-.893,2.289,2.289,0,0,1,0-.783c.1-.321,1.285-.7,2.008-1.064h0l1-.5a5.3,5.3,0,0,1,.562-.1.462.462,0,0,1,.5.723Z" transform="translate(725.197 655.209)"></path>
    <path class="d" d="M69.422,37.341l-.171-.271c-.281.321-.562.632-.833,1-.131.151-.3.281-.291.522l-.181-.08c0,.08,0,.191-.08.191-.181,0-.241.161-.311.261-.271.361-.5.753-.783,1.094s-.582.944-1.154,1.154a.181.181,0,0,0-.08.09c-.141.181-.271.371-.422.542a3.715,3.715,0,0,1-.642.673,4.708,4.708,0,0,0-.813.733,1.084,1.084,0,0,1-.472.281,1.516,1.516,0,0,0-.442.221,4.166,4.166,0,0,1-.432.3,5.02,5.02,0,0,1-1.225.452c-.151,0-.281.12-.422.12a10.629,10.629,0,0,1-1.6-.08h-.492a1.385,1.385,0,0,1-.823-.131,1.506,1.506,0,0,1-.432-.442.231.231,0,0,0-.422,0,.783.783,0,0,1-.371.432,4.6,4.6,0,0,1-1.5.622.592.592,0,0,0-.2.09.7.7,0,0,1-.833,0,1.546,1.546,0,0,0-1.074,0c-.341,0-.723,0-.753-.1s-1.154-.131-1.154-.171-1.114.07-1.2.07a1.441,1.441,0,0,0-.693,0c-.3-.09-.5.1-.733.241s-.251.181-.432.141-.582.181-.653-.11a1.254,1.254,0,0,1-.2.2,5.7,5.7,0,0,1-1.255.663s-.12.07-.161,0a5.441,5.441,0,0,0-.321,1.717.351.351,0,0,0,.09.231l.612.472.863.653A9.848,9.848,0,0,1,48,49.969c.251.2.793.733,1.285,1.074l.532.181L50.911,52l.341.161a8.763,8.763,0,0,0,1.516.673h0c.763.181,1.225,0,1.917.622.211-.622.452-.151.653.1s.191.251.271.361a9.486,9.486,0,0,0,1,1.275l.191.181c.05,0,2.67,1.8,1.114-.151a.522.522,0,0,1,0-.241c0-.281-.07-.582.221-.8a1.315,1.315,0,0,0,.3-.482,10.479,10.479,0,0,1,.833-1.456,10.881,10.881,0,0,0,.783-1.185,2.891,2.891,0,0,1,.452-.7.783.783,0,0,0,.171-.261c.05-.11.1-.221.161-.331l.351-.673a12.709,12.709,0,0,1,.632-1.144,8.035,8.035,0,0,0,.442-.743,2.449,2.449,0,0,1,.542-.763,3.1,3.1,0,0,0,.733-.883l.09-.161.683-1.124a5.6,5.6,0,0,1,.321-.522c.191-.261.4-.522.592-.773a4.677,4.677,0,0,1,.642-.813,7.419,7.419,0,0,0,1.305-1.747c.07-.1.12-.231.191-.341s.141-.261.221-.381.311-.3.221-.572H68.2ZM59.384,47.661c.181.261-1.225,4.919-1.265,5.09-.11.4-.141.924-.462.944h0l-.883-.11s-1.255-.572-1.355-.673a7.718,7.718,0,0,0-.934-.512l-2.309-.562L50.419,50.5l-1-.913-.5-.592c-.361-.09-.713-.6-.773-.683-.4-.291-.683-.683-.412-.863s1.215-.191,1.6-.361.883-.522,1.225-.5a3.1,3.1,0,0,0,1-.181c.331-.13,1.074-.12,1.325-.271,0,0,1.2-.08,1.285-.11h0c.13,0,.241,0,.281-.09a1.757,1.757,0,0,1,.2.161.763.763,0,0,1,.572-.09h1c.151,0,.432-.08.592-.07s.231.11.381.11-.241.13-.381.171-.522,0-.663.06c-.743.211-1.245.422-1.5.482a1,1,0,0,0-.783.512,6.144,6.144,0,0,1,.412,1.365,8.583,8.583,0,0,0,.673,1.817,10.176,10.176,0,0,0,.612,1.094,1.064,1.064,0,0,0,.723-.432c.211-.392,1.646-2.429,2.921-4.126l.331-.442c.191-.05-.211.994-.13,1.114Z" transform="translate(725.207 655.35)"></path>
    <path class="h" d="M31.25,28.462v-.251a.281.281,0,0,1,0-.181c0-.09.11-.11.171-.131h.151l.05.161a.392.392,0,0,1,0,.171.191.191,0,0,1-.13.141h-.06Z" transform="translate(725.153 655.315)"></path>
    <path class="h" d="M32,30.722v-.13h0a.241.241,0,0,1,0-.191.261.261,0,0,1,.151-.141h.06l.181-.12v.291a.281.281,0,0,1,0,.181.2.2,0,0,1-.151.11H32Z" transform="translate(725.156 655.324)"></path>
    <path class="h" d="M32.52,36.812v-.141h0a.271.271,0,0,1,0-.2.361.361,0,0,1,.171-.131h.07l.181-.09v.271a.281.281,0,0,1,0,.2.221.221,0,0,1-.171.1h0Z" transform="translate(725.158 655.347)"></path>
    <path class="h" d="M32.46,35.693v-.171a.512.512,0,0,1,.281-.562l.131-.07v.141a.442.442,0,0,1-.281.6Z" transform="translate(725.158 655.342)"></path>
    <path class="h" d="M31.891,29.882a.271.271,0,0,1-.2-.13v-.12a.913.913,0,0,1,.09-.171l.12-.2.11.141a.331.331,0,0,1,.11.311.241.241,0,0,1-.171.161Z" transform="translate(725.155 655.32)"></path>
    <path class="h" d="M32.411,31.452H32.18l.08-.412.141.05h.191Z" transform="translate(725.156 655.327)"></path>
    <path class="h" d="M32.63,34.393l-.06-.11a.371.371,0,0,1,.161-.542l.11-.07.06.11a.392.392,0,0,1,.07.3.512.512,0,0,1-.231.251Z" transform="translate(725.158 655.337)"></path>
    <path class="h" d="M52.778,52.941h0a8.764,8.764,0,0,1-1.516-.673l-.341-.161-1.094-.773-.532-.181a2.439,2.439,0,0,0,.452.261c.552.2,1.245.713.9.7a12.909,12.909,0,0,1-2.59-.562,10.53,10.53,0,0,0-2.128-.261,6.083,6.083,0,0,0-1.686-.12,12.849,12.849,0,0,1-2.429-.482s-.191-.472.773-.793,1.355-.381,1.847-.552a4.015,4.015,0,0,1,2.078-.3,1.134,1.134,0,0,1,.331.131l-.773-.6h0L45.46,48.1a.351.351,0,0,1-.09-.231l-.181-.181-.141-1.516-.361-1.506-.06-.251c-.171-.552-.3-1.335-.351-1.536l-.412-.863-.271-.512-.3-.622a1.466,1.466,0,0,0,0,.562,4.015,4.015,0,0,0,0,.582c.211.151,0,.341,0,.552a.341.341,0,0,1-.08.161c-.723-.08-1.576-.131-1.8-.191a7.81,7.81,0,0,0-1.195-.331l-1.6-.3a5.592,5.592,0,0,0-1.235-.532,6.746,6.746,0,0,1-2.008-.642,7.489,7.489,0,0,0-1.456-.652,1.5,1.5,0,0,0,0-.181c-.863-4.076-1.074-2.73-1.124-2.239a.572.572,0,0,0,0,.141l.141.783-.08.1c-.11.181-.07.241.151.261h0l.08.422a.361.361,0,0,0-.11.562.311.311,0,0,1,.09.3,2.148,2.148,0,0,0,0,.673c.06.2.131.392.2.582v.813l-.432,1.275h0a2.46,2.46,0,0,0-.472.572h0l1.1.241h.261a1.466,1.466,0,0,1,.361.09l.221.131a1,1,0,0,1,.452,1.084l-1,1.767a2.59,2.59,0,0,1,.713.492c.11.12,1,1.084,1,1.1a2.1,2.1,0,0,1,.783,1c0,.181-.532.09-.683.09h-.873c-.12,0-.3-.1-.472-.07-.341.07-.512-.131-.823-.171-.151,0-.141-.151-.12-.311s.141-.261.211-.5l.09-.351c0-.05.09-.151.11-.221l.191-.793.221-.221s-.321-.171-.392,0-.09.211-.141.341a3.012,3.012,0,0,0-.221.572l-.161.622v.261a1.144,1.144,0,0,0-.1.642v.351l-.05,1-.442,1.817c.542.291,1.074.6,1.6.944a1.626,1.626,0,0,1,.793.934.923.923,0,0,0,.131.211,2.891,2.891,0,0,0,.221.381c.171.241.181.642.592.693,0,0,.05,0,.06.07a.256.256,0,0,0,.311.151.321.321,0,0,1,.432.161h0V57c.321-.07.673-.161,1-.221l.291-.1,3.935-.141A2.56,2.56,0,0,0,43.483,56c.793-.562,5.1-1.185,5.1-1.185l1.8-.622.974-.131v-.05a2.1,2.1,0,0,1,.763-.191s.8-.482.823-.642S52.778,52.941,52.778,52.941ZM34.207,51.365c.281-.07.311-.06.422.211C34.257,51.636,34.237,51.626,34.207,51.365Zm4.929-7.78c.331,0,2.459-.161,3.845-.351,0,.06.07.11.09.161-.151.261-.341.582-.452.743s-1.456,1.436-1.676,1.686a.632.632,0,0,1-.522.251,4.016,4.016,0,0,0-.6-.642,6.022,6.022,0,0,1-.753-.924,4.126,4.126,0,0,0-.391-.673A.793.793,0,0,1,39.136,43.585Zm.221,12.558c-.391-.211-1.245.271-1.877.09a4.8,4.8,0,0,1-1.526-.733c-.3-.241.141-1.375.06-2.008s.592-1.827.683-2.369.432.452.653.7,1.355,1.757,1.807,2.168,1.415,1.195,1.315,1.646a.833.833,0,0,1-1.114.5Zm1.456-8.382a3.012,3.012,0,0,0,.181-.361c.06-.171.311-.331.552-.642a10.862,10.862,0,0,0,.572-.934l.653-1s.442-.432.713-.723a.9.9,0,0,0,.191.151c.251.13.251.452.442.642s.08.281.09.412a1.215,1.215,0,0,0,.11.482,1.074,1.074,0,0,1,.191.522c0,.3.191.251.221.552a1.707,1.707,0,0,0,0,.221,2.008,2.008,0,0,0,.07.542.542.542,0,0,1,0,.452,2.532,2.532,0,0,0-.12.291c-1.225.261-2.008,0-3.714-.542Z" transform="translate(725.157 655.35)"></path>
    <path class="h" d="M31.55,29.121,31.5,29a.151.151,0,0,1,0-.2.5.5,0,0,1,.171-.06h0a.151.151,0,0,1,.151.11l.08.171Z" transform="translate(725.154 655.318)"></path>
    <path class="i" d="M2.11,41.053a2.8,2.8,0,0,0,.331.191c.211.131.452.221.652.371a2.56,2.56,0,0,0,1.275.392,2.128,2.128,0,0,1,.934.221,2.008,2.008,0,0,0,.813.211,2.86,2.86,0,0,1,.763.151c.653.271,1.295.582,1.937.863a.693.693,0,0,0,.612.05.141.141,0,0,1,.11,0c.542.211,1.084.432,1.616.663s.853.392,1.285.582a2.009,2.009,0,0,0,.311.08V44.7a2.661,2.661,0,0,0-.422-.261c-.161-.06-.151-.361-.391-.291a.924.924,0,0,0-.492-.361c-.632-.291-1.285-.552-1.937-.813-.4-.151-.813-.271-1.215-.4s-.612-.2-.914-.321l-1.415-.592a2.871,2.871,0,0,0-.612-.151,4.849,4.849,0,0,1-.663-.141c-.361-.1-.723-.181-1.084-.261-.07,0-.532-.3-.572-.3a1.035,1.035,0,0,1-.241-.321,1.1,1.1,0,0,0-.612-.09.306.306,0,0,0-.12.462C2,40.942,2,41,2.11,41.053Z" transform="translate(725.04 655.363)"></path>
    <path class="i" d="M34.3,44.662l-.181-.131a1.466,1.466,0,0,0-.361-.09H33.5L32.4,44.2a1.345,1.345,0,0,0-.12.241l-.522.07a18.17,18.17,0,0,0-2.108.693c-.181,0-2.73,1.295-3.232,1.446a30.044,30.044,0,0,1-3.524.131,1.375,1.375,0,0,0-.422-.291l-.723-.311s-.09,0-.1-.06c-.12-.191-.3-.191-.5-.171a1.537,1.537,0,0,1-.261-.08c-.2-.07-.291,0-.341.181a.361.361,0,0,0,.13.452,3.273,3.273,0,0,1-.5,0c-.452-.08-.954,0-1.285-.462a.261.261,0,0,0-.131-.08,3.4,3.4,0,0,0-.763-.191,6.525,6.525,0,0,1-1.747-.361.8.8,0,0,0-.331-.08,1.546,1.546,0,0,1-.893-.221,11.044,11.044,0,0,0-1.576-.582.412.412,0,0,0-.281.07c-.1.06-.1.171,0,.281l.191-.151a2.57,2.57,0,0,0,.321.281c1,.482,1.917,1,2.9,1.436a5.5,5.5,0,0,0,1.315.512.663.663,0,0,1,.422.241,1.676,1.676,0,0,0,.863.6,4.387,4.387,0,0,1,.8.422,8.633,8.633,0,0,0,.853.452c.261.12.542.221.813.331l.07.06c.221.151.442.3.673.442s.693.4,1,.622a.4.4,0,0,1,.13.5c-.06.191-.221.161-.361.171h-.09a.863.863,0,0,0-.542.1c-.281.141-.572.261-.853.381a2.409,2.409,0,0,0-.462.211c-.291.211-.673.141-1,.341h-.151a.472.472,0,0,0-.422.151.251.251,0,0,1-.281.08,1.124,1.124,0,0,0-.7.08.673.673,0,0,1-.6.07h-.181a1.365,1.365,0,0,1-.542.09,1.636,1.636,0,0,0-.472.12.5.5,0,0,1-.321.06.391.391,0,0,0-.452.151.251.251,0,0,1-.291.11h-.452a.4.4,0,0,1-.4.07h-.181l-1.546.392a.512.512,0,0,1-.271,0,.432.432,0,0,0-.351,0,.7.7,0,0,1-.381.1.512.512,0,0,0-.391.08.763.763,0,0,1-.5.13.3.3,0,0,0-.321.151.767.767,0,0,0-.09.09c-.211,0-.4-.08-.532,0a1.365,1.365,0,0,1-.733.2.331.331,0,0,0-.161.09.472.472,0,0,1-.371.09.663.663,0,0,0-.562.131.482.482,0,0,1-.241.06,2.69,2.69,0,0,0-.4,0l-1.546.381a1.187,1.187,0,0,0-.422.05c-.462.151-.9.311-1.355.482a.432.432,0,0,0-.211.141c-.211.3-.562.371-.863.532s-.452.12-.622.331-.251.1-.392.151a.582.582,0,0,1-.131.151c-.08.07-.191.12-.241.2a1,1,0,0,0-.161.422c0,.141.1.211.231.251s.08.11.11.161a.783.783,0,0,0,.622-.141.753.753,0,0,1,.331-.06.341.341,0,0,0,.251-.09,1.787,1.787,0,0,1,.5-.331c.442-.171.783-.552,1.275-.622h0a7.026,7.026,0,0,0,.873-.432,4.548,4.548,0,0,1,1-.482A4.848,4.848,0,0,1,7.8,55.2a1.456,1.456,0,0,0,.311-.161l.271-.12a2.188,2.188,0,0,1,1-.211h.12c.181-.181.412-.12.622-.161s.632-.191.944-.291c.12,0,.231-.1.341-.13a2.008,2.008,0,0,0,.422-.09.713.713,0,0,1,.422-.08.813.813,0,0,0,.392,0c.331-.231.743-.11,1.074-.311a7.539,7.539,0,0,0,1.8-.422,2.687,2.687,0,0,1,.3,0h.371l.522-.07a.622.622,0,0,0,.412-.12.542.542,0,0,1,.321-.07.693.693,0,0,0,.522-.131.432.432,0,0,1,.261-.09,2.64,2.64,0,0,0,1.215-.221,1.867,1.867,0,0,1,.582-.11.843.843,0,0,0,.422-.09A2.65,2.65,0,0,1,21.886,52l1.124-.1h.09c.191-.05.371-.12.572-.161.361-.07.753-.09,1.1-.191a2.891,2.891,0,0,1,.713-.06.612.612,0,0,0,.271,0,1.375,1.375,0,0,1,.8-.08,1.558,1.558,0,0,0,.311,0,4.819,4.819,0,0,1,1.355.2l.793.171a4.017,4.017,0,0,1,.522.11c.482.2,1,.412,1.435.632s1,.5,1.526.763h.08l.442-1.817.05-1v-.351a1.144,1.144,0,0,1,.1-.642v-.261l.251-.622a2.188,2.188,0,0,1,.221-.522,3.432,3.432,0,0,1,.171-.4s0-.151.06-.141l.211-.412c.351-.361.9-.763.853-1.405C34.936,44.672,34.3,44.662,34.3,44.662Zm-.843,1.686c-.221.422-.231.562-.452,1a4.538,4.538,0,0,0-.181.472c-.171.432-.351.763-.5,1.195a7.52,7.52,0,0,0-.351.924,5.2,5.2,0,0,1-.241.7c-.151.7.07.291-.893.211-.371,0-1-.422-1.375-.492a6.749,6.749,0,0,0-1.114-.341,2.74,2.74,0,0,1-.863-.291c-.261-.1-.592-.251-.853-.371a6.384,6.384,0,0,1-.763-.311,4.848,4.848,0,0,0-1.415-.683.612.612,0,0,1-.391-.2,2.449,2.449,0,0,0,.673-.171c.311-.231.743,0,1-.171A11.909,11.909,0,0,1,27.1,47.5c.381-.11,2.008-1,2.008-1s2.008-.883,2.56-1a11.1,11.1,0,0,1,1.927-.211,1.676,1.676,0,0,0,0,.391,1.144,1.144,0,0,1-.131.673Z" transform="translate(725.04 655.378)"></path>
  </g>
</svg>
